<?xml version="1.0" standalone="no"?>
<!DOCTYPE svg PUBLIC "-//W3C//DTD SVG 1.1//EN" "http://www.w3.org/Graphics/SVG/1.1/DTD/svg11.dtd" >
<svg xmlns="http://www.w3.org/2000/svg">
<metadata>
This is a custom SVG webfont generated by Font Squirrel.
Designer    : Marcelo Magalhaes
Foundry     : Marcelo Magalhaes
</metadata>
<defs>
<font id="webfontDz6EgikP" horiz-adv-x="472" >
<font-face units-per-em="1000" ascent="725" descent="-275" />
<missing-glyph horiz-adv-x="180" />
<glyph unicode=" "  horiz-adv-x="180" />
<glyph unicode="&#x09;" horiz-adv-x="180" />
<glyph unicode="&#xa0;" horiz-adv-x="180" />
<glyph unicode="!" horiz-adv-x="192" d="M36 681q-6 -57 -4 -255.5t1 -251.5q110 3 124 4q-8 154 -1 505q-29 4 -40 4.5t-42.5 -3t-37.5 -3.5zM38 12l72 1q7 0 18.5 -0.5t19.5 -0.5h7q0 10 3 115q-11 0 -37.5 2t-46 1.5t-33.5 -5.5q0 -12 -2.5 -45.5t-3 -46.5t2.5 -21zM110 2l-72 -1q-17 0 -11 80q3 48 3 52 q21 9 50 9q15 0 41 -2t48 -2q0 -5 -0.5 -21.5t-0.5 -22.5q-2 -54 -2 -93h-18q-4 0 -10.5 0.5t-9.5 0.5h-18zM24 682l11 11q16 2 28 2q32 4 54 4q18 0 50 -6v-35q-4 -174 -4 -271q0 -107 5 -219q-43 -6 -104 -6h-43q0 16 0.5 55t0.5 56t-0.5 50t-0.5 49q0 24 -0.5 71t-0.5 71 q0 93 4 168z" />
<glyph unicode="&#x22;" horiz-adv-x="372" d="M228 700v-2q-4 -53 -2 -232h39q27 0 48.5 0.5t20.5 0.5q0 151 -2 235q-4 9 -104 -2zM44 700q-4 -53 -2 -234l108 1q0 151 -2 235q-4 9 -104 -2zM32 701l12 11h4q102 11 111 -9q4 -168 4 -247l-13 -1h-120q0 15 -0.5 46t-0.5 40q0 11 -0.5 28t-0.5 25q0 47 4 107zM216 700 l12 12h5q102 11 110 -9q1 -42 1 -247h-9q1 0 -24 0t-55 -0.5t-42 -0.5q0 16 -0.5 46t-0.5 39q0 10 -0.5 28t-0.5 25q0 47 4 106v1z" />
<glyph unicode="#" horiz-adv-x="656" d="M362 258l-119 -1q23 61 41 123h2q32 0 114 -2h1h1v-1q-5 -18 -19.5 -56.5t-19.5 -60.5l-1 -1v-1zM617 380l-6 87v4q-11 0 -31 0.5t-30 0.5l12 40l10 32q4 11 7.5 23.5t5 17t3.5 12t2 8.5t0.5 6.5t-0.5 5.5q-18 4 -54.5 2t-53.5 2h-1h-1q-31 -120 -48 -146q-24 1 -60 0.5 t-53 -0.5q43 138 42 140q-33 2 -62.5 2.5t-39 1t-12.5 1.5v-1q-6 -24 -22.5 -77t-22.5 -66v-1l-1 -1h-29q-121 -3 -137 5l2 -103q52 0 85 0.5t39 0.5h8q-13 -38 -22 -68t-11.5 -39.5t-5.5 -12.5q-93 -2 -105 4q0 -11 0.5 -32.5t1 -39t1.5 -32.5q10 -1 32 0.5t31 1.5 q-40 -98 -49 -148q72 3 102 0q6 0 8 2q7 13 13 34l17 43q7 17 9.5 22.5t7 17t11.5 31.5h110h1q-5 -21 -23 -70t-25 -79h109h1l1 1q11 20 24.5 54t22.5 61.5t10 29.5h2h1q52 2 78.5 1.5t46.5 -0.5t38 3v2q-1 18 -1.5 35t-0.5 24t-1.5 15t-3.5 15q-28 2 -55.5 3t-46.5 1h-22 l20 57l20 63zM622 468l8 -100l-105 -2q-21 -57 -25 -73q-2 -7 -4 -13l-4 -12h6q38 0 111 -5q7 -28 7 -49q0 -26 3 -62q-30 -4 -80 -4q-43 0 -91 -1q0 -1 -1 -5t-2 -6q-31 -94 -56 -135h-10l-17 -1h-34q-28 0 -70 2q8 32 32 99q12 31 16 50h-33h-55q-6 -22 -17 -46 q-5 -11 -25 -59v-4l-1 -2q-3 -15 -12 -30q-10 -10 -20 -10q-8 1 -41 1q-28 0 -74 -2q13 64 45 147q0 -1 1 2q-1 0 -4.5 -0.5t-5.5 -0.5q-27 -2 -47 0q-3 32 -3 79q0 6 -0.5 29t-0.5 28q25 -15 80 -15h30q0 1 1.5 6.5t3.5 11.5q4 16 25 79q-3 0 -44.5 -0.5t-82.5 -0.5l-2 133 q24 -12 94 -12q32 0 53 1h23q32 88 44 151q16 -7 41 -7q33 0 90 -3q5 -16 -25 -107q-2 -5 -4 -14t-5 -19h35h55q18 41 48 148q29 -6 61 -4q37 2 66 -3q3 -19 -13 -75l-9 -32l-12 -38h56v-15zM74 147l-1 -1q1 0 1 1zM259 268l94 1q4 15 20 57q8 20 12 40q-65 2 -93 1l-14 -46 q-11 -33 -19 -53z" />
<glyph unicode="$" horiz-adv-x="537" d="M238 11h2q6 0 31.5 -0.5t26.5 -0.5h1q1 0 2 1q9 10 6 28.5t1 27.5q2 2 3 2q19 4 28 1q67 -10 103 20t44 85q-1 14 -1 40.5t-0.5 39.5t-3 34t-6.5 32t-12.5 26t-21 23t-31 15.5t-42.5 11.5q-27 4 -58 4h-1v2q-1 20 -4 101h1q9 -29 31.5 -35t61 -1.5t59.5 0.5q8 -1 12 5 t3 15q0 119 -55 144q-62 7 -112 4v1q-2 7 0.5 28t-6.5 23q-12 2 -35.5 -1.5t-27.5 -3.5v-1q-2 -9 -1.5 -28t-1.5 -24v-1q-61 16 -108 -12.5t-67 -79.5q-29 -92 3.5 -168.5t116.5 -88.5q43 -4 55 -8q5 -29 1 -85q-6 2 -17.5 17t-20.5 19q-7 1 -24.5 2.5t-25.5 2t-22 1 t-23 -0.5t-19.5 -3t-19.5 -5q-12 -40 -3 -82.5t38 -60.5q18 -10 60 -9t65 -2q1 0 3 -1q2 0 2 -1q6 -46 8 -50l1 -1q1 -1 1 -2zM238 0q-7 0 -8.5 1t-3.5 9q-6 12 -8 37q0 5 -1 8q-19 4 -48 2q-56 -2 -77 10q-47 28 -47 104q0 27 9 58q30 11 65 11q28 0 58 -3q3 -1 11 -1 t12 -1q13 -9 26 -22v18q0 11 -2 31q-5 1 -14.5 2.5t-14.5 2.5q-3 1 -9 1t-9 1q-66 11 -104.5 63t-38.5 122q0 36 15 91q18 43 56 71.5t89 28.5q20 0 31 -2v11q0 26 1 31l11 10q3 0 21 2q36 5 47 2q18 -13 12 -40q-2 -8 -1 -10h17q49 0 88 -6q63 -29 63 -155 q2 -15 -5.5 -23.5t-23.5 -7.5q-16 3 -59 -1q-22 -2 -32 -2q-30 0 -47 12q0 -2 1 -21.5t2 -32.5q26 0 50 -4q37 -5 61.5 -18.5t37.5 -27.5t19.5 -42.5t7.5 -46.5t1 -57q0 -28 1 -42q-20 -118 -130 -118q-20 0 -25 1q-10 3 -27 1q0 -3 2 -13q5 -27 -13 -45l-7 -2h-6 q-7 1 -13 1q-15 1 -39 1h-2z" />
<glyph unicode="%" horiz-adv-x="610" d="M433 166l-4 70v1q-2 24 5 37q6 9 16 12q16 9 28 -7q0 -1 1 -2.5t2 -2.5q13 -47 9 -114q0 -2 -0.5 -5t-0.5 -5t-1 -5q-5 -29 -22 -33q-10 -4 -20.5 1.5t-10.5 16.5q-1 6 -1 18t-1 18zM353 198l1 -23v-1q2 -10 4 -30l4 -27q9 -45 47 -69q21 -12 45 -13q41 -2 68.5 26.5 t37.5 67t8 77.5q1 20 -4 55q-7 43 -35 72t-73 28q-41 -1 -70 -37q-6 -7 -10.5 -15t-7.5 -15t-5 -18t-3 -17t-2.5 -19t-2.5 -18zM106 468l-5 70v1q-2 25 6 37q6 10 15 13q17 8 29 -8q1 -1 2 -2.5t1 -2.5q12 -47 8 -113v-11q-5 -27 -14 -34q-4 -2 -9 -4q-11 -4 -21 1.5 t-10 16.5q0 6 -0.5 18t-1.5 18zM26 501l1 -24v-1q2 -10 4.5 -29.5t3.5 -26.5q7 -45 46 -70q21 -10 46 -12q41 -2 68.5 26.5t37.5 66.5t8 77q1 21 -4 56q-8 43 -35.5 71.5t-72.5 27.5q-42 -1 -70 -36q-7 -8 -12 -17t-8.5 -22t-4.5 -19.5t-3 -23t-3 -20.5zM237 18l54 138 q12 28 21 57q0 1 71 207l19 53l18 52l42 138q2 10 6 17q-18 8 -61.5 7t-64.5 1l-11 -42q-6 -22 -12 -40l-11 -32q-5 -14 -9 -24l-4 -10l-17 -52l-19 -59q-80 -214 -90 -248q-17 -38 -30 -84q-1 -2 -5 -13l-8 -22l-8 -24q-5 -13 -6 -19.5t2 -8.5h1q36 1 64.5 1.5t38.5 0.5 t16 1q1 1 3 5zM302 152l-57 -142l-7 -8q-8 -2 -36 -2q-44 0 -88 -1q-4 0 -7 2t-4 5.5t-1 8t1 11t2.5 12t4.5 12.5l4 14l5 12t4 11q2 3 3 9l2 6v-1q19 60 30 83q8 26 90 249q8 21 21 63l-1 -1q10 32 16 48q0 1 1 3l2 4q32 97 46 151q25 -5 61 -3q59 2 89 -12q-8 -13 -9 -26 l-8 -24l-14 -48l-21 -67l-15 -40l-12 -36q-9 -24 -11 -29l-24 -74l-46 -133q-3 -9 -10 -28.5t-11 -28.5zM16 474l-1 27l2 26q0 10 1 15q8 65 32 92q35 40 79 40q50 1 80.5 -30t38.5 -78q5 -36 4 -58q2 -42 -9.5 -82.5t-42 -71t-74.5 -28.5q-26 2 -51 15q-42 26 -52 77l-3 25 q-3 17 -4 31zM113 539l5 -71q0 -3 0.5 -9t0.5 -9q0 -10 1 -16q0 -12 15 -9q8 2 14 24v-1l1 2v2v5q0 1 0.5 3.5t0.5 3.5q1 9 1 28q0 42 -11 82l-1 2v2q-6 3 -9 2q-8 -2 -14 -10v1q-6 -10 -4 -32zM343 172l-1 26l2 26q0 2 0.5 7.5t1.5 7.5q6 63 31 93q33 39 79 40 q50 1 80.5 -30.5t39.5 -78.5q4 -41 3 -57q2 -42 -9.5 -82.5t-42 -71t-74.5 -28.5q-24 1 -51 14q-42 27 -52 77q0 4 -0.5 12.5t-1.5 12.5t-2.5 15.5t-2.5 16.5zM440 237l5 -71q0 -4 0.5 -9.5t0.5 -8.5q0 -11 1 -16q0 -7 5 -9.5t10 -0.5q10 3 14 25v-1v2q1 1 1 2v5l1 3v3 q1 10 1 29q0 41 -11 82v2l-1 2q-7 3 -9 2q-9 -3 -14 -11v1q-6 -10 -4 -31z" />
<glyph unicode="&#x26;" horiz-adv-x="561" d="M189 105q-23 5 -39 23q-37 41 -17.5 84.5t72.5 46.5h1l53 -61l67 -75q0 -1 0.5 -1t0.5 -1q-13 -10 -31.5 -15.5t-36.5 -6t-32.5 0.5t-26.5 3zM218 539h1q38 -5 69 -39.5t26 -72.5q-5 -20 -22.5 -35t-40.5 -20q-28 -5 -55.5 9t-41.5 40q-8 23 -2.5 49.5t17.5 42.5 q19 28 49 26zM509 67l-59 59q54 126 47 185q-8 1 -46 3t-41 2t-3 -3v-1q-9 -61 -27 -99l-26 26l-37 37l-21 21l1 1q56 39 78 97.5t6 119.5q-19 46 -71.5 71t-108.5 23q-52 1 -85.5 -29.5t-41.5 -74t3.5 -92t40.5 -83.5v-1q-47 -22 -68.5 -66.5t-16.5 -96.5q0 -13 4 -31 q11 -54 56 -86t100.5 -37.5t111.5 5.5t94 37q24 -31 29 -35q41 -13 95 -3q4 11 -0.5 28.5t-13.5 22.5zM464 128l51 -52q11 -9 16 -31.5t-1 -38.5q-27 -5 -52 -5q-29 0 -56 9q-8 5 -23 26l-2 3q-65 -42 -163 -42q-74 0 -133 35t-75 101q-4 16 -4 32q-4 50 16 96.5t63 72.5 q-42 55 -42 132q0 66 36.5 110.5t105.5 43.5q59 2 114.5 -25.5t76.5 -77.5q7 -24 7 -53q0 -101 -86 -169l63 -63q13 31 20 83q0 12 14 12q1 0 31 -2q7 0 23.5 -1t27.5 -1.5t15 -0.5q4 -31 -4 -70.5t-15 -60.5t-24 -63zM302 429q5 33 -23 63.5t-62 35.5q-22 2 -39 -21 q-18 -29 -18 -59q0 -11 5 -23l-1 1q13 -21 37 -33.5t48 -8.5q20 3 34.5 16t18.5 30v-1zM192 116h-1q1 0 3 -1t4 -1l-2 1q40 -4 51 -4q39 0 62 13q-47 50 -63 72q-14 17 -46 52q-28 -4 -45.5 -22.5t-17.5 -42.5t21 -48h-1q17 -15 35 -19z" />
<glyph unicode="'" horiz-adv-x="175" d="M34 683v-2q-3 -46 -1 -231v-1q11 0 38 0.5t48.5 0.5t20.5 0q0 151 -2 235q-3 8 -103 -2h-1zM24 695h11h6q101 11 109 -9q2 -84 2 -236l-12 -10h-5q-5 0 -13.5 -0.5t-19.5 -0.5h-23h-23h-20h-15q0 16 -0.5 46t-0.5 39q0 10 -0.5 27t-0.5 25q0 42 5 119z" />
<glyph unicode="(" horiz-adv-x="314" d="M99 51q22 -18 52 -29q32 -10 62 -11h17q33 0 40 9q1 16 1.5 55t1.5 55v5h-1q-29 0 -57 20t-42 50q-7 24 -9 51t-1 66.5t1 51.5q3 50 11 91l6 24q11 55 88 77q3 96 0 117l-1 1q-62 6 -70 6q-99 -2 -143 -86q-14 -24 -18.5 -49t-4.5 -69v-51v-23q0 -4 -6 -207 q4 -58 33 -111l4 -6q13 -19 36 -37zM92 41v1q-21 16 -39 39l2 -1q-4 4 -7 10l1 -1q-31 57 -34 116l3 67q4 94 3 140v23q1 13 1 42q0 92 23 133v-1q47 90 153 92q37 -2 52 -4l29 -4q3 -20 3 -51q0 -34 -1 -51q0 -5 -0.5 -18.5t-0.5 -16.5q-79 -22 -88 -67q-1 -2 -1 -10 q-1 -3 -2 -8t-2 -8q-8 -39 -12 -90v-42q0 -5 -0.5 -17t-0.5 -18q0 -56 10 -88v2q12 -27 40.5 -45t59.5 -19v-17q-1 -16 -1 -55q0 -26 -2 -58q-6 -8 -15.5 -12t-13.5 -4h-17h-23q-29 1 -64 10q-29 10 -56 31z" />
<glyph unicode=")" horiz-adv-x="314" d="M207 51q23 18 36 37l4 6q28 51 32 111q-5 181 -5 207v23q-1 14 -1 42t-0.5 45t-6 40.5t-15.5 41.5q-44 84 -143 86q-8 0 -70 -6l-1 -1q-3 -21 0 -117q31 -9 57 -28.5t31 -48.5l6 -24q8 -41 11 -91q0 -10 0.5 -51t-1.5 -67.5t-9 -50.5q-14 -30 -42 -50t-56 -20h-1v-5 q1 -16 1.5 -55t1.5 -55q7 -9 40 -9h16q30 1 62 11q32 12 53 29zM214 42v-1q-27 -20 -57 -31q-35 -9 -65 -10h-22q-33 0 -45 16q-2 32 -2 58q0 39 -1 55l1 17q31 1 59 19t40 45v-2q10 32 10 88q0 6 -0.5 18t-0.5 17v42q-4 51 -12 90q-1 3 -2 8t-2 8l1 -2q0 1 -1 6t-2 6 q-8 45 -87 67q0 4 -0.5 17t-0.5 18q-1 15 -1 51q0 29 4 53q15 0 27 2q16 2 52 4q107 -2 154 -92l-1 1q12 -20 17.5 -45.5t6 -40.5t0.5 -47q0 -29 1 -42v-23q-1 -44 3 -140q0 -9 1 -32.5t2 -34.5q-3 -59 -35 -116l1 1q-1 -5 -6 -10l2 1q-18 -23 -39 -39z" />
<glyph unicode="*" horiz-adv-x="370" d="M246 357l62 49q1 2 9.5 9.5t14 14t4.5 11.5q-1 1 -18 20l-32 37q-15 18 -17 18q4 8 33 36.5t30 41.5l-80 80q1 1 -16 -14l-35 -32q-18 -17 -19 -18q-5 3 -38.5 34t-37.5 32l-1 -1q-9 -6 -43 -41.5t-40 -37.5q3 -5 32.5 -38.5t33.5 -42.5q2 -4 1 -5q-64 -70 -66 -73 q17 -14 82 -75q3 0 7 3q9 7 33.5 30.5t29.5 26.5q5 -2 50 -47q9 -4 19 -18q2 -2 2 0zM315 398l-74 -57q-2 2 -7 7.5t-9 10.5l-4 5q-37 37 -45 44q-9 -6 -18 -17l-41 -37l1 2q-6 -6 -17 -6l-13 12l-11 12v-1q-29 28 -69 62q4 7 45 53q14 16 23 25q-2 3 -34 40q-31 41 -36 50 q13 4 20.5 9t16 15.5t12.5 14.5l49 48q15 -7 53 -42q20 -20 25 -23l12 11l12 12q31 30 39 33.5t21 -6.5q17 -18 62 -61l16 -16q-2 -21 -39 -58l-22 -22l46 -52q15 -19 19 -21q1 -5 -0.5 -9t-4.5 -9t-5 -7l-8 -8q-5 -5 -6 -7q-6 -4 -9 -7z" />
<glyph unicode="+" horiz-adv-x="432" d="M135 120q2 1 38 -0.5t71 -1.5t35 4v-1v3q0 4 2.5 31.5t3.5 51t0 33.5q7 4 59 4.5t55 2.5q3 26 3 66.5t1 71.5q-16 3 -57.5 3t-58.5 1q-1 6 -1.5 30.5t0 48t-0.5 40.5q-7 1 -40 -0.5t-62 -1t-36 4.5q-2 -12 -3 -17q0 -4 -1 -13l-2 -17q-1 -9 -1 -17q-1 -26 -1 -60 q-7 -2 -61.5 -6t-60.5 -3q0 -2 1.5 -29t2.5 -56t0 -42q0 -1 1 -2q6 -3 106 -10h2q2 0 2 -19q1 -21 0.5 -50.5t1.5 -46.5v-2zM123 101l-1 22v-1q-1 10 -1 50q0 26 -1 47q0 8 -5 10q-84 3 -105 16q2 33 -3 111q-1 11 -1 38q23 -8 121 3q0 18 1 31q0 2 0.5 10t0.5 10q1 18 3 33 q1 6 1 15q0 2 0.5 6t1.5 6q0 4 1 14v11q24 -15 54 -15q7 0 23.5 0.5t24.5 0.5q42 2 59 -1v-92v-26h38q53 0 79 -5q-1 -23 -1 -71t-4 -84q-11 -7 -58 -7q-44 0 -53 -1q1 -17 -6 -82q-2 -22 -2 -29q-5 -14 -52 -14q-10 0 -32.5 0.5t-32.5 0.5q-34 2 -50 -7z" />
<glyph unicode="," horiz-adv-x="171" d="M124 -47l8 38q3 18 3 21l1 1v2h2l4 110h-1q-12 1 -39 3.5t-43.5 2t-31.5 -4.5h-1v-1q-4 -104 -4 -110q1 -1 3 -1l45 -4q-2 -14 -7.5 -37t-9.5 -38t-2 -17q64 -2 65 -2q2 15 8 37zM143 -10l-8 -40q-1 -6 -4.5 -24t-4.5 -24q-15 4 -40 4q-5 0 -18.5 0.5t-20.5 0.5 q-12 11 -1 47q1 2 10 46q-22 2 -32 3q-5 0 -13 8q0 20 4 124q30 7 49 7l42 -3q26 -2 49 -4l-7 -121l-1 -2q0 -3 -2 -13q-2 -6 -2 -9z" />
<glyph unicode="-" horiz-adv-x="512" d="M35 204q14 -1 212 -4t216 -3h1q-4 23 -4.5 50t0.5 59.5t1 50.5h-423q-3 -27 -3 -153zM35 193l-11 11q0 120 4 164h444q0 -47 -1 -66q0 -5 -0.5 -19.5t-0.5 -20.5q0 -38 6 -75q-17 -1 -220.5 2t-220.5 4z" />
<glyph unicode="." horiz-adv-x="187" d="M37 12l108 -1h2v1v1q0 6 2 35t3 52.5t1 24.5q-13 7 -56.5 6t-62.5 -8q0 -3 -1 -28t-0.5 -47.5t2.5 -35.5h2zM155 0l-130 1q-5 35 -5 60q0 8 0.5 22t0.5 20q0 5 0.5 15.5t0.5 12.5q38 11 80 11q40 0 62 -9q0 -1 -0.5 -14t-1.5 -33t-1 -34q-2 -38 -6 -52z" />
<glyph unicode="/" horiz-adv-x="394" d="M143 18l54 138q12 28 21 57q0 1 71 207l19 53l18 52l42 138q2 10 6 17q-18 8 -61.5 7t-64.5 1l-11 -42q-6 -22 -12 -40l-11 -32q-5 -14 -9 -24l-4 -10l-17 -52l-19 -59q-80 -214 -90 -248q-17 -38 -30 -84q-1 -2 -5 -13l-8 -22l-8 -24q-5 -13 -6 -19.5t2 -8.5h1 q36 1 64.5 1.5t38.5 0.5t16 1q1 1 3 5zM208 152l-56 -142l-8 -8q-8 -2 -36 -2q-44 0 -88 -1q-4 0 -7 2t-4 5.5t-1 8t1 11t2.5 12t4.5 12.5l4 14l5 12t4 11q2 3 3 9l2 6v-1q19 60 30 83q7 26 90 249q8 21 21 63l-1 -1q10 32 16 48q0 1 1 3l2 4q32 97 46 151q25 -5 61 -3 q59 2 89 -12q-5 -9 -9 -26l-8 -24l-14 -48l-21 -67l-15 -40l-12 -36q-9 -24 -11 -29l-24 -74l-46 -133l-9 -27q-7 -20 -12 -30z" />
<glyph unicode="0" horiz-adv-x="517" d="M225 173q-8 1 -13.5 5t-9.5 11.5t-6 12.5t-4 15l-4 14q-19 78 -8 208q5 56 14 69q12 21 32 26q36 13 59 -15q36 -48 26 -210q-4 -71 -11 -92q-11 -38 -39 -46q-14 -5 -36 2zM83 601q-37 -58 -45 -127t-2 -162l2 -50q0 -17 3.5 -47.5t8.5 -48.5t15 -42.5t23.5 -40.5 t34.5 -31.5t48 -25.5q29 -11 67 -13q63 -4 112 29.5t75 88.5t37.5 116t8.5 120q1 51 -8 115q-17 89 -74 150t-148 57q-83 -3 -148 -76q-5 -4 -10 -12zM74 608v-1q4 7 11 14h-1q67 75 156 79q96 4 156 -59.5t78 -156.5q9 -62 8 -117q3 -61 -9.5 -124t-40 -120t-78.5 -91 t-117 -30q-35 1 -70 13q-44 19 -73.5 51t-43.5 75.5t-19 81t-7 88.5q-3 37 -3 79q0 138 53 218zM227 184l2 -1q19 -6 28 -2q24 7 31 38q9 27 11 72q0 3 0.5 8.5t0.5 9.5q2 36 2 61q0 106 -27 142h1q-16 21 -54 9q-9 -2 -19 -18q-4 -8 -12 -65q-5 -55 -5 -93q0 -58 14 -111 l2 -12q8 -34 25 -38z" />
<glyph unicode="1" horiz-adv-x="445" d="M194 399l49 95v-1q0 -58 -7.5 -221t-4.5 -253v-1q8 -1 29.5 -3t35.5 -2.5t32.5 -0.5t32 2.5t21.5 8.5h1v2q-2 92 6.5 330.5t-1.5 331.5q-77 6 -207 2q-20 -28 -87 -164t-61 -169l92 -3q34 0 43 1q1 0 3 2l17 31zM231 446l-27 -52l-8 -17l-13 -24q-9 -11 -13 -11h-38 q-100 0 -109 8l-2 4q-6 35 67.5 182t88.5 164q60 2 100 2q67 0 121 -5q7 -95 7 -171q0 -71 -6 -217q-6 -142 -6 -215v-77q-22 -16 -66 -16q-26 0 -68 4q-25 2 -39 5q-1 20 -1 69l6 219v1q6 130 6 147z" />
<glyph unicode="2" horiz-adv-x="501" d="M80 10l363 5q4 0 4 1q-2 7 -2 42q2 70 -7 92q-28 0 -107.5 -1.5t-128.5 -0.5q-12 8 11 55q18 22 50.5 41t63 34t60.5 33t49.5 47.5t22.5 68.5q1 17 -2 86q-12 117 -93 160q-36 14 -89.5 16.5t-107 -11.5t-76.5 -45q-72 -80 -48 -221v-2h1q44 -5 141 5h1v2q5 115 71 115 q28 -3 41.5 -30t6.5 -59t-32 -47q-21 -17 -95 -61.5t-108 -84.5q-19 -30 -25 -65.5t-6.5 -93t-2.5 -78.5q0 -2 1 -3h43zM443 4l-363 -5h-46q-9 9 -9 14q2 24 2 71q1 41 2.5 62.5t9.5 54t23 58.5q34 40 124 93q47 26 78 52q32 20 32 60q0 22 -10.5 38.5t-29.5 18.5 q-18 0 -30 -11t-18 -31t-8 -35.5t-4 -38.5q-72 -8 -111 -8q-31 0 -52 6q-7 32 -7 71q0 102 55 165q26 30 75 46t103 16q67 0 113 -20q85 -44 97 -167v-18q2 -46 1 -70q-2 -33 -15 -59t-37 -45.5t-43 -31t-51 -27.5q-78 -37 -102 -66q-15 -33 -14 -38h38q65 0 97 1 q28 1 103 1q11 -30 11 -61q0 -5 -0.5 -15t-0.5 -15v-22q0 -25 2 -32q0 -8 -3 -10t-12 -2z" />
<glyph unicode="3" horiz-adv-x="475" d="M66 53q30 -20 45 -24q44 -13 53 -14q95 -10 155 7q67 21 96 89q6 12 9 27t4 26t1.5 29.5t1.5 27.5q5 137 2 316q2 45 -14 69q-32 56 -117 75.5t-167.5 -11.5t-104.5 -103q-4 -13 -5 -27.5t0 -35.5t1 -26v-2q2 0 29 0.5t57.5 0.5t39.5 1q6 16 22 30t35 20.5t37 6.5 t30.5 -13.5t13.5 -37.5q1 -28 -14 -41.5t-34 -15t-46 -2.5t-39 -5v-1q2 -12 -1 -67t6 -65q67 15 105 -12q19 -15 23 -40t-8 -43q-21 -25 -47 -24.5t-49.5 18.5t-31.5 42l-1 1h-1q-24 1 -65 -4.5t-59 -4.5h-1q-1 0 -1 -1q2 -18 4 -50.5t5 -47.5q5 -40 31 -68zM59 46 q-32 32 -35 73q-3 12 -5 49q-2 32 -2 65q33 -2 66 3q36 5 79 3q8 -23 30 -41.5t44 -18.5t37 19v-1q6 12 6 27q0 28 -19 41q-20 15 -57 15q-21 0 -47 -6q-13 26 -13 58q0 15 2 37q2 39 0 58q27 10 61 10q18 1 27.5 2t22.5 5t18 13.5t4 25.5q-1 40 -37 40q-24 0 -48.5 -16.5 t-32.5 -39.5q-4 0 -38 -0.5t-53 -0.5q-8 0 -22 -1t-31 0q0 3 -1 16.5t-1 17.5q-2 47 6 72v-1q18 63 79.5 96t136.5 33q62 0 115.5 -23t77.5 -64q15 -26 15 -75q1 -39 1 -132q0 -95 -3 -185q-1 -8 -1 -24q-2 -61 -16 -90q-32 -72 -103 -96q-39 -10 -92 -10q-41 0 -68 4 q-10 1 -40 10q-3 2 -15 4q-35 10 -48 28z" />
<glyph unicode="4" d="M256 492v-140v-2h-2q-7 -1 -31 -1.5t-45 -0.5t-20 1q1 2 14 23q73 121 84 120zM431 202l6 146q-4 0 -24 3.5t-29 0.5l-1 -1q-4 22 -4 333h-2q-18 1 -46 0.5t-65.5 -1.5t-39.5 -1q-1 0 -1 -1q-132 -195 -203 -314q-4 -5 -7 -8v-1q-2 -84 10 -139v-1q1 -2 47 -2h95 q49 0 55 -2q0 -1 -1 -56.5t-1.5 -95.5t0.5 -52h35h31h24h21l15 2q7 0 10.5 1t5.5 3q1 4 3 25t4 47l4 52q2 25 3.5 42t1.5 16h1q8 2 25.5 1.5t26.5 2.5zM448 360l-7 -165q-3 -2 -13 -3t-23 -1.5t-19 -1.5q2 -2 -3 -67q-1 -18 -3.5 -47.5t-4 -45.5t-1.5 -18q-8 -9 -28 -11 t-68 -2h-65q-6 10 -3 189v17h-91q-102 0 -105 13q-13 53 -11 142l216 335h13q12 1 20 1h139v-74q0 -245 3 -256q12 -5 54 -5zM245 362l3 117q-13 -39 -70 -119h10q43 0 57 2z" />
<glyph unicode="5" horiz-adv-x="496" d="M170 222l-136 -4v-2q-6 -30 -6 -56q-1 -51 26.5 -87.5t70.5 -52.5t94.5 -16.5t97.5 14.5t81 46.5t44 74.5q10 56 5 115.5t-20.5 110t-53.5 86.5t-93 44q-46 10 -100 -2h-1l-1 1l-1 1q-2 5 -3.5 17.5t-1.5 15.5v1l-1 1v1v2h1q209 0 260 7v15q1 15 2 35t1.5 40.5t0.5 35 t-1 15.5q-16 3 -201.5 -0.5t-205.5 -5.5q0 -59 0.5 -162t0.5 -167q0 -1 2 -1q21 -2 99.5 2t106.5 -2q28 -8 43.5 -36t15.5 -58.5t-17 -57t-48 -31.5q-23 -5 -40 9t-20 47zM25 229l151 5q5 -11 6 -16q6 -53 47 -44q27 4 41 26t14 51q0 28 -13 52t-36 32l1 -1q-23 4 -50 4 l-69 -3q-34 -2 -56 -2q-20 0 -43 4q0 187 -1 275v74q6 1 73 2l157 4q89 2 138 2q45 0 55 -2q4 -3 6 -16t1.5 -32t-1 -36t-2 -36.5t-1.5 -24.5v-18q-51 -7 -259 -7q1 -3 1 -7q0 -2 0.5 -5t0.5 -4q34 4 50 4q28 0 47 -3h-1q92 -14 134.5 -92.5t42.5 -189.5q0 -46 -6 -88 q-14 -67 -82 -106.5t-150 -39.5q-87 0 -146.5 43.5t-57.5 125.5q0 21 8 69z" />
<glyph unicode="6" horiz-adv-x="521" d="M356 204v-2v-8q-4 -20 -28 -32q-28 -13 -58 -3q-15 8 -21 25.5t5 35.5q27 36 71 29q23 -4 30 -31q1 -3 1 -12v-2zM470 205l-2 23q-8 58 -33 80q-26 29 -65 41q-44 12 -116 -7q-21 -5 -49 -20q1 20 -3 72.5t1 86.5t27 52q14 14 35 15t35 -14q20 -21 22 -66v-1h2 q12 1 58 2.5t68 4.5q22 79 -27 147.5t-136 65.5q-73 0 -138.5 -31t-89.5 -86q-1 -2 -2 -7t-2 -7q-4 -12 -5 -24.5t-1.5 -28.5t-1.5 -25q-8 -70 -5.5 -148.5t12.5 -145t47 -115.5t98 -59q73 -8 136 9t102.5 65.5t32.5 120.5zM479 229l2 -23q8 -100 -63 -154.5t-176 -54.5 q-31 0 -45 2q-50 8 -84.5 38.5t-51.5 79.5t-24 101t-7 118q0 53 6 143q2 18 2 27q0 37 5 53q2 9 5 12v1q26 59 94.5 92.5t144.5 33.5q78 2 129.5 -52t51.5 -126q0 -20 -9 -56q-18 -4 -85 -6q-8 0 -31.5 -0.5t-32.5 -0.5q-2 52 -19 70q-10 10 -24 10q-16 0 -35 -17 q-20 -18 -20 -77q0 -8 0.5 -17t1.5 -19.5t1 -16.5q3 -32 2 -50q17 8 34 14q42 11 80 11q19 0 41 -5q46 -16 72 -44q27 -30 35 -87zM345 206q0 6 -1 10q-6 19 -21 22q-36 5 -59 -24q-5 -13 -1.5 -26t12.5 -18h-1q26 -10 50 3q16 8 21 21v12z" />
<glyph unicode="7" horiz-adv-x="481" d="M35 555h2q53 2 243 -8q-42 -95 -129 -275l-121 -254q16 -4 42.5 -4t58.5 2t44 2q31 61 134 246.5t147 285.5q0 13 -1.5 66.5t0.5 66.5v1q-115 11 -415 2v-1q-3 -113 -5 -130zM35 544l-11 12q4 32 4 98q0 6 0.5 22t0.5 21q6 0 26 0.5t27 0.5q162 5 202 5q108 0 183 -9 q-2 -28 -2 -47q0 -30 1 -45q1 -16 1 -54q-52 -119 -168 -323l-118 -218q-16 0 -48 -2q-36 -2 -59 -2q-30 0 -61 7l115 240q80 163 135 286q-133 9 -191 9q-6 0 -18 -0.5t-17 -0.5h-2z" />
<glyph unicode="8" horiz-adv-x="540" d="M327 215l-1 -5q-2 -6 -3 -8t-5 -8.5t-7 -8.5q-5 -4 -15 -7q-32 -4 -54 3q-30 13 -24 48.5t35 45.5q32 8 58 -16q10 -7 16 -28q1 -3 1 -11v-3zM227 495q2 6 10 11q2 1 5.5 3t6.5 4q4 2 7 3q45 11 58 -23q11 -30 -9 -52q-14 -15 -34 -13q-25 1 -36.5 21.5t-8.5 42.5z M481 507v3q0 12 -1 18q-5 27 -10 48q-4 23 -14 36q-11 17 -20.5 27.5t-13.5 13.5t-17 12q-20 12 -44 17.5t-54.5 5.5t-75.5 -1q-75 -4 -119.5 -67t-41 -143t52.5 -130q-57 -56 -60 -140.5t44 -140.5q29 -40 93.5 -57t130 -4.5t96.5 49.5q35 39 47.5 93t-4.5 107.5t-62 86.5 v1q53 43 70 112q3 14 3 30v17v6zM493 484q0 -15 -4 -33q-14 -67 -63 -110q64 -58 64 -147q0 -83 -54 -147q-25 -27 -69 -42.5t-92 -15.5q-56 0 -105 18t-73 52h1q-47 59 -47 139q0 93 56 149q-47 50 -47 139q0 82 46 145.5t124 66.5q23 1 63 1q79 0 118 -25q2 0 6 -4l-1 2 q29 -22 49 -53q14 -20 16 -40q5 -16 10 -51q2 -8 2 -18v-26zM237 491q-3 -18 6.5 -34t28.5 -17q16 -1 25 9.5t9 25.5q0 16 -13 25.5t-38 3.5l-2 -1q-2 -1 -16 -12zM315 215v2q0 1 1 3q0 4 -1 7q-4 18 -17 29q-15 13 -43 7l1 1q-27 -10 -27 -44q0 -21 18 -28h-1q16 -6 49 -2 l-2 -1q5 2 11 6q4 3 7 7l-1 -1l3 6v-1z" />
<glyph unicode="9" horiz-adv-x="503" d="M310 471l-4 -12q-4 -10 -5 -12q-15 -23 -51 -21t-49 30v1q-4 14 -6 35q0 26 29 37q29 14 59.5 -1.5t27.5 -43.5q0 -8 -1 -13zM457 320l-2 141q-2 127 -32 173q-11 17 -25 28t-36.5 16t-33.5 7t-43 2.5t-38 0.5q-123 -5 -181 -74q-8 -8 -21 -32q-18 -40 -15 -105.5 t29 -104.5q37 -55 102 -77t130 4l1 -1q2 -28 -1 -52t-15.5 -44t-34.5 -22q-20 -1 -37.5 12.5t-22.5 32.5q-33 2 -49.5 2t-51.5 -2t-48 -2v-5q-10 -73 22 -122q33 -47 102.5 -71.5t142.5 -14.5t111 56q38 52 48 129q2 14 -1 125zM467 461l1 -141q0 -10 2 -36q2 -30 2 -45 q0 -27 -3 -46q-8 -76 -50 -135q-52 -63 -159 -63q-65 0 -125.5 26t-89.5 69q-27 41 -27 96q0 24 2 34v15q22 0 54 2q40 2 63 2q34 0 54 -3q5 -19 19 -32t30 -12q41 4 41 90q-32 -8 -59 -8q-51 0 -97.5 24.5t-74.5 66.5q-32 50 -32 125q0 53 18 100q3 5 21 32q32 35 83 55 t107 22q5 0 14.5 -0.5t14.5 -0.5q40 -1 61.5 -3t50 -15.5t44.5 -39.5v1q33 -50 35 -180zM299 474v-1q1 5 1 12q1 16 -13.5 27.5t-34.5 11.5q-11 0 -23 -6q-23 -8 -23 -25q2 -20 6 -33v1q10 -24 43 -24q26 0 36 16l5 10q1 3 2 5q0 3 1 6z" />
<glyph unicode=":" horiz-adv-x="188" d="M37 12l108 -1h2v1v1q0 6 2 35t3 52.5t1 24.5q-13 7 -56.5 6t-62.5 -8q0 -3 -1 -28t-0.5 -47.5t2.5 -35.5h2zM155 0l-130 1q-5 35 -5 60q0 8 0.5 22t0.5 20q0 5 0.5 15.5t0.5 12.5q38 11 80 11q40 0 62 -9q0 -1 -0.5 -14t-1.5 -33t-1 -34q-2 -38 -6 -52zM37 333l108 -1h2 v1v1q0 6 2 35t3 52.5t1 24.5q-13 6 -56.5 5.5t-62.5 -7.5q0 -3 -1 -28.5t-0.5 -47.5t2.5 -35h2zM155 321l-130 1q-5 33 -5 60q0 8 0.5 22t0.5 20q0 4 0.5 14.5t0.5 12.5q36 12 80 12q41 0 62 -10q0 -1 -0.5 -14t-1.5 -33t-1 -34q-2 -37 -6 -51z" />
<glyph unicode=";" horiz-adv-x="174" d="M125 -47l8 38q3 18 3 21v1q1 1 1 2h2l4 110h-1q-12 1 -39 3.5t-43.5 2t-31.5 -4.5h-1v-1q-4 -104 -4 -110q1 -1 3 -1l45 -4q-2 -14 -7.5 -37t-9.5 -38t-2 -17q64 -2 65 -2q3 15 8 37zM28 333l108 -1h1v1v1q0 6 2 35t3 52.5t1 24.5q-13 6 -56 5.5t-63 -7.5q0 -3 -1 -28.5 t-0.5 -47.5t2.5 -35h3zM145 321l-130 1q-4 27 -4 60v42q0 4 0.5 14.5t0.5 12.5q36 12 81 12q39 0 62 -10q0 -15 -4 -81q-2 -37 -6 -51zM144 -10l-8 -40q-1 -6 -4.5 -24t-4.5 -24q-15 4 -40 4q-5 0 -18.5 0.5t-20.5 0.5q-12 11 -1 47q1 2 10 46q-22 2 -32 3q-5 0 -14 8 q0 20 5 124q28 7 49 7l42 -3q26 -2 49 -4l-7 -121l-1 -2q0 -3 -2 -13q-2 -6 -2 -9z" />
<glyph unicode="&#x3c;" horiz-adv-x="355" d="M312 91l11 9q-33 27 -92 85t-85 81q25 31 87.5 95.5t80.5 87.5q-12 8 -37 33.5t-36 32.5l-54 -56l-59 -59l-70 -72q-29 -32 -50 -59q42 -57 133.5 -140.5t105.5 -97.5l1 -1l23 20l14 14q4 4 7 6.5t5 4.5q3 3 8.5 9t6.5 7zM340 100l-20 -17l-18 -18q-21 -21 -55 -50 q-13 14 -93 88q-4 4 -19.5 17.5t-21 19t-19.5 18.5l-20 20l-20 20l-21 22q-9 10 -19 23l-21 26q14 18 32.5 39l30.5 34l36 36l30 30l24 24l32 35q20 18 28 27l34 35q21 -14 44 -39q21 -21 47 -38q-25 -31 -87 -95q-72 -77 -82 -89q12 -11 72 -71q44 -45 106 -97z" />
<glyph unicode="=" horiz-adv-x="447" d="M35 125q16 -1 185 -4t181 -2h1q-4 19 -4.5 42.5t0.5 51.5t1 43h-361q-3 -24 -3 -131zM35 322q1 0 178 -3t188 -2h1q-4 19 -4.5 42t0.5 51t1 43h-361q-3 -21 -3 -131zM34 311l-11 11q0 99 4 143h384q0 -7 -0.5 -28t-0.5 -29q0 -4 -0.5 -14t-0.5 -14q0 -24 4 -74 q-14 -1 -189 1.5t-190 3.5zM34 114l-11 11q0 102 4 142h384q0 -7 -0.5 -27.5t-0.5 -28.5q0 -5 -0.5 -14.5t-0.5 -14.5q0 -23 4 -73q-14 -1 -189 1.5t-190 3.5z" />
<glyph unicode="&#x3e;" horiz-adv-x="356" d="M25 100l11 -9q1 -1 6.5 -7t8.5 -9l6 -6q4 -4 15 -14l28 -25l1 1q14 14 105.5 97.5t133.5 140.5q-22 27 -52 58l-70 73l-57 59l-55 56q-11 -7 -35.5 -32.5t-36.5 -33.5q18 -23 80.5 -87.5t87.5 -95.5q-27 -24 -86 -82t-91 -84zM28 82l-19 19q41 34 105 96q63 63 72 71 q-29 35 -83 89q-71 75 -86 95q26 17 45 38q27 27 46 39q4 -4 16 -17t17 -18l27 -27q10 -11 30 -31l28 -28q86 -86 128 -139q-11 -15 -22 -28.5l-24 -28.5l-22 -23q-7 -8 -24.5 -24t-21 -19.5t-24.5 -22.5t-22 -20q-80 -74 -94 -89q-33 30 -54 51l-18 18v-1z" />
<glyph unicode="?" horiz-adv-x="449" d="M140 12l107 -1h2v1v1q0 6 2 35t3 52.5t1 24.5q-13 7 -56.5 6t-62.5 -8q0 -3 -1 -28t-0.5 -47.5t2.5 -35.5h3zM138 238l-2 -37q0 -17 4 -21q18 1 59.5 0t58.5 2v1q-2 11 4 33q13 70 46 116q9 11 28 31t30 35q39 50 44 101q10 83 -54 139t-153 48q-78 -4 -130.5 -63 t-56.5 -135v-1q11 0 38 -1.5t39 -2t39 1.5q10 4 20 17t16.5 23t20.5 16t34 -4q26 -9 33 -26t-2.5 -38.5t-23 -41.5t-31.5 -43.5t-24 -36.5q-26 -37 -37 -113zM124 201l2 38q14 79 39 119q5 9 32 46q50 65 50 92q0 20 -29 31q-12 2 -18 3.5t-13 -4t-10 -9t-8 -11.5 q-15 -25 -36 -33q-26 -2 -38 -2q-17 0 -45 2l-47 4q5 81 62 147t137 73q94 8 162 -52t58 -147q-8 -55 -47 -107q-8 -12 -33 -37q-13 -13 -24 -29q-32 -42 -45 -112q-6 -20 -2 -40q-41 -6 -79 -4h-56q-12 11 -12 32zM257 0l-130 1q-5 35 -5 60q0 8 0.5 22t0.5 20 q0 5 0.5 15.5t0.5 12.5q38 11 80 11q40 0 62 -9q0 -33 -3 -81q-2 -38 -6 -52z" />
<glyph unicode="@" horiz-adv-x="565" d="M297 301h-1h-33q1 14 3 24.5t3 18t2.5 12t3 6t2.5 1.5q4 -1 20 -60v-2zM499 550q-22 52 -97 81q-100 24 -186 14q-77 4 -126.5 -50t-55.5 -131q-3 -116 6 -267q-2 -151 102 -190q17 -7 38 -9t39.5 -0.5t41.5 -0.5q147 -10 221 40l-31 66q-30 -16 -82.5 -27t-110 -9 t-85.5 23q-39 40 -57 107.5t-17 134.5t15 133q11 59 33 80q77 38 174 27q28 -2 44 -10q9 -6 16 -14t11.5 -15t9 -19.5t6.5 -19t4.5 -22.5t3 -21t2.5 -23t2 -21q0 -15 5 -54.5t4 -67.5t-14 -49q-8 -8 -20 -7.5t-21 7.5q-10 9 -14 27q-16 88 -55 244q-11 -3 -30.5 -2.5 t-29.5 -1.5q-18 -35 -47 -176t-26 -161q11 -2 34.5 -1t34.5 -1h1q2 4 6 20.5t8 25.5q2 5 9 12q11 9 20 4t15 -17q4 -7 9.5 -22t7.5 -20v-1q108 -10 169 -1q17 14 26 44q6 32 6 97q-2 47 4 139q0 63 -23 105zM509 554l-1 1q25 -44 25 -111q-5 -90 -5 -106q0 -6 0.5 -16 t0.5 -16q0 -69 -5 -102q-9 -26 -33 -49q-41 -6 -74 -6q-41 0 -108 7q-7 15 -10 24q-5 16 -9 24v-1q-11 19 -17 12q-3 -3 -8 -14q-4 -9 -8 -25q-2 -13 -10 -24q-23 2 -41 2q-33 0 -45 2q-3 21 27 171t48 186q15 3 37 3q23 0 41 5q41 -163 57 -256v1q6 -18 10 -23v2 q17 -12 24 -3v-1q13 22 13 58q0 23 -5 55q-5 45 -5 51q0 2 -1 7.5t-1 7.5q-3 33 -6 52t-13.5 43.5t-27.5 36.5q-17 7 -39 9t-35 2q-74 0 -131 -27q-19 -21 -28 -73q-15 -70 -15 -136q0 -155 71 -230l-2 1q27 -21 91 -21q46 0 100 13t86 29l39 -86q-71 -49 -190 -49 q-16 0 -46 2h-39q-54 -2 -84 10h1q-108 40 -110 201q-6 132 -6 209q0 10 0.5 29t0.5 29q6 81 58.5 138.5t133.5 53.5q24 3 51 3q68 0 135 -16q83 -30 108 -89zM277 314q3 0 5 -1q-1 1 -1 4q-3 9 -3 13q-1 0 -1 1v-17z" />
<glyph unicode="A" horiz-adv-x="467" d="M269 286q-28 0 -72 2q5 36 10 61t9.5 37t8.5 17.5t9 -1t8.5 -14t8.5 -27l9 -34.5zM440 13l-72 338q-8 30 -40.5 173.5t-39.5 169.5q-36 -3 -64 -3.5t-34.5 0t-20.5 -1.5q-26 -87 -50 -185.5t-41 -179.5l-28 -149q-13 -67 -20.5 -112t-8.5 -49q1 -1 2 -1q37 1 72 0 t44 -1.5t20 0.5h1l2 1q8 12 16 64t21 65q52 -2 60 -3q23 -48 51 -124h1q74 -15 129 -3v1zM379 354l76 -352q-37 -7 -65 -7q-40 0 -88 10q-28 74 -50 124q-15 2 -30 2h-18q-6 -10 -15 -61q-9 -52 -21 -69q-6 0 -7 -1h1q-8 -2 -35 0q-16 1 -64 1l-57 1q3 11 5.5 27t3.5 20 q68 393 146 651q13 2 33 2q39 0 103 5l10 -41l18 -76l17 -73q9 -42 37 -163zM216 299q24 -2 38 -2q-22 96 -25 96q-4 0 -18 -94h5z" />
<glyph unicode="B" horiz-adv-x="488" d="M288 447q-23 -41 -113 -29q-7 19 -5 66t1 54q27 13 78 3q35 -9 47 -36q11 -20 -8 -58zM289 171q-9 -11 -24.5 -17t-25.5 -7t-32.5 -0.5t-27.5 0.5l-2 1q-26 40 -3 136q5 -1 33.5 -2.5t42.5 -5.5q29 -7 41 -33q18 -42 -2 -72zM380 332q-10 12 -5 20q47 83 47 151 q1 77 -36.5 125t-98 62.5t-123.5 12t-126 -20.5l-1 -1q2 -91 0 -333t3 -333q4 -1 21 -1q20 0 63 -3t70 -3.5t66.5 1.5t65.5 10.5t53 24t43 43t23 65.5q3 17 2.5 34t-1 28.5t-8.5 28t-10 22.5t-16 25l-14 20q-2 2 -18 22zM388 340v-1q48 -61 60 -90q12 -30 12 -63 q0 -18 -3 -36q-8 -47 -30.5 -79t-57.5 -48t-70.5 -22t-82.5 -6q-34 0 -92 4q-60 3 -63 3h-5q-10 0 -28 6q-4 99 -4 230q0 26 0.5 77t0.5 77q1 55 1 167v133q82 23 161 23q51 0 93.5 -10.5t78 -34t55.5 -66.5t20 -101q0 -68 -50 -156q0 -3 4 -7zM280 178h-1q8 11 8 29 q0 12 -6 32v-1q-9 18 -34 26q-17 4 -46 6q-5 1 -18 1q-7 -33 -7 -64q0 -33 10 -48h14q63 -2 80 19zM278 453q16 29 8 46q-12 25 -40 30h1q-26 4 -38 4q-17 0 -25 -3q0 -3 -0.5 -15t-0.5 -16q0 -5 -0.5 -18t-0.5 -18q0 -17 3 -34q22 -2 32 -2q46 0 61 26z" />
<glyph unicode="C" horiz-adv-x="513" d="M182 519q9 9 46 14q21 1 34 -6t19 -22.5t8 -29.5t3 -35.5t2 -31.5q87 -13 137 -2q17 50 9 100t-36 87t-69.5 64t-91.5 32t-102 -9q-30 -9 -47 -22q-35 -31 -51 -81q-14 -33 -11 -63q-4 -241 3 -389q4 -50 39.5 -81t80.5 -40t92 -3q102 2 158.5 87.5t24.5 184.5 q-11 7 -63.5 6t-62.5 0q-1 -7 -2.5 -42t-9.5 -51q-18 -37 -66 -33q-46 14 -54 86q-3 48 -3 106t2.5 107.5t4.5 53.5q4 10 6 13zM190 511l-2 -8q-7 -12 -7 -167q0 -56 3 -96q6 -61 44 -75q38 -2 54 26q4 12 7 54q0 20 5 47q26 -4 55 -2q55 2 89 -8q14 -39 14 -77 q0 -86 -57.5 -150t-145.5 -66q-11 -2 -38 -2q-72 0 -126.5 33.5t-61.5 103.5q-4 80 -4 220q0 102 1 170q0 36 12 67q20 58 56 88q21 14 50 22l-1 -1q39 13 76 13q97 0 169 -67.5t72 -161.5q0 -36 -15 -79q-29 -7 -62 -7q-31 0 -93 11q-1 9 -4 39q-1 20 -2.5 31t-6.5 26 t-15.5 21.5t-26.5 5.5q-33 -5 -39 -11z" />
<glyph unicode="D" horiz-adv-x="487" d="M297 257q-13 -21 -30 -30q-12 -7 -17 -6q-54 -5 -66 6q-3 45 -1 132.5t-1 117.5v4h1h2q31 7 73 1q29 -10 42 -37t21 -67q13 -66 -24 -121zM386 609q-41 65 -105 81q-24 -1 -73 0.5t-88.5 0t-71.5 -10.5l-3 -3q3 -125 0 -227t0 -224t15 -213l1 1q85 0 255 2 q92 115 123 206l1 1v1q8 45 13 182q-2 36 -9 61q-17 77 -58 142zM396 615v1q37 -58 60 -147q7 -24 9 -63q0 -4 -0.5 -13t-0.5 -14q-2 -104 -13 -156q-33 -99 -129 -218q-59 -1 -272 -4q-18 128 -18 332q0 20 0.5 60t0.5 60q1 43 1 130q0 63 -1 94q0 4 11 15q39 11 104 11 q40 0 58 -1q13 -1 38 -1q26 0 39 1q68 -18 113 -87zM288 264q25 38 25 81q0 12 -4 32q-16 78 -52 93q-20 2 -35 2q-8 0 -28 -2q2 -34 2 -59q0 -8 -0.5 -25.5t-0.5 -26.5q-1 -22 -1 -66q0 -49 1 -60q9 -6 44 -2q1 0 6 0.5t7 0.5q3 -2 5 0q1 0 3 2l2 2q7 4 26 28z" />
<glyph unicode="E" horiz-adv-x="493" d="M450 143q-48 -1 -133 2t-120 3l-1 1q-8 79 0 121q5 5 25.5 5.5t47.5 0.5t44 5q0 7 1.5 68.5t-3.5 65.5v1l-119 3l-1 1q-6 5 -3.5 56.5t2.5 56.5l1 1h3q32 3 127.5 2.5t125.5 9.5v1q0 15 1.5 43t1.5 51t-3 43q-12 4 -144 2t-256 -7q-6 -100 -6.5 -206.5t2.5 -248.5t3 -208 q55 -4 121 -4t150 1.5t125 1.5q12 42 8 126v2zM462 155v-13q1 -14 1 -45q0 -56 -11 -94q-101 0 -147 -1q-76 -2 -125 -2q-85 0 -146 6q0 12 -3 210q-3 219 -3 222q0 122 8 252q187 9 348 9q70 0 75 -14v1q2 -13 2 -43q0 -34 -1 -52q-1 -15 -1 -55q-50 -11 -115 -11 q-8 0 -22 0.5t-22 0.5q-5 0 -17.5 0.5t-18.5 0.5q-32 0 -63 -3q0 -22 -1 -32q0 -6 -0.5 -18t-0.5 -19q0 -4 0.5 -13t0.5 -12q12 -1 71 -1q8 0 50 -3q5 -40 5 -61q0 -6 -0.5 -18t-0.5 -18q-1 -16 -1 -58q-27 -7 -78 -7q-36 0 -40 -1q-3 -19 -3 -44q0 -33 3 -59q1 0 100 -3 q70 -2 105 -2h51z" />
<glyph unicode="F" horiz-adv-x="490" d="M337 264q3 0 3 2q-2 18 -1 57.5t1.5 62.5t-3.5 39q-86 -6 -122 0q-1 0 -2 1q-22 39 -2 87q43 4 134 8.5t125 7.5v143q-49 13 -144.5 14t-171.5 -4.5t-117 -11.5v-1q0 -159 -1 -352.5t-1 -302.5l1 -1q13 -4 69.5 -3.5t98.5 3.5q2 172 8 237h1q20 4 62 7.5t62 6.5zM352 267 q0 -12 -14 -14h1q-16 -3 -63 -7q-49 -5 -53 -6q-5 -66 -7 -196v-42q-70 -5 -120 -5q-57 0 -73 10q0 57 0.5 152.5t0.5 138.5q1 102 1 382q116 18 275 18q121 0 181 -17q0 -4 0.5 -22t0.5 -27q0 -7 0.5 -22.5t0.5 -23.5q0 -29 -3 -68q-49 -4 -128 -8h-1q-83 -3 -132 -8 q-5 -12 -5 -32q0 -21 9 -34q13 -2 41 -2q26 0 80 3q9 -18 9 -50q0 -6 -0.5 -20t-0.5 -21q-1 -17 -1 -49q0 -21 1 -30z" />
<glyph unicode="G" horiz-adv-x="505" d="M432 352h-2q-133 0 -189 -4h-3v-2q2 -22 2.5 -73t3.5 -73q7 -3 23 -2.5t26 -0.5q13 -1 9 -20q-6 -18 -30 -28q-32 -13 -60 -9q-14 3 -22 9q-9 7 -14 18t-6 18.5t-2.5 24t-1.5 20.5q-11 130 6 285q3 17 7 21q16 14 63 16q40 0 66 -82q27 -3 119 -1l4 4v1q16 63 0 107.5 t-55 71t-89.5 35.5t-103.5 1q-57 -5 -94 -36q-40 -27 -52 -113q-7 -48 -7 -124q2 -40 3 -122.5t4 -126.5q4 -28 7 -42q5 -38 30 -69t61 -46q78 -28 206 6q84 31 92 117q14 82 0 218zM436 364l8 -12q8 -74 8 -123q0 -57 -8 -98v1q-9 -95 -100 -127q-69 -19 -129 -19 q-50 0 -85 13q-37 15 -64 49t-34 75q-2 10 -7 43q-4 57 -4 131q0 58 -3 118q0 80 7 127q12 87 57 121q42 33 99 38q20 4 51 4q91 0 155 -45.5t64 -128.5q0 -29 -9 -62l-8 -11q-5 0 -16.5 -0.5t-15.5 -0.5q-14 -1 -48 -1q-35 0 -55 4q-26 79 -56 80q-45 -2 -56 -12 q0 -2 -3 -15v1q-11 -97 -11 -176q0 -49 5 -107v1q1 -5 1 -19q2 -43 17 -55v1q10 -6 18 -7q28 -3 54 8h-1q19 9 23 20v6h-17q-25 0 -40 7q-4 30 -4 83q0 42 -3 73l11 11q60 4 199 4z" />
<glyph unicode="H" horiz-adv-x="494" d="M454 17l-26 678q-77 8 -133 -11q6 -140 -4 -252q-7 0 -24.5 -2t-28.5 -2.5t-26 0t-26 3.5h-1q-8 45 -11.5 130.5t-8.5 123.5q-19 5 -60.5 2.5t-62.5 0.5h-2h-1v-1q-4 -141 1 -364.5t12 -309.5q10 6 62.5 0.5t69.5 4.5q8 45 5.5 127.5t0.5 132.5q50 12 112 2l1 -1 q5 -38 6.5 -130t8.5 -137h1q5 0 57.5 0.5t77.5 4.5zM440 706l26 -698q-41 -7 -108 -7q-27 0 -50 -2q-9 58 -11 156q-2 86 -6 115q-21 3 -43 3q-20 0 -47 -5q-1 -15 -1 -44q0 -44 1 -65v-58q0 -58 -6 -89q-23 -12 -46 -12q-2 0 -41 3q-40 4 -65 -10q-17 187 -17 562 q0 105 1 144l18 1q8 -2 26 -2t29 1q5 0 16.5 0.5t17.5 0.5q14 0 41 -5q4 -33 9 -126q4 -91 12 -129q9 -2 28 -2q20 0 41 3l16 2q6 73 6 135q0 56 -3 114q53 17 111 17z" />
<glyph unicode="I" horiz-adv-x="251" d="M216 692h-23q-27 0 -107 3q-3 0 -19.5 1.5t-19.5 0.5v-2q-12 -112 -5.5 -337.5t-2.5 -349.5q7 2 90 -1t86 9q-6 152 -6 223.5t3.5 225.5t3.5 223v4zM193 704h35v-16q0 -70 -4 -212q-4 -146 -4 -231q0 -127 7 -232q-18 -18 -73 -18q-35 0 -51 1q-58 2 -78 -4q8 83 8 178 q0 88 -3 177q-4 106 -4 165q0 98 10 195q13 3 36 1q7 -1 14 -1q3 0 9 -0.5t9 -0.5q53 -3 89 -2z" />
<glyph unicode="J" horiz-adv-x="470" d="M421 701l-142 -2v-7q-3 -132 1 -452q-2 -32 -17 -52.5t-42 -15.5q-52 2 -58 111v4v1q-90 16 -150 2q-2 -42 2 -81.5t15.5 -82t37 -73t63.5 -41.5q104 -23 181 15q25 9 44 24.5t30.5 38t19 42t11 51t5 49t2 52.5t1.5 46q1 63 -2 187t-2 184zM268 710l164 2v-46 q0 -47 2 -147q2 -84 2 -139v-51q-1 -12 -1 -39q-1 -36 -2 -54.5t-5 -52.5t-11.5 -54.5t-20 -45t-33 -41t-47.5 -26.5h1q-48 -24 -114 -24q-37 0 -75 8q-40 11 -68 44t-40 79t-16 88.5t-2 88.5q24 7 72 7q46 0 101 -10v-13q6 -98 48 -100q20 -4 32.5 13.5t13.5 43.5 q0 11 -0.5 36t-0.5 38q-2 128 -2 216q0 108 2 161v18z" />
<glyph unicode="K" horiz-adv-x="488" d="M450 15l-131 344v2q102 225 130 323q-8 4 -63 3t-68 0l-1 -1q-24 -34 -65.5 -104t-71.5 -108l-1 1v1q-1 28 -1.5 101.5t-2.5 108.5q-16 0 -61 1.5t-68 0.5v-1q1 -86 -3.5 -340.5t1.5 -330.5q27 -5 70.5 -5.5t70.5 5.5q1 25 -1 105.5t0 106.5q13 -21 38.5 -69t47 -82.5 t46.5 -62.5q113 -3 134 1zM331 358l135 -352q-44 -7 -74 -7q-17 0 -47 2q-5 0 -18 0.5t-17 0.5q-52 59 -101 156q-3 4 -14 27q0 -45 1 -68q2 -82 1 -110q-35 -8 -81 -8q-44 0 -84 8q-4 77 -4 188q0 101 3 206q3 111 3 234v65q30 1 86 -1q19 -1 66 -1q4 -72 4 -130v-62 q33 48 57 91q40 66 65 102h59h28q35 0 66 -6q-33 -116 -134 -335z" />
<glyph unicode="L" horiz-adv-x="463" d="M441 100l2 59q-16 -3 -126.5 2.5t-123.5 3.5v1q1 79 -1 257t0 266q-26 12 -81.5 12t-73.5 -9q1 -60 2.5 -171.5t2 -160t-1 -139t-6.5 -193.5v-17q157 -3 231.5 -2t108.5 2.5t42 0.5q22 -1 25.5 10t-0.5 78zM453 101v-1q2 -48 2 -55q0 -24 -3.5 -34t-12.5 -11t-24 0 q-11 1 -34 0q-81 -3 -157 -3q-42 0 -202 2v29q8 169 8 303q0 54 -2 190q0 21 -0.5 51.5t-1.5 68.5t-1 59q27 12 81 12q64 0 97 -15q-1 -37 -1 -122q0 -107 1 -161q1 -60 1 -178v-59q10 0 117 -4q103 -6 135 -1z" />
<glyph unicode="M" horiz-adv-x="489" d="M438 11l2 308q4 54 1.5 183t-0.5 183q-22 1 -72.5 -1.5t-70.5 -2.5q-9 -12 -30.5 -45t-36.5 -48q-3 0 -5 2q-6 9 -23.5 41.5t-31.5 48.5h-1q-24 -1 -45 0t-46 0t-40 -5q-5 -640 1 -660q2 -3 3 -3q8 0 40.5 -1t54.5 0t40 4q-5 76 -3 332q21 4 41.5 -27.5t27.5 -34.5 q6 6 52 69v-1q8 -65 10.5 -197t3.5 -144q8 0 61.5 0.5t66.5 -1.5zM454 408q0 -61 -2 -90l-3 -320q-36 3 -53 3q-8 0 -23 -0.5t-22 -0.5h-52q-1 27 -4 130q-2 129 -7 192l-41 -52q-20 10 -36 37q-17 25 -24 27q0 -11 -0.5 -31.5t-0.5 -30.5q0 -17 -0.5 -48.5t-0.5 -47.5 q0 -84 6 -171q-49 -7 -83 -7q-5 0 -15.5 0.5t-16.5 0.5t-17 0.5t-16 0.5q-9 0 -13 7q-6 17 -6 164q0 143 3 512q26 9 64 9q5 0 16 -0.5t16 -0.5h53q18 -18 41 -61l7 -13l6 -13q20 26 29 41q2 2 15 21t19 27q25 0 71 2q73 3 89 2q-1 -24 -1 -85q0 -66 1 -99q1 -35 1 -105z " />
<glyph unicode="N" horiz-adv-x="508" d="M464 15l1 13q-2 61 -2 176t-1 177l1 310q-14 4 -67 4t-84 -7v-3q-7 -37 -1 -116.5t-1 -98.5q-5 9 -41.5 68.5t-55 93t-21.5 45.5v1q-33 9 -74 12t-67 -6q-8 -96 -9 -210t1.5 -249.5t1.5 -211.5q0 -1 1 -1q20 3 79 -3t74 2q1 0 1 1q-5 116 4 284q65 -175 117 -289h1 q22 4 51 0.5t57.5 -3t33.5 10.5zM476 27v-15q-10 -20 -48 -20q-6 0 -13 0.5t-16 1.5t-14 1q-39 3 -71 -2q-53 116 -102 248q-3 -67 -3 -137q0 -15 0.5 -49.5t0.5 -51.5q-31 -9 -43 -9q-19 0 -51 4q-48 6 -83 1v58q0 63 -2 191q-2 100 -2 167q0 140 11 277q23 11 56 11 q60 0 107 -18q5 -26 81 -150q15 -24 18 -30v4q0 25 -3 53q-3 33 -3 69t5 67q43 9 98 9q52 0 76 -6l-1 -320q1 -48 1 -165q0 -128 1 -189z" />
<glyph unicode="O" horiz-adv-x="484" d="M323 414l2 -66v-46l-2 -50q-1 -13 -1 -27t-0.5 -19.5t-2 -13t-5 -13.5t-10.5 -15q-29 -34 -78 -30t-68 42q-6 19 -9 42t-5.5 52t-4.5 43q-4 96 9 158q12 42 46 67q35 28 75 14q47 -23 50 -83q0 -9 1 -22.5t2 -22.5zM429 585q-13 34 -40 59q-55 41 -135.5 45.5 t-144.5 -28.5q-13 -9 -22 -17q-49 -56 -51 -166q-4 -71 5 -304q2 -69 23 -107q16 -35 47.5 -49t80.5 -19q57 -5 110 10q67 15 100 59q34 56 37 130q0 12 2 32q3 35 3 101t2 98q2 56 -2 96q-6 40 -15 60zM439 589q11 -24 17 -63q3 -32 3 -62q0 -6 -0.5 -18.5t-0.5 -17.5 q-2 -32 -2 -93q0 -70 -3 -106l-3 -32q-3 -79 -39 -136q-31 -43 -106 -64q-50 -13 -114 -10q-108 9 -138 75v-1q-22 40 -24 112q0 8 -0.5 28t-1.5 28q-5 93 -5 166q0 56 2 84q4 113 54 172q12 13 29 23q58 28 130 28q93 0 158 -48q33 -29 44 -65zM314 348l-2 66v5 q-4 44 -4 49q-3 54 -44 73h1q-30 12 -65 -12q-30 -24 -40 -61v1q-10 -50 -10 -111q0 -29 1 -44v1q4 -30 5 -45q6 -68 12 -91v2q19 -36 66 -36q40 0 61 26v-1q16 20 16 48q0 23 1 35q0 4 0.5 13.5t0.5 12.5q1 12 1 23v46z" />
<glyph unicode="P" horiz-adv-x="485" d="M297 528q25 -15 29.5 -45t-11.5 -51q-11 -11 -29 -17t-29.5 -7.5t-37.5 -2.5t-32 -1h-3q-5 17 -7 40.5t-1.5 57.5t-0.5 47q1 1 3 1q71 15 119 -22zM467 486v1q-4 78 -49.5 129t-112.5 68.5t-137 17t-134 -17.5q4 -111 4 -343.5t3 -323.5q106 -10 162 4q1 1 2 1v1 q-2 81 -2.5 139t0.5 67t-1 37q92 -14 172 44.5t92 150.5q1 7 1 25zM478 486q0 -19 -1 -27q-11 -88 -82 -147.5t-160 -59.5q-14 0 -21 1v-38q0 -95 3 -204q-8 0 -12 -1q-27 -8 -90 -8q-44 0 -86 5q-3 91 -3 322q0 253 -4 364q74 21 153 21q78 0 141.5 -20t110.5 -73t51 -134 v-1zM292 518l-1 1q-31 23 -76 23q-13 0 -28 -3v-34q0 -65 8 -89h16q71 2 94 22q11 16 11 34q0 32 -24 46z" />
<glyph unicode="Q" horiz-adv-x="504" d="M183 188q-39 153 -7 290q18 51 63 55q29 5 51 -12q8 -9 13 -21t9 -30t6 -24q21 -98 7 -206q-2 -23 -3 -30.5t-6 -28t-12 -29t-20 -16.5t-31 -8q-11 0 -17 1q-37 6 -53 59zM434 87q23 35 19 103q0 24 2 82.5t2.5 91t-2 80.5t-8.5 87q-4 18 -7 26q-3 6 -4 9q-34 82 -105 98 q-128 17 -195 -16q-34 -14 -50.5 -28t-25.5 -37q-6 -23 -9 -44q-1 -19 -5 -85t-4.5 -96t-0.5 -82.5t5 -95.5t15 -84q5 -19 14 -32q22 -35 55 -49q21 -7 43.5 -10.5t52 -2t43 2t51.5 5t43 5.5q1 0 3 -2q14 -14 60 -7q4 1 15.5 0.5t14.5 2.5q2 7 0.5 25.5t0.5 27.5v1 q-2 4 -12.5 10.5t-10.5 13.5zM465 191q2 -72 -19 -106q2 -3 7 -4q1 -1 4 -1t6 -4t7 -14q-3 -11 -1 -26q2 -21 -2 -34q-8 -7 -27 -7q-7 0 -11 -1q-1 0 -4 -0.5t-5 -0.5q-41 -8 -62 11q-2 0 -9 -2l-12 -2q-72 -10 -115 -10q-49 0 -101 16q-30 12 -56 52v-1q-12 18 -15 36 q-21 88 -21 208q0 75 7 176q1 11 2.5 34t1.5 31q3 28 7 38q10 29 29.5 46.5t55.5 31.5h-1q45 23 121 23q28 0 84 -6q75 -17 111 -106q0 -2 1 -3q3 -6 1 -4l10 -29q11 -69 11 -155q0 -17 -0.5 -35.5t-1.5 -41.5t-1 -36q-2 -50 -2 -74zM195 191h-1q15 -46 44 -51q6 -1 15 -1 q23 0 36.5 17t16.5 32.5t7 44.5v-1q0 2 0.5 5t0.5 5q5 34 5 80q0 65 -13 121l-6 22q-12 39 -18 47q-19 14 -40 10q-40 -3 -55 -48l1 1q-16 -67 -16 -127q0 -73 23 -157z" />
<glyph unicode="R" horiz-adv-x="532" d="M176 553q81 33 121 -3q28 -20 23.5 -64.5t-41.5 -51.5q-29 -5 -98 0q-2 16 -3 60t-2 59zM502 15q-23 62 -92 167.5t-80 124.5v1h1h3q85 6 126 84q37 71 26 138.5t-66.5 117.5t-130.5 54q-100 10 -255 -14q7 -49 10.5 -362t-3.5 -314q3 0 37.5 -0.5t73.5 1t58 9.5 q-11 185 -5 236l2 -2q59 -73 134 -243h1q17 -3 85 -0.5t76 2.5h-1zM513 18l5 -15q-30 0 -66 -2q-42 -2 -66 -2q-21 0 -53 2q-67 151 -120 226v-31q0 -69 7 -160q0 -3 0.5 -11.5t0.5 -9.5q-37 -16 -116 -16q-7 0 -19.5 0.5t-17.5 0.5h-40q5 115 5 168q0 443 -12 530 q125 19 198 19q42 0 71 -4q87 -8 149 -73t62 -146q0 -54 -31 -108h1q-40 -78 -124 -89q7 -13 57 -86q82 -122 109 -193zM243 556q-25 0 -56 -11q2 -30 2 -47q0 -38 2 -53q6 0 16 -1t18.5 -1.5t16.5 -0.5q18 0 35 3q32 7 32 50q0 29 -19 45q-16 16 -47 16z" />
<glyph unicode="S" horiz-adv-x="528" d="M476 470q13 69 -10.5 117.5t-73.5 74.5q-49 22 -107.5 26t-107.5 -15q-46 -20 -78.5 -60t-44 -87.5t2.5 -100t57 -93.5q32 -27 65 -33q4 -1 21 -4t23 -5l21 -5q16 -4 22 -7l18 -10q12 -6 17 -12.5t10.5 -16.5t6.5 -21q8 -48 -33 -63q-39 -14 -72 10q-24 17 -26 47 q-7 0 -73 2t-75 -3v-3v-3q-6 -87 64.5 -141t163.5 -57q63 -2 114 26t73 85q24 49 21 107.5t-36 100.5q-29 42 -73.5 69t-94.5 33q-16 2 -26.5 5.5t-21 12t-15.5 23.5q-2 13 0 27q6 39 47 43q39 4 63 -23q17 -19 11 -45q57 -15 146 -1h1zM485 459h-8q-44 -7 -80 -7 q-42 0 -82 11q7 28 -10 46.5t-42 18.5q-37 0 -43 -36q-2 -8 0 -21q4 -11 13 -18t16.5 -9t22.5 -5q52 -6 99.5 -35t77.5 -71h-1q39 -51 39 -119q0 -52 -22 -101v1q-24 -61 -77.5 -91t-120.5 -28q-97 3 -171.5 61t-68.5 150v16q27 4 59 4q8 0 24.5 -0.5t25.5 -0.5q18 -1 62 -1 q1 -29 19.5 -45.5t41.5 -16.5t37.5 14t9.5 40q-2 17 -12.5 29.5t-30 20t-33.5 11t-38 8.5l-15 2q-36 6 -71 36q-69 66 -69 155q0 66 37.5 123t98.5 82q40 17 93 17q69 0 131 -27q95 -48 95 -157q0 -17 -7 -57z" />
<glyph unicode="T" horiz-adv-x="462" d="M432 684q-86 9 -205.5 10t-203.5 -1q0 -1 0.5 -1t0.5 -1q-3 -46 -1.5 -95.5t5.5 -56.5q5 -2 51.5 -2.5t64.5 -8.5l1 -1q7 -159 8 -286t0 -177.5t-1 -52.5q22 3 78.5 2.5t80.5 3.5v1v1q-7 503 -5 512v1l1 2h1h2q101 3 118 0q8 72 4 150zM433 696l11 -3q1 -15 1 -60 q0 -48 -8 -112q-27 5 -44 5q-9 0 -49 -2q-4 0 -13 -0.5t-16 -0.5v-42q0 -82 2 -164q1 -37 2.5 -141.5t2.5 -167.5q-37 -6 -94 -6q-51 0 -88 -5v47q0 8 0.5 47t0.5 72q0 192 -8 357q-22 6 -68 6q-33 0 -45 3q-10 14 -10 93q0 11 0.5 41t0.5 42q10 0 33.5 0.5t32.5 0.5 q16 0 48.5 0.5t49.5 0.5q157 0 258 -11z" />
<glyph unicode="U" horiz-adv-x="498" d="M451 659q-10 7 -30.5 9t-37.5 1t-41.5 -4t-31.5 -3q-1 -51 -3 -216t-6 -252q-5 -29 -30.5 -42t-52.5 -3t-36 40q-19 228 -9 475v1q-13 4 -33 6t-33 1l-39 -1q-25 -1 -31 -1h-1l1 -1q1 -95 -1.5 -271.5t-2.5 -243.5q4 -83 80.5 -124t167.5 -32q68 7 109 50.5t50 109.5 q24 224 11 501zM458 669l5 -9q5 -103 5 -188q0 -170 -17 -316q-9 -68 -53.5 -115t-115.5 -55q-9 -1 -31 -1q-89 0 -157.5 43.5t-72.5 124.5q0 73 2 221q2 146 2 239v68q4 0 17.5 0.5t18.5 0.5q30 2 48 2q40 0 76 -12q-4 -108 -4 -173q0 -140 13 -309v2q8 -35 46 -35 q18 0 32 10t18 29v-1q3 92 5 280q3 183 3 187l12 12l27 3q25 3 63 3q43 0 58 -11z" />
<glyph unicode="V" horiz-adv-x="465" d="M438 676q-19 4 -67 3t-71 4q-2 0 -2 -2q-13 -49 -36 -161.5t-38 -166.5v1q-23 93 -35.5 159t-19 115t-6.5 52v1l-1 1q-2 5 -62 4.5t-76 -13.5v-1q28 -344 113 -656q25 -7 75 -7t63 3h1l2 1h1q112 412 160 662zM442 686l10 -2q-57 -290 -165 -683l-5 -1h-6q-33 -3 -58 -3 q-59 0 -90 10q-89 323 -116 671q25 20 93 20q55 0 69 -14q2 -11 6 -41q18 -131 44 -241q10 39 28 123q23 120 39 173q31 -7 82 -7q45 0 69 -5z" />
<glyph unicode="W" d="M436 686q-83 8 -133 -3v-1q-7 -70 -36 -340q-6 15 -15 72.5t-21 72.5v-1q-22 -115 -30 -139q-12 49 -18 105t-10 127.5t-7 107.5q-101 5 -138 -2v-1q1 -46 3.5 -92.5t7.5 -99.5l9 -92q3 -38 12 -100l12 -92l14 -100l13 -92h1q33 -4 84 2q7 12 25.5 54.5t30.5 55.5l1 -1 q11 -17 27 -56.5t27 -55.5q72 0 79 1q9 124 32 351t31 318zM440 698l14 -3q-5 -53 -17 -157.5t-16 -145.5q-27 -262 -37 -385q-16 -4 -61 -4h-34q-17 23 -32 64q-9 26 -18 39q-10 -15 -21 -44q-13 -30 -28 -55q-1 0 -5.5 -0.5t-5.5 -0.5q-26 -4 -42 -4q-22 0 -49 4 q-2 12 -6 40.5t-6 40.5q-56 391 -60 608q34 7 78 7q22 0 60 -2q4 0 12.5 -0.5t10.5 -0.5q7 -83 9 -117q9 -137 17 -184q2 8 4.5 23.5t3.5 22.5l13 71q30 -39 38 -97l6 44q14 122 24 231q33 8 80 8q36 0 68 -3z" />
<glyph unicode="X" horiz-adv-x="504" d="M470 690h-1q-109 0 -153 -4v-1q-6 -18 -16 -55t-19.5 -66t-20.5 -52q-6 18 -29 73.5t-32 86.5l-1 1q-6 9 -158 -4q0 -1 0.5 -2t0.5 -2q42 -103 86 -316v-2q-14 -60 -52 -172.5t-49 -152.5v-2h1q59 -8 133 -5q11 23 35.5 96.5t46.5 105.5l1 -1q15 -32 32 -101t31 -100h1h1 h1q16 -5 64.5 -3t64.5 0v1q-12 47 -21.5 101t-20 123.5t-16.5 103.5q21 142 89 347l1 1v1zM470 702h13q-68 -205 -92 -360l18 -110q22 -146 44 -234q-36 4 -72 2q-5 0 -15.5 -0.5t-14.5 -0.5q-28 0 -45 4q-2 0 -5 1h-3q-18 39 -35 107q-13 59 -22 81q-16 -30 -39 -96 q-17 -51 -34 -92q-30 -2 -54 -2q-53 0 -102 12q12 46 46 147q37 104 57 189q-1 2 -2 8t-2 9q-38 188 -81 293l2 -3q-4 4 -4 23q106 8 142 8q29 0 39 -11q11 -37 34 -90q13 -30 17 -44q13 34 30 95q5 23 16 59q52 5 163 5h1z" />
<glyph unicode="Y" horiz-adv-x="468" d="M451 679q-48 8 -135 -4l-2 -1q-50 -115 -77 -166q-32 64 -57 168q-18 7 -44 7.5t-58.5 -2.5t-44.5 -3q13 -54 60 -165t61 -168v-2q-102 -260 -126 -333h2q22 -1 71 1t66 0q36 106 141 326t143 341v1zM463 688l-1 -14q-37 -118 -147 -352q-97 -200 -140 -324q-23 3 -74 1 q-48 -2 -88 0q36 108 102 277q22 52 27 68q-12 55 -61 167q-45 104 -64 178q9 0 57 3t52 3q35 0 65 -11q25 -104 46 -150q24 48 71 151q65 7 107 7q32 0 48 -4z" />
<glyph unicode="Z" horiz-adv-x="501" d="M455 529q0 13 2 77t-2 77q-35 0 -134.5 2.5t-164.5 1.5t-125 -7q2 -2 2 -4v-1q6 -20 5.5 -72.5t7.5 -60.5q153 -3 234 -13l-58 -81l-70 -96q-24 -35 -56.5 -88.5t-52.5 -97.5q2 -30 0.5 -54t0 -52.5t7.5 -48.5q185 9 396 -1v2q9 100 2 154v3q-39 -2 -84 -2.5t-79 -2 t-81 -7.5l1 1q26 40 116 169.5t133 201.5zM467 529l-2 -6q-40 -67 -151 -230l-28 -39l-30 -42l-28 -41q42 5 123 7h109q4 -31 4 -69q0 -55 -6 -112q-117 7 -223 7q-99 0 -191 -6q-14 44 -12 107v30q0 22 -1 32q47 104 184 293l43 61q-55 5 -219 9q-12 22 -12 77q0 45 -6 66 q3 8 -5 16q103 10 195 10q41 0 129 -2q74 -2 126 -2q2 -20 2 -55v-54q-1 -17 -1 -57z" />
<glyph unicode="[" horiz-adv-x="319" d="M184 11l93 1q3 52 -3 125q-84 5 -102 10v1q0 39 -4 136t-4.5 147.5t5.5 139.5h1q15 -1 49.5 1t51.5 0h2h1q5 17 5 113q-34 -4 -113 0.5t-119 -1.5v-1q-9 -129 -9 -386t-1 -284v-3q29 1 147 1zM287 1l-103 -1q-116 0 -158 -3v16q1 76 1 232v106q0 205 9 344q31 4 67 4 q1 0 70 -3q21 -1 62 -1q25 0 56 3v-33q0 -76 -13 -105q-20 2 -59 0q-11 -1 -40 -1q-5 -60 -5 -112q0 -33 5 -170q4 -92 4 -121q32 -4 69 -6q4 0 16.5 -0.5t15.5 -0.5q5 -73 5 -100q0 -24 -2 -48z" />
<glyph unicode="\" horiz-adv-x="394" d="M188 156l54 -138q2 -4 3 -5q6 -1 16 -1t38.5 -0.5t64.5 -1.5h1q3 2 2 8.5t-5 19.5l-9 24l-8 22q-4 11 -5 13q-13 46 -30 84q-10 34 -90 248l-19 59l-17 52l-4 10q-4 10 -9 24l-11 32q-6 18 -12 40l-11 42q-14 -3 -64.5 -1t-61.5 -7q3 -7 6 -17l42 -138l19 -52l18 -53 q71 -206 71 -207q9 -29 21 -57zM233 10l-56 142l-21 57l-46 133q-20 62 -25 74q-3 12 -11 34t-11 31q-3 7 -8 21.5t-7 18.5l-20 67l-16 48l-7 24q-8 24 -9 26q30 14 88 12q37 -2 62 3q14 -54 46 -151l3 -10l-1 4q11 -30 16 -49v1q6 -21 20 -63q76 -201 91 -249q8 -18 30 -83 v1q0 -1 1.5 -6.5t2.5 -8.5q26 -67 20 -81q-2 -7 -11 -7q-44 1 -87 1q-29 0 -36 2z" />
<glyph unicode="]" horiz-adv-x="319" d="M35 12l93 -1q118 0 147 -1v3q-1 29 -1 285t-9 385v1q-39 6 -118.5 1.5t-114.5 -0.5q0 -95 6 -113h1h2q16 2 51 0t50 -1h1q6 -89 5.5 -139.5t-4.5 -147.5t-4 -136v-1q-17 -4 -102 -10q-6 -82 -3 -125zM128 0l-103 1q-2 24 -2 48q0 17 2 55.5t2 44.5q3 0 16 0.5t17 0.5 q48 2 69 6q0 55 3 121q5 133 5 170q0 69 -5 112q-13 -1 -40 1q-37 2 -62 0q-9 27 -9 105v33q30 -3 56 -3q40 0 61 1q69 3 71 3q35 0 66 -6q10 -134 10 -342v-106q0 -156 1 -232v-16q-44 3 -158 3z" />
<glyph unicode="^" horiz-adv-x="440" d="M415 483l-200 201l-51 -47l-58 -53l-44.5 -46.5t-46.5 -55.5q118 -5 132 -4q6 2 32 29t33 30q7 -4 31.5 -31.5t31.5 -27.5q40 -5 69.5 -2.5t49.5 5.5t21 2zM215 699l216 -220l-32 -9q-28 -7 -77 -7q-24 0 -48 3q-15 1 -41 35q-4 3 -11.5 11.5t-10.5 10.5l-25 -24h1 q-24 -27 -39 -33q-21 -2 -58 0q-90 6 -97 6q27 36 58.5 71t52.5 54l58 54z" />
<glyph unicode="_" horiz-adv-x="632" d="M45 -43q0 -83 2 -101h53q54 -1 125.5 -1t152 -0.5t134.5 -0.5h73q0 18 -0.5 38t0 33.5t4.5 36.5h-1q-15 1 -270.5 -1.5t-272.5 -3.5zM33 -31h11q17 1 279 3t279 1q-8 -52 -7 -78q0 -4 0.5 -23t0.5 -29h-67q-314 0 -462 2h-31q-3 18 -3 124z" />
<glyph unicode="`" horiz-adv-x="255" d="M81 685l-66 -67l1 -1q5 -5 29 -26l43 -39q20 -18 25 -27q31 -3 72.5 -1.5t55.5 5.5l-47 49l-64 63q-29 28 -49 44zM0 618l81 82q32 -24 182 -177q-39 -11 -104 -11q-32 0 -52 3q-16 20 -69 67q-4 4 -18 17t-20 19z" />
<glyph unicode="a" horiz-adv-x="335" d="M191 202q-18 0 -50 2q6 39 11 58t9.5 22.5t10 -10t9.5 -28.5t10 -44zM309 13l-49 234q-6 22 -28.5 120.5t-27.5 116.5q-25 -2 -44 -2.5t-23.5 0t-14.5 -0.5q-18 -60 -34.5 -128t-28 -124.5t-20 -103t-13.5 -78t-6 -33.5l1 -1q26 1 50 0.5t30 -1t14 0.5h1q6 9 12 45t15 45 q10 -1 14 -0.5t10.5 0t16.5 -1.5q9 -20 36 -86q51 -9 89 -2zM271 249l52 -244q-28 -7 -50 -7q-28 0 -61 7q-4 9 -16 39.5t-19 46.5q-6 1 -18 1h-11q-5 -12 -9 -40q-4 -29 -19 -48q-6 -3 -29 -3q-32 2 -71 2l-11 5q0 1 0.5 6.5t1.5 12t1 9.5q44 266 101 454q14 3 25 3 q39 0 75 3q8 -28 32 -135l14 -61q9 -41 12 -51zM155 215q7 -1 22 -1l-14 59q-3 0 -3 -7q-1 -22 -5 -51z" />
<glyph unicode="b" horiz-adv-x="357" d="M208 316q-15 -29 -77 -20q-6 11 -4.5 45t1.5 38q18 8 54 2q22 -6 32 -25q9 -15 -6 -40zM209 125q-5 -6 -11.5 -10t-15.5 -5t-15 -1.5t-17.5 0t-15.5 0.5h-2q-9 20 -8.5 45t6.5 48q5 -1 24 -2t29 -3q17 -3 28 -22q12 -31 -2 -50zM272 236q-6 6 -4 14q33 55 33 104 q1 53 -25 86.5t-67.5 43.5t-85 8t-86.5 -14l-1 -1q1 -64 0 -230.5t2 -228.5q4 -2 14 -2q14 0 43.5 -2t48 -2t46 1t45.5 7.5t36.5 17t29.5 29.5t16 45q10 51 -26 100q-3 3 -19 24zM281 243v-1q20 -25 29 -39t16.5 -39.5t2.5 -53.5q-9 -43 -36 -68.5t-59 -33t-76 -7.5 q-23 0 -63 2q-30 2 -43 2q-12 0 -26 5q-3 82 -3 172q0 16 0.5 47.5t0.5 47.5t0.5 49.5t0.5 50.5v111q62 16 115 16q75 0 124 -35.5t48 -114.5q0 -48 -34 -110l1 1zM201 132h-1q9 14 1 39v-2q-10 14 -21 17h1q-13 2 -31 4h-11q-4 -17 -4 -39q0 -23 5 -31h7q43 -2 54 12z M198 322q11 16 6 28q-8 14 -25 19h1q-26 4 -39 2q0 -13 -1 -19q-2 -29 1 -46q12 -2 19 -2q29 0 38 18z" />
<glyph unicode="c" horiz-adv-x="371" d="M135 362q4 4 32 10q18 1 27.5 -8.5t12 -19.5t3.5 -31t2 -27q56 -10 94 -3q20 58 -6 110t-80.5 75t-112.5 5q-24 -8 -33 -15q-23 -20 -36 -56q-8 -28 -6 -43q-2 -175 2 -269q4 -50 48.5 -71t97.5 -14q71 1 109.5 60.5t16.5 127.5q-14 4 -43.5 3.5t-43.5 0.5q0 -3 -1.5 -28 t-6.5 -36q-13 -27 -46 -23q-31 7 -37 59q-3 46 -1.5 112.5t4.5 71.5l1 4q2 4 3 5zM143 354h-1q1 -1 0 -2v-2q-4 -8 -4 -114q0 -48 2 -66q2 -40 28 -49q24 -2 33 16q5 14 5 37q0 12 3 35q29 -1 42 -1q37 2 63 -7q11 -33 11 -55q0 -60 -41.5 -105t-102.5 -48q-57 -6 -105 17.5 t-54 78.5q-3 61 -3 146q0 72 1 122q-3 24 8 48q13 38 39 62q13 8 36 17q30 8 53 8q68 0 119 -47t51 -114q0 -28 -11 -58q-17 -5 -44 -5q-24 0 -69 9q-3 13 -3 31q0 12 -1 19.5t-4 16.5t-10 13t-17 4q-1 0 -2 -0.5t-2 -0.5h1q-20 -5 -21 -6z" />
<glyph unicode="d" horiz-adv-x="357" d="M215 180q-9 -15 -21 -22q-8 -4 -11 -3q-3 0 -12.5 -1t-13.5 -1t-10 1t-10 4q-2 31 -0.5 91.5t-0.5 81.5v3h1h1q20 5 49 1q33 -12 44 -72q10 -45 -16 -83zM277 423q-29 44 -73 55q-17 -1 -51 0.5t-61 0t-49 -7.5l-2 -2q1 -49 0 -147t1 -173t10 -138q58 0 176 2 q64 82 84 143h1q5 27 10 126q-2 28 -6 42q-12 53 -40 99zM287 429v-1q26 -42 42 -101q3 -13 5 -45q0 -4 -0.5 -12.5t-0.5 -12.5q-2 -72 -8 -101q-21 -64 -93 -154q-116 -2 -191 -2q-12 86 -12 220q0 16 0.5 49t0.5 50q0 12 0.5 37t0.5 38q0 60 2 87q37 9 84 9q5 0 17 -0.5 t18 -0.5q27 -1 54 0q48 -11 81 -60zM206 186v1q23 33 14 74q-11 52 -34 62q-29 2 -39 1q1 -22 1 -74q-1 -17 -1 -53v-32q11 -2 25 0q2 0 6 0.5t6 0.5l4 2q12 8 18 18z" />
<glyph unicode="e" horiz-adv-x="366" d="M322 102q-34 -1 -94 1t-82 2v1q-5 51 0 83q4 4 36 4t45 4q0 85 -1 92v1q-9 0 -38 0.5t-44 1.5l-1 1q-4 4 -2.5 38t1.5 40h1h1q23 3 89 2t87 7q0 10 1 30t1 36t-2 29q-2 3 -99.5 1.5t-177.5 -5.5q-4 -68 -4 -143t1.5 -169.5t1.5 -144.5q38 -3 83.5 -3t104.5 1t86 1 q8 27 6 87v2zM333 114v-14q0 -4 0.5 -14t0.5 -15q0 -31 -9 -69q-65 0 -95 -1q-32 -1 -95 -1q-65 0 -104 4q0 62 -2 158q-2 98 -2 145q0 92 6 176q117 5 241 5q57 0 57 -12q2 -18 2 -32q0 -6 -0.5 -17t-0.5 -16t-0.5 -20t-0.5 -21q-44 -10 -112 -8h-30q-27 0 -36 -1 q0 -14 -1 -20q-2 -23 1 -39h39q10 0 44 -2q5 -30 3 -75q0 -5 -0.5 -19t-0.5 -18q-24 -7 -57 -7q-6 0 -11.5 1t-8 1t-4.5 -2q-2 -16 -2 -26q0 -15 2 -39q20 0 62 -2h72h42z" />
<glyph unicode="f" horiz-adv-x="355" d="M244 186q2 0 2 1q-1 12 -0.5 39t1 43.5t-2.5 27.5q-63 -3 -84 0q-1 0 -1 1q-17 24 -2 60q30 3 93 5.5t85 4.5v99q-33 9 -99 10t-118.5 -3t-80.5 -8v-1q0 -109 -0.5 -243t-0.5 -210h1q14 -6 115 0q2 124 6 164h1q11 2 40.5 4.5t44.5 5.5zM257 187q0 -12 -11 -12 q-23 -4 -42 -5q-5 -1 -16.5 -1.5t-19.5 -2.5q-2 -40 -4 -126v-38q-32 -4 -84 -4q-39 0 -56 7v205q0 30 0.5 117t0.5 148q71 13 191 13q90 0 131 -12v-36q0 -66 -1 -82q-53 -5 -88 -6q-9 -1 -42.5 -2t-49.5 -3q-3 -9 -3 -19q0 -12 5 -21q2 0 10 -0.5t11 -0.5q21 0 45 2h17 q8 -18 6 -68q-2 -32 0 -53z" />
<glyph unicode="g" horiz-adv-x="369" d="M308 247v1h-2q-102 0 -129 -3h-2v-2q1 -14 1.5 -49t2.5 -51q0 -2 16 -2h18q8 -1 6 -14q-4 -12 -21 -19q-22 -9 -41 -6q-10 1 -16 6t-9.5 12.5t-3.5 13.5l-2 16q-1 11 -1 14q-8 93 4 197q5 13 5 14q11 10 44 10q28 0 45 -56q17 -3 82 0q1 0 2 3q23 80 -33.5 120.5 t-136.5 28.5q-37 -3 -65 -25q-30 -21 -36 -78q-5 -36 -5 -86q2 -29 2.5 -86t2.5 -86q2 -20 4 -28q9 -56 63 -81q53 -17 142 5q59 22 63 80q12 58 0 151zM320 259v-11q6 -52 6 -85q0 -39 -6 -69q-8 -65 -76 -90q-52 -12 -86 -12q-36 0 -60 9q-60 27 -69 89l-3 14 q0 2 -0.5 6.5t-1.5 6.5q-3 43 -3 89q0 56 -2 85q0 54 5 89q8 63 41 86v-1q30 24 70 27q15 3 35 3q64 0 109.5 -32t45.5 -91q0 -22 -6 -45q-9 -9 -14 -9q-3 0 -8 -0.5t-8 -0.5q-9 -1 -33 -1q-27 0 -43 3q-17 55 -35 55q-28 0 -37 -8v-3q0 -1 -0.5 -3t-0.5 -3q-6 -53 -6 -118 q0 -37 3 -75q0 -2 0.5 -5.5t0.5 -4.5q2 -31 10 -38v1q4 -3 11 -3q17 -3 34 4q10 4 14 12h-7q-21 0 -32 5q-3 24 -3 62q0 42 1 59q39 3 154 3z" />
<glyph unicode="h" horiz-adv-x="366" d="M325 13l-18 468q-53 6 -92 -8q5 -96 -3 -174q-62 -3 -72 0h-1q-6 31 -8.5 89.5t-5.5 85.5q-13 4 -41.5 2t-42.5 0h-2v-1q-3 -97 0 -250.5t8 -214.5q7 4 43.5 0.5t48.5 3.5q4 30 2.5 87.5t1.5 91.5q34 7 77 2l1 -1q3 -25 3.5 -88.5t5.5 -95.5h1q75 0 94 3zM318 491 l18 -487q-31 -6 -81 -6h-35q-7 44 -7 114q0 40 -4 73q-8 1 -24 1q-14 0 -32 -3q-1 -12 -1 -33q0 -29 1 -42q0 -7 0.5 -20t0.5 -19q0 -32 -5 -61q-20 -13 -64 -9q-28 4 -47 -9q-12 140 -12 380q0 77 4 119q23 -3 50 -1q39 0 56 -4q5 -34 7 -90q2 -64 6 -86q18 -3 44 1h-1 q4 1 10 1q4 44 4 90q0 27 -2 81q50 16 114 10z" />
<glyph unicode="i" horiz-adv-x="194" d="M158 484h-16q-30 -1 -74 2q-1 0 -12.5 1t-14.5 0v-1q-8 -77 -3.5 -233t-1.5 -242q6 2 62 0t59 6q-4 107 -4 154t2.5 155.5t2.5 154.5v3zM142 495l27 -5q0 -56 -2 -150q-3 -171 -3 -181q0 -83 4 -146q-10 -14 -50 -14q-26 0 -37 1q-34 2 -58 -4q5 60 5 126q0 41 -2 123 q-2 70 -2 117q0 76 7 131q15 7 29 5q2 0 4.5 -0.5t3.5 -0.5q2 0 5 -0.5t4 -0.5q29 -2 65 -1z" />
<glyph unicode="j" horiz-adv-x="339" d="M293 486l-98 -1v-5q-3 -109 1 -312q-2 -22 -12.5 -36.5t-28.5 -10.5q-37 1 -40 76v3v1q-61 11 -104 1q-1 -29 2 -56t11 -56.5t25.5 -51t43.5 -28.5q74 -15 125 11q20 7 34 22t21.5 28.5t12.5 39.5t6 38.5t2.5 43.5t1.5 37q0 37 -2 124t-1 132zM184 496l120 1 q0 -94 1 -137q3 -108 2 -131q-1 -9 -1 -28q-1 -36 -3.5 -57.5t-10 -52t-25 -50.5t-45.5 -31h1q-34 -17 -79 -17q-27 0 -54 6q-95 28 -90 213q26 6 56 6q29 0 71 -7v-14q3 -63 31 -64q11 -3 18.5 8.5t8.5 27.5q0 4 -0.5 15t-0.5 16q-2 96 -2 160q0 81 2 121v15z" />
<glyph unicode="k" horiz-adv-x="361" d="M321 13l-91 238v1q66 139 91 223q-4 2 -45 2h-46l-1 -1q-16 -23 -45 -71.5t-49 -74.5l-1 1v1q0 16 -0.5 67.5t-1.5 76.5q-11 0 -42.5 1.5t-47.5 0.5v-1q1 -61 -2 -235t1 -228q48 -10 98 0q1 17 -1 72.5t0 73.5q9 -15 26 -47.5t32 -57t32 -43.5q70 -2 93 1zM243 250 l93 -246q-33 -5 -56 -5q-6 0 -17 0.5t-17 0.5q-3 0 -11.5 0.5t-10.5 0.5q-35 37 -71 107q-4 6 -5 8q0 -22 1 -33q2 -47 0 -78q-30 -7 -59 -7q-32 0 -60 7q-3 63 -3 140q0 46 2 136q2 96 2 159v48q31 2 64 0h49q1 -26 1 -97v-29q13 18 33 53q24 42 46 73h40q52 0 72 -3 q-25 -85 -93 -235z" />
<glyph unicode="l" horiz-adv-x="338" d="M317 72l1 41q-11 -2 -87.5 1.5t-85.5 1.5v1q1 57 -0.5 180t-0.5 181q-17 8 -55.5 8t-50.5 -6q0 -50 1.5 -145.5t1 -158.5t-4.5 -154v-12q107 -2 159 -1.5t75 1.5t29 0q15 0 17.5 8t0.5 54zM329 73v-38q0 -26 -5 -31t-26 -5h-25q-36 -2 -101 -2q-34 0 -148 2v23 q5 111 5 211q0 80 -1 124q-1 18 -1.5 64.5t-0.5 66.5q26 10 60 10q43 0 70 -12q-1 -26 -1 -87q0 -76 1 -113q1 -40 1 -121v-36q10 0 36.5 -1.5t36.5 -1.5q75 -4 100 1z" />
<glyph unicode="m" horiz-adv-x="364" d="M314 10l2 213q3 44 1 126t0 126q-16 1 -51 -1t-48 -2q-7 -9 -22 -32t-24 -33q-2 0 -4 3q-4 6 -16 28.5t-21 32.5h-1q-9 0 -29.5 0.5t-35.5 -0.5t-26 -4q-2 -439 0 -455q2 -2 3 -2q79 0 93 2q-2 33 -2 229q15 3 29 -18.5t19 -24.5q7 9 19.5 26.5t16.5 22.5v-1 q4 -33 5.5 -73t2 -88.5t1.5 -74.5h88zM328 222l-2 -225q-2 0 -18 1.5t-22 1.5t-15.5 -0.5t-14.5 -0.5h-41q-2 56 -2 97q-2 80 -5 120q-9 -15 -24 -32q-18 9 -28 28q-10 15 -12 16v-53q0 -12 -0.5 -35.5t-0.5 -35.5q0 -37 4 -101q-32 -5 -49 -5q-6 0 -16 0.5t-16 0.5h-24 q-4 0 -12 8q-4 11 -4 103q0 186 2 366q22 7 73 7h36q15 -19 27 -42q3 -10 8 -16q12 16 16 23l6 9l8 13l11 14q19 0 49 2q36 2 68 0q-2 -36 -2 -62q0 -47 1 -70q0 -11 0.5 -33t0.5 -33q0 -22 -2 -66zM178 417q-1 0 -1 1q0 -1 1 -1z" />
<glyph unicode="n" horiz-adv-x="377" d="M332 16l1 10q-2 43 -1.5 121.5t-0.5 122.5l1 214q-6 3 -44.5 2.5t-60.5 -4.5v-2q-5 -27 -1 -82t0 -67q-80 134 -81 142v1q-23 7 -52 9t-47 -4q-5 -67 -5.5 -145t1 -173.5t1.5 -145.5q0 -1 1 -1q14 3 53.5 -1t50.5 1h1q-3 104 4 197q39 -108 80 -200q16 3 36 0.5t40 -2.5 t23 7zM344 26l-1 -11q-8 -20 -67 -16q-32 2 -49 -1q-35 74 -65 158q-2 -56 -2 -77v-72q-26 -9 -68 -5q-32 4 -61 0v60q0 77 -1 115q-1 40 -1 120q0 108 7 190q20 7 42 7q39 0 77 -12q5 -22 58 -109q3 -6 4 -7q-1 5 -1.5 14.5t-0.5 15.5q-3 48 -3 51q0 23 4 44q40 7 72 7 t55 -5l-1 -223q1 -33 1 -112v-66q0 -44 1 -66z" />
<glyph unicode="o" horiz-adv-x="345" d="M226 290l1 -46v-31l-1 -5v-14v-17q-1 -10 -1 -21.5t-0.5 -15.5t-3 -10t-8.5 -13q-20 -23 -54 -20t-47 29q-4 13 -6 28.5t-4 35.5l-3 30q-3 65 6 109q10 30 32 47q26 18 52 8q31 -14 34 -56q0 -6 1 -15.5t2 -16.5v-6zM299 407q-10 25 -28 41q-37 29 -93 32t-100 -19 q-10 -8 -15 -13q-33 -37 -35 -114q-2 -35 3 -210q2 -47 16 -73q18 -41 89 -47q37 -3 75 6q47 12 69 41q23 38 25 90q0 4 0.5 11t1.5 11q2 25 2.5 71t1.5 67q0 43 -2 65q-3 23 -10 41zM309 411v1q9 -22 12 -45q2 -22 2 -67q-2 -44 -2 -63q0 -53 -2 -78q-1 -3 -1 -7 q0 -2 -0.5 -5.5t-0.5 -5.5q-2 -50 -31 -101q-20 -26 -72 -41q-38 -10 -79 -7q-77 6 -99 54v-1q-15 30 -17 79q0 16 -2 52q-3 99 -3 100q0 21 2 59q2 79 39 121q8 9 17 14q44 21 95 21q66 0 111 -34q20 -18 31 -46zM216 244l-1 44q-1 5 -1 11q0 4 -0.5 14t-1.5 14 q-3 35 -28 47h1q-21 8 -42 -8l1 1q-22 -18 -28 -42l1 2q-7 -34 -7 -74q0 -21 1 -32q1 -5 2 -15t1 -14q5 -51 8 -61q13 -23 42 -23q25 0 40 17v-1q10 12 10 30q0 16 1 24q0 6 0.5 17.5t0.5 13.5v35z" />
<glyph unicode="p" horiz-adv-x="352" d="M216 364q17 -9 20.5 -29.5t-7.5 -35.5q-5 -5 -12.5 -8.5t-13.5 -5.5t-16.5 -3.5t-14.5 -1.5t-16.5 -0.5t-14.5 -0.5h-2q-4 12 -5.5 30.5t-1 35t-0.5 34.5l2 1q50 10 82 -16zM333 336v1q-2 54 -33 89t-77.5 47t-95 11.5t-92.5 -12.5q3 -77 3 -236.5t2 -223.5q76 -5 111 3 q1 0 1 0.5t1 0.5q-2 55 -2 94v51q0 13 -1 23q64 -10 119.5 30.5t63.5 104.5v17zM345 336q0 -14 -1 -19v1q-8 -62 -62.5 -105t-118.5 -42v-165q-23 -7 -72 -7q-21 0 -63 3q-2 62 -2 223q0 180 -3 257q61 14 109 14q86 0 147 -38t66 -121v-1zM210 354l-1 2q-28 20 -65 13v-23 q0 -41 4 -56q2 0 4 0.5t4 0.5q49 2 63 14q7 11 7 21q0 19 -16 28z" />
<glyph unicode="q" horiz-adv-x="370" d="M135 133q-27 106 -4 200q12 35 43 38q21 3 34 -8q6 -6 9.5 -14t6.5 -21.5t4 -16.5q16 -70 5 -142q-6 -51 -18 -64q-11 -13 -31 -13h-12q-24 3 -37 41zM309 63q15 23 13 72q0 18 1.5 56.5t1.5 62t-1.5 56.5t-5.5 60q-4 12 -6 17q0 1 -1 3.5t-1 3.5q-25 57 -72 68 q-89 11 -135 -12q-41 -16 -52 -45q-3 -10 -7 -30q0 -10 -3.5 -71.5t-3.5 -85.5t3 -68.5t11 -79.5q3 -14 10 -22q13 -23 38 -35q15 -5 30 -7t35.5 -1t29 1.5t36 4t30.5 3.5q0 -1 2 -3q10 -10 41 -3q3 1 11 0.5t10 1.5q1 4 0.5 16.5t0.5 19.5v1q-1 1 -8.5 6t-7.5 10zM333 135 q2 -47 -11 -73h1q10 -8 14 -15q-2 -8 -1 -22.5t-2 -21.5q-10 -7 -22 -7h-8q-32 -9 -49 6q-6 0 -9 -1q-54 -8 -84 -8q-40 0 -71 11q-21 8 -40 38v-1q-10 13 -11 26q-14 64 -14 145q0 40 4 116l3 49q4 22 7 31q10 33 58 53q35 16 86 16q25 0 59 -4q50 -11 78 -76q0 -2 1 -3v-1 l8 -23q6 -51 6 -103q0 -26 -2 -78q-1 -19 -1 -54zM146 135l-1 1q9 -23 27 -33h12q15 0 23.5 12.5t10.5 23t4 31.5q4 25 4 56q0 42 -9 82l1 -1q-2 6 -5 16q-6 25 -12 32v-1q-10 10 -24 6q-26 -3 -35 -31l1 1q-12 -48 -12 -88q0 -42 15 -107z" />
<glyph unicode="r" horiz-adv-x="361" d="M129 384q54 23 83 -1q19 -15 16 -45.5t-28 -35.5q-18 -2 -68 0h-1q-1 11 -1.5 42.5t-0.5 39.5zM354 13q-16 43 -65 117.5t-55 84.5v1h1h2q60 3 87 57q41 70 2 139.5t-119 74.5q-68 6 -177 -9q5 -34 7.5 -251t-2.5 -217q8 1 27.5 0.5t47.5 1t41 6.5q-7 122 -2 163v-2 q40 -47 93 -168h1q23 -1 62.5 0.5t48.5 1.5zM364 17l-10 -15q-24 0 -38 -1q-65 -3 -82 -1q-46 100 -76 148v-11q0 -5 4 -109q0 -2 0.5 -9.5t0.5 -8.5q-32 -11 -106 -11l-31 1v126q0 306 -9 362q112 13 141 13q26 0 50 -3q62 -6 105 -51t43 -103q0 -40 -22 -77l1 1 q-29 -54 -82 -63q16 -28 37 -55q57 -89 74 -133zM175 384q-15 0 -34 -7v-30q0 -29 1 -34q9 -1 29 -1q18 0 27 2q19 4 19 29q0 20 -11 29q-14 12 -31 12z" />
<glyph unicode="s" horiz-adv-x="361" d="M326 327q18 94 -58 133q-34 15 -74 17.5t-73 -10.5q-43 -18 -68 -58.5t-20 -90t44 -86.5q19 -18 45 -23q2 0 11 -2t12.5 -2.5t12 -2.5t12.5 -4l11 -4q7 -2 11 -4.5t9 -6.5t8 -8t5 -9.5t3 -11.5q6 -36 -26 -45q-30 -9 -52 12q-11 12 -12 28q-10 0 -31 1t-39 1t-32 -2v-2 v-3q-5 -60 44.5 -97t113.5 -39q43 -1 78 18t50 58q17 34 14.5 74.5t-24.5 69.5q-43 62 -116 70q-37 6 -43 29v17q3 24 26.5 30t43 -8.5t13.5 -37.5q42 -11 101 -1zM337 325l-9 -9q-28 -5 -56 -5t-61 9q5 18 -5.5 30.5t-25.5 12.5q-24 0 -27 -22v-13q5 -14 34 -19h-1 q80 -8 124 -74h-1q28 -35 28 -84q0 -39 -15 -72v1q-16 -42 -54.5 -63.5t-84.5 -20.5q-69 2 -122 43t-47 106v14l45 3q7 0 19 -0.5t19 -0.5q11 -1 42 -1q1 -19 12.5 -30.5t25.5 -11.5t22.5 9t5.5 25q-3 31 -79 45h-6q-26 7 -51 26q-49 48 -49 110q0 46 26.5 86t69.5 59 q26 11 65 11q53 0 92 -19q68 -35 68 -110q0 -11 -4 -35z" />
<glyph unicode="t" horiz-adv-x="335" d="M304 475q-83 8 -282 6q0 -1 0.5 -1t0.5 -1q-6 -88 3 -104q4 -2 36 -2.5t44 -6.5v-1q4 -109 5 -196t0.5 -122.5t-0.5 -36.5q16 2 54.5 2t54.5 2v1v1q-4 347 -2 353v2h1q74 2 82 0q6 53 3 104zM305 487l11 -2q1 -9 1 -42q0 -38 -6 -86q-23 6 -59 4q-2 0 -24 -2 q-1 -6 -1 -27l2 -122q1 -39 3 -205q-27 -5 -67 -5q-33 0 -66 -4v32q0 5 0.5 35t0.5 57q0 107 -6 239q-8 3 -42 3q-26 0 -34 3q-7 11 -7 70v57h32q14 0 43 0.5t44 0.5q91 0 175 -6z" />
<glyph unicode="u" horiz-adv-x="368" d="M322 462q-10 5 -27 6t-43 -1.5t-27 -2.5q-1 -39 -2 -152t-4 -172q-7 -31 -40 -33t-42 30q-13 163 -7 328v1q-18 5 -93 2h-1h1q1 -64 -1 -184.5t-2 -170.5q3 -57 55.5 -85.5t115.5 -21.5q46 4 75 34t34 75q18 159 8 347zM328 471l5 -8q4 -86 4 -131q0 -106 -11 -218 q-7 -48 -39 -80.5t-81 -39.5q-42 -4 -82 7t-70 40t-32 71q0 54 2 158q1 47 1 141v69q2 0 13 0.5t14 0.5q6 0 18 0.5t17 0.5q30 0 55 -10q-2 -68 -2 -112q0 -102 8 -222v2q6 -22 29 -22q25 0 30 25v-2q1 31 4 189q0 79 2 145q16 0 32 2q36 3 41 3q26 0 42 -9z" />
<glyph unicode="v" horiz-adv-x="338" d="M311 471q-13 3 -47 2t-48 3q-2 0 -2 -1q-8 -33 -24 -110.5t-27 -115.5q-16 64 -25 111.5t-12.5 76t-5.5 37.5v1v1q-1 4 -42.5 3t-52.5 -10v-1q18 -231 78 -452q43 -10 96 -3h1q78 281 112 457zM315 483l11 -3q-45 -225 -118 -477q-16 -3 -49 -3q-42 0 -65 7 q-59 217 -81 467q19 16 70 16q41 0 49 -11q1 -5 2.5 -17t2.5 -17q7 -68 26 -148q11 43 16 76q14 66 29 117q22 -5 58 -5q40 0 49 -2z" />
<glyph unicode="w" horiz-adv-x="348" d="M311 475q-58 6 -92 -2q-4 -45 -13 -131l-12 -104q-5 11 -11 50.5t-14 49.5v-1q-1 -6 -7.5 -42.5t-12.5 -53.5q-9 34 -13 72.5t-6.5 89t-4.5 73.5q-75 3 -96 -1v-1q3 -142 49 -461q25 -3 59 1q5 8 17.5 37.5t21.5 38.5q8 -12 19 -40t19 -38q49 0 53 1q7 79 23 233t22 229 h-1zM311 487l15 -2q-3 -40 -12 -118.5t-11 -103.5q-18 -168 -25 -259q-14 -3 -51 -3h-19q-14 19 -24 46v-1q-6 16 -10 23q-2 -4 -6 -13.5t-5 -12.5v1q-6 -17 -21 -41q-2 0 -6 -0.5t-5 -0.5q-26 -4 -63 1l-7 50q-41 278 -44 433q27 3 56 3q6 0 18 -0.5t18 -0.5h27 q3 -35 5 -80q1 -14 1 -31v-25q0 -9 2 -23.5t6 -32.5q0 2 1 5t1 5q1 5 4.5 28.5t4.5 29.5q22 -27 29 -51q7 53 18 170q32 6 56 6q17 0 47 -2z" />
<glyph unicode="x" horiz-adv-x="368" d="M332 479q-72 0 -106 -3v-1q-4 -11 -11 -37t-13.5 -46t-14.5 -36q-5 17 -20.5 54t-21.5 57q-3 4 -108 -2v-3q31 -77 59 -218v-2q-9 -42 -35.5 -119.5t-33.5 -104.5v-1q43 -7 92 -4q8 17 25 67.5t32 72.5v-1q11 -23 22.5 -70.5t21.5 -68.5l1 -1h1q15 -3 44 -1.5t44 -0.5v1 q-11 43 -24 126l-16 101q14 91 62 240v1zM344 490l-1 -16q-48 -147 -61 -235l12 -75q20 -123 32 -168q-31 5 -56 3q-33 -2 -58 4q-11 25 -25 75q-4 25 -13 48q-6 -10 -22 -57q-21 -54 -26 -66q-19 -2 -36 -2q-32 0 -77 9q1 4 32 103q31 94 39 131q-29 146 -64 231 q124 9 137 -6q11 -35 20 -55q11 -26 11 -27q6 17 16 53l13 47q45 3 127 3z" />
<glyph unicode="y" horiz-adv-x="338" d="M321 472q-12 2 -43.5 1t-50.5 -4l-1 -1q-36 -83 -52 -113q-25 49 -40 115q-12 5 -30 5t-40.5 -2t-30.5 -2q9 -36 41.5 -112.5t42.5 -117.5v-1q-67 -166 -87 -230h1q13 0 49.5 1.5t44.5 -0.5q25 73 97.5 225t98.5 235v1zM332 482l-1 -15q-23 -77 -102 -245 q-68 -142 -96 -224q-22 4 -53 2q-32 -2 -65 0q24 80 74 201v-1l16 40q-6 26 -42 115q-31 73 -46 128q24 0 44 2q26 2 39 2q21 0 44 -9q18 -70 30 -96q4 8 46 98q20 4 58.5 4.5t53.5 -2.5z" />
<glyph unicode="z" horiz-adv-x="372" d="M326 370q0 13 1 53t-1 53q-25 0 -74 1t-78 1.5t-68.5 -0.5t-71.5 -5q1 -2 1 -3q4 -13 4 -47.5t5 -43.5q116 -4 161 -9l-41 -56l-46 -66q-19 -25 -41 -62t-36 -67q1 -13 1 -55.5t5 -51.5q136 7 274 -1v1q5 77 1 107v2q-28 -1 -58.5 -1.5t-54.5 -1.5t-55 -5v1l80 115 q62 90 92 140v1zM337 370l-2 -7q-26 -44 -104 -157q-52 -74 -55 -79q39 4 79 4h77q0 -4 1.5 -22t1.5 -25q0 -5 -3 -65v-20q-77 5 -158 5q-70 0 -135 -3q-8 26 -8 73q0 40 -1 47q7 15 14.5 29.5t17.5 31.5l16 27l20 30l18 26l20 29l18 25l14 19q9 12 16 23q-27 2 -146 6 q-11 17 -11 57q0 30 -4 43l-7 16q70 7 136 7q34 0 100 -2h84q3 -39 3 -49q0 -4 -0.5 -14t-0.5 -15q-1 -14 -1 -40z" />
<glyph unicode="{" horiz-adv-x="320" d="M280 12q1 14 1 98q-61 6 -54 105q5 92 -51 123q35 12 45.5 46t6 71t1.5 76q4 26 49 39q4 57 -1 88q-45 3 -92 -2q-35 -4 -53 -36.5t-10 -71.5q4 -30 0 -60t-13 -54t-33 -37.5t-60 -10.5q-10 -58 -2 -93q2 -1 8 -1q46 2 71.5 -28.5t27 -71t-1.5 -78.5q-2 -47 42 -78.5 t119 -23.5zM292 11l-11 -10q-18 -2 -29 -2q-69 0 -107.5 34.5t-37.5 83.5q4 30 4 44q0 51 -20.5 86t-68.5 33q-9 0 -19 5q-4 20 -4 44q0 26 7 70q57 -6 81.5 26.5t24.5 86.5q0 11 -2 35v-1q-8 44 12.5 80t60.5 42q33 3 58 3q21 0 47 -2q4 -25 4 -53q0 -10 -3 -55 q-43 -14 -49 -32q-4 -25 -2 -63q0 -6 0.5 -17t0.5 -16q0 -70 -39 -96q43 -37 38 -123q-7 -87 54 -94v-71v-38z" />
<glyph unicode="|" horiz-adv-x="176" d="M132 -15h8q1 15 0 360t-2 361v1q-23 -4 -36 -4.5t-31 0.5t-37 1v-119v-597q24 -3 98 -3zM132 -27q-62 0 -110 4v739q45 0 54 -1q26 -2 73 4q3 -51 3 -660v-86h-20z" />
<glyph unicode="}" horiz-adv-x="320" d="M33 12q75 -8 119 23.5t42 78.5q-6 27 -3.5 58.5t10.5 59t31.5 45t58.5 15.5q6 0 8 1q8 38 -2 93q-36 -3 -60 10.5t-33.5 37.5t-13.5 54t1 60q8 39 -10 71.5t-53 36.5q-46 5 -93 2q-3 -25 -1 -88q45 -13 50 -39q6 -39 1 -76t6 -71t46 -46q-56 -31 -51 -123q7 -99 -54 -105 q0 -84 1 -98zM32 1l-11 10q-1 11 -1 38v71q60 7 55 94q-5 85 38 123q-24 14 -31.5 37t-7.5 59q0 5 0.5 16t0.5 17q0 43 -2 63q-6 18 -49 31q-3 45 -3 56q0 28 4 53q24 2 47 2q24 0 57 -3q40 -6 61 -42.5t12 -79.5v1q-2 -24 -2 -35q0 -54 24.5 -86.5t81.5 -26.5q8 -50 8 -70 q0 -25 -5 -44q-9 -5 -19 -5q-48 2 -68.5 -33t-20.5 -86q0 -14 4 -44q2 -49 -37 -83.5t-108 -34.5q-10 0 -28 2z" />
<glyph unicode="~" horiz-adv-x="575" d="M169 138v1q-8 31 0 50q4 12 20 23q24 11 43 11q29 1 48 -27q18 -42 64 -57.5t87 1.5q29 10 50 36q61 87 45 157l-2 3q-86 -2 -103 -4q-5 -20 -17.5 -40.5t-33.5 -34t-45 8.5q-10 7 -27 29.5t-31 31.5q-42 26 -88.5 18t-80.5 -42q-21 -25 -42.5 -75.5t-31.5 -86.5 q114 5 145 -3zM183 125l-17 2q-18 5 -71 5l-87 -3q41 134 81 182q47 47 111 47q41 0 74 -21q9 -6 34 -36q18 -22 24 -26q10 -10 22 -10q18 0 34.5 26.5t22.5 50.5q16 1 87 4q4 0 12.5 0.5t13.5 0.5q10 0 15 -3q10 -32 -6 -84.5t-42 -89.5q-25 -30 -56 -40q-24 -9 -51 -9 q-36 0 -67.5 18.5t-46.5 51.5q-18 22 -38 21q-15 0 -39 -11q-12 -9 -14 -16q-6 -15 1 -43z" />
<glyph unicode="&#xa1;" horiz-adv-x="192" d="M148 -40q6 56 4 255t-1 252h-1q-107 -3 -123 -5q8 -153 1 -504q12 -4 29.5 -4.5t29.5 0.5t32.5 3t25.5 3h3zM145 628l-71 -1h-2q-7 0 -18 0.5t-19 0.5h-6q0 -9 -3 -114q11 0 37.5 -2.5t46 -2t32.5 6.5v1q0 12 3 45t3 45.5t-3 20.5zM74 639l71 1q18 0 12 -79 q-3 -51 -3 -53q-21 -9 -51 -9q-13 0 -41 2q-24 2 -48 2q0 5 0.5 21t0.5 22q2 56 2 94h18q4 0 10.5 -0.5t9.5 -0.5h19zM159 -52h-12q-4 -1 -11.5 -1.5t-11.5 -0.5q-36 -4 -58 -4q-26 0 -50 8v33q4 172 4 271q0 85 -6 219q26 3 108 5q5 0 20.5 0.5t19.5 0.5q-1 -34 -1 -111 q0 -67 1 -99q0 -23 0.5 -71t0.5 -71q0 -65 -4 -179z" />
<glyph unicode="&#xa2;" horiz-adv-x="353" d="M188 208v256q12 -8 16 -22t4 -33.5t2 -27.5q52 -9 95 -3v1q20 62 -15.5 125t-100.5 65h-1v62v1q-7 5 -18 2.5t-15 -6.5v-30q0 -26 -2 -27q-59 14 -94 -32t-29 -106q0 -23 -1 -65l-1 -64q-1 -23 0.5 -57.5t5.5 -67.5q5 -41 42.5 -63t77.5 -16q0 -8 0.5 -28.5t1.5 -31.5 q6 -10 28 -1l1 1h2q2 7 1 29.5t0 30.5v1h2q44 7 78.5 36.5t39.5 70.5q1 14 -1 40t-2 38v1q-4 6 -43.5 5t-43.5 -1q-1 -6 -1.5 -22t-2 -25.5t-7.5 -20t-18 -15.5h-1zM126 391q0 4 0.5 16.5t1 19.5t3 16t8 14t14.5 5q3 -84 1 -254q-25 13 -27 56q-5 49 -1 127zM138 391v-1 q-2 -44 -2 -63q0 -31 3 -62q0 -13 3 -23q0 16 0.5 47t0.5 46q0 65 -1 106q-3 -9 -3 -36q0 -3 -0.5 -7t-0.5 -7zM199 312q0 -47 1 -75q4 14 5 26q-1 8 3 35q4 -1 18.5 1.5t18.5 2.5q46 2 71 -8q0 -20 2 -44q3 -38 2 -44q-6 -44 -39.5 -73.5t-80.5 -38.5v-20q2 -24 -3 -45 l-5 -1h-7q-29 -11 -41 8q-1 12 -1 38q0 4 -0.5 6t-0.5 8q-41 -2 -77.5 22t-42.5 67q-6 52 -6 119q0 46 1 71q1 21 1 65q-3 63 31.5 113t93.5 40v47q6 8 24.5 10.5t32.5 -7.5v-27v-29q54 -6 89 -53t35 -104q0 -26 -10 -55q-24 -4 -47 -4q-24 0 -66 8q-2 6 -2 10v-69z" />
<glyph unicode="&#xa3;" horiz-adv-x="467" d="M138 345h-3q-14 -1 -37.5 0.5t-43.5 1t-36 -7.5q-1 -1 -1 -3q-1 -9 0 -13.5t1.5 -35t0.5 -69.5h10q8 0 39.5 -0.5t71.5 -0.5q4 -82 -5 -195q12 -9 247 -9h49l7 148q-5 1 -86.5 5.5t-89.5 5.5q-3 5 -5 18.5t1 22.5q3 0 36 1.5t90 -0.5q-4 11 -3 20t3 43t1 64h-1 q-13 -5 -125 1q1 76 0.5 103.5t-3.5 104.5l-4 104v1q-21 -5 -64.5 -6t-46.5 1q-3 -12 -2 -116t5 -189h-1h-5zM91 357q28 -2 40 -1q-4 92 -4 223q0 60 4 82q1 0 8 -0.5t17 -0.5h16q56 0 91 9q1 -15 2 -51t2 -51q5 -147 5 -176q0 -9 -0.5 -20t-0.5 -19q3 0 14.5 -0.5 t14.5 -0.5q40 -3 59.5 -2.5t37.5 7.5v-43q0 -31 -2 -61q-3 -31 13 -51q-38 2 -72 2q-32 0 -56 -2h-13q-1 -4 4 -19q6 0 30 -2l40 -2q93 -4 110 -7q-1 -24 -3.5 -68t-3.5 -56q-2 -42 -2 -45h-60q-142 0 -193 2t-66 12q6 84 6 147v42q-43 1 -85 1q-27 0 -37 5v36q0 45 -2 71 q-2 12 0 19q0 4 7 11q28 11 79 9z" />
<glyph unicode="&#xa5;" horiz-adv-x="522" d="M447 250q-2 1 -2 40v44v1h-1q-8 5 -46.5 3.5t-46.5 4.5q84 155 141 326q-46 9 -134 -4q0 -1 -2 -1t-2 -1q-39 -97 -75 -163q-18 38 -59 172q-23 2 -69.5 -0.5t-68.5 0.5q11 -60 57 -173.5t59 -159.5q0 -1 0.5 -1t0.5 -1q-19 -1 -78 -1t-90 -4h-2q0 -3 -1.5 -41.5 t1.5 -39.5q6 -8 66 -6.5t66 0.5h1v-1q-1 -1 -1 -3q-17 -36 -17 -37v-1q-14 0 -52 -1.5t-59 -0.5q-3 -8 -4 -23.5t-0.5 -30.5t-0.5 -30v-1q12 -6 41 -5.5t39 -2.5q-2 -7 -16.5 -44t-16.5 -52h3q17 -1 70 1.5t63 -2.5h1v1q6 14 19 49t22 52q19 0 90.5 2.5t103.5 1.5 q-2 3 -2 43v44h-156v1q3 5 10.5 22.5t14.5 20.5q13 0 68.5 2.5t64.5 -1.5v1zM457 238h-12q-22 2 -35 2q-7 0 -20.5 -0.5t-20.5 -0.5q-36 -2 -51 -2q-6 -6 -10 -20l-1 -1q6 0 17 0.5t18 0.5q8 0 23 0.5t22 0.5q15 0 69 -3v-41q0 -42 5 -68q-48 1 -151 -3h1q-9 -1 -25 -1 t-25 -1q-9 -16 -22 -51q-10 -30 -21 -52q-32 5 -44 5q-5 0 -16 -0.5t-17 -0.5q-49 -2 -79 0q3 28 22 77q2 6 4.5 10.5t4.5 9.5h-20q-36 0 -56 13v31q0 48 8 70q26 -1 71 1q29 0 40 1l3 6q4 11 5 14q-4 0 -14 -0.5t-14 -0.5q-6 0 -18 -0.5t-17 -0.5q-38 0 -62 10q-4 24 -2 59 q0 4 3 40q41 5 111 5q45 0 52 1q-17 52 -49 134q-51 121 -66 203q29 -3 43 -3q26 0 39 1q30 2 42 2q4 0 17.5 -1.5t18.5 -1.5q2 -6 6.5 -21t6.5 -20q18 -62 39 -114q31 59 65 142q5 5 12 7q48 6 98 6q29 0 51 -5q-60 -179 -138 -328q3 0 15 0.5t15 0.5q42 0 58 -10v-38 q0 -60 1 -64z" />
<glyph unicode="&#xa6;" horiz-adv-x="833" />
<glyph unicode="&#xa7;" horiz-adv-x="833" />
<glyph unicode="&#xa8;" horiz-adv-x="349" d="M207 509l93 -1h2v1v1q5 90 5 97q-13 6 -50 5.5t-54 -6.5q0 -91 1 -97h3zM41 509l93 -1h2v1v1q5 90 5 97q-13 6 -50 5.5t-54 -6.5q0 -91 1 -97h3zM143 497l-114 1q-5 30 -5 53q0 7 0.5 20t0.5 18q0 4 0.5 13.5t0.5 10.5q28 11 69 11q35 0 58 -10l-1 -9q0 -9 -1 -22.5 t-1 -24.5q-2 -34 -7 -61zM309 497l-114 1q-5 30 -5 53q0 7 0.5 20t0.5 18q0 4 0.5 13.5t0.5 10.5q28 11 69 11q35 0 58 -10l-1 -9q0 -9 -1 -22.5t-1 -24.5q-2 -34 -7 -61z" />
<glyph unicode="&#xa9;" horiz-adv-x="557" d="M234 433q2 2 9.5 4.5t8.5 2.5q10 0 16 -6t7.5 -11t3 -18.5t1.5 -15.5q26 -5 53 -2q17 51 -23 88.5t-91 21.5q-14 -6 -19 -10q-11 -9 -20 -32q-6 -14 -5 -24q-1 -113 2 -155q3 -28 28 -39.5t55 -7.5q40 1 62.5 35t9.5 72q-4 1 -50 1l-3 -36q-9 -14 -29 -12q-18 7 -20 34 q-1 26 -0.5 63t1.5 41zM406 486q4 -5 7.5 -11.5t5 -11t2.5 -12.5t1 -11.5t0.5 -13.5t0.5 -12q1 -44 -4 -102q-3 -37 -22.5 -66t-54.5 -34q-26 -5 -76.5 -7t-62.5 -3q-38 2 -67.5 23t-28.5 52q-9 118 -2 170q4 29 25 50.5t52 26.5h2l2 1q71 9 142 0q56 -8 78 -39zM480 264 q1 9 5 39t5 42t2.5 39.5t0.5 41t-4.5 36t-10.5 36.5t-18 29.5t-27 26.5q-2 2 -6 4t-6 4q-36 22 -79 30q-47 9 -156 3q-76 -12 -115 -61q-30 -37 -35 -82q-8 -107 5 -190q9 -75 97 -114q42 -14 103 -14q10 1 39.5 2.5t44.5 3.5t38 7t40.5 15t31.5 25q35 35 45 77zM492 263v-2 q-14 -47 -49 -82q-20 -21 -52.5 -33t-55 -15t-61.5 -6q-4 -1 -16 -1t-16 -1q-59 0 -111 15q-91 41 -102 123v-1q-8 48 -8 113q0 39 3 80q4 47 38 89v-1q43 55 123 65q1 0 5 0.5t6 0.5q63 3 67 3q43 0 81 -6q41 -7 83 -33q1 -1 5 -3q1 0 3.5 -2t3.5 -2q65 -48 65 -158 q0 -14 -8 -110q-2 -13 -4 -33zM397 479l-1 1q-17 25 -69 34q-29 4 -70 4q-39 0 -70 -4h-1q-1 -1 -2 -1q-27 -6 -45 -25t-22 -43q-4 -27 -4 -59q0 -18 5 -91q0 -3 0.5 -9t0.5 -9q-1 -25 24.5 -43.5t58.5 -20.5q8 1 25 2t23 1q61 2 90 8q29 4 47 30t21 59q5 57 4 101v8 q-2 42 -15 57zM250 426q-6 -2 -7 -2q-1 -1 -1 -2v1q-1 -2 -1 -62q0 -26 1 -37q2 -19 10 -24q12 0 16 4q1 8 1 21q0 2 0.5 12t0.5 12h28q20 2 43 -5q14 -45 -10.5 -85.5t-68.5 -41.5q-34 -4 -63.5 10.5t-32.5 47.5q-3 35 -3 83q0 9 0.5 32.5t0.5 39.5q-1 13 5 30v-1 q9 25 25 39l19 9q3 0 4 1q13 4 29 4q41 0 72.5 -29t31.5 -69q0 -16 -8 -37q-38 -4 -72 1q-2 12 -2 22q-2 27 -13 28q-2 -2 -5 -2z" />
<glyph unicode="&#xaa;" horiz-adv-x="228" d="M129 449q-6 0 -16.5 0.5t-15.5 0.5q5 31 9 44t8 6.5t7 -16.5t8 -35zM205 328l-33 151q-25 120 -35 152q-16 -1 -28.5 -1.5t-15.5 0t-8 -0.5q-14 -47 -27 -103t-20.5 -94.5t-13 -69.5t-5.5 -33l1 -1h32q15 0 18.5 -0.5t9.5 0.5h1q4 6 8 29t9 28q20 0 27 -1q17 -40 22 -55 h1q32 -7 57 -1zM184 482l34 -162q-40 -9 -80 -1q-14 40 -21 55h-13q-4 -18 -4 -21q-7 -27 -12 -34q-14 -2 -24 -2q-4 0 -25 0.5t-33 0.5l2 16q0 4 3 17q26 155 66 289h17q16 0 52 3q7 -22 29 -123l5 -21q3 -13 4 -17zM110 462h2h2l-3 20q0 -2 -0.5 -10t-0.5 -10z" />
<glyph unicode="&#xab;" horiz-adv-x="589" d="M533 83l11 10q-33 27 -92.5 85.5t-84.5 80.5q25 30 87 94.5t81 88.5q-12 8 -36.5 33.5t-35.5 32.5l-55 -57l-58 -59l-70 -72q-29 -32 -51 -59q42 -57 133.5 -140.5t105.5 -97.5l1 -1q23 20 49 46zM322 83l11 10q-32 26 -91 84.5t-86 81.5q25 30 87 94.5t81 88.5 q-12 8 -36.5 33.5t-35.5 32.5q-17 -19 -55 -57l-58 -59l-69 -72q-30 -32 -52 -59q43 -57 136 -142t104 -96l1 -1q19 17 48 46q11 9 15 15zM53 223zM350 93l-20 -18l-18 -18l-8 -9l-20 -17l-26 -23q-57 55 -94 87q-5 4 -26 23l-28 26l-25 24q-18 18 -28.5 29.5t-24.5 28.5 l-28 35q28 37 129 140l56 58l28 28q15 15 33 35q10 -6 17.5 -12.5t16.5 -15.5l11 -11q16 -19 47 -38q-11 -14 -25 -29l-33 -36l-29 -31q-58 -58 -82 -89q11 -10 71 -70q53 -53 106 -97zM561 93l-20 -18l-18 -18q-2 -1 -8.5 -8t-19 -18t-27.5 -23q-35 35 -93 87 q-95 86 -135 134l-25 32q32 42 128 140l57 58q18 18 26 28q18 17 35 35q10 -6 17.5 -12.5t15.5 -15.5l12 -11q17 -20 46 -38q-11 -14 -24 -29t-33 -36l-29 -31q-58 -58 -83 -89q16 -14 72 -70q53 -53 106 -97z" />
<glyph unicode="&#xad;" horiz-adv-x="512" d="M35 204q14 -1 212 -4t216 -3h1q-4 23 -4.5 50t0.5 59.5t1 50.5h-423q-3 -27 -3 -153zM35 193l-11 11q0 120 4 164h444q0 -47 -1 -66q0 -5 -0.5 -19.5t-0.5 -20.5q0 -38 6 -75q-17 -1 -220.5 2t-220.5 4z" />
<glyph unicode="&#xae;" horiz-adv-x="552" d="M228 448q31 12 48 -1q11 -8 9 -26t-17 -22h-39h-1v49zM353 241q-7 18 -17.5 35.5t-24.5 38t-22 33.5v1h1h1q35 1 50 33q23 41 0.5 80t-68.5 42q-17 1 -35.5 -1t-37.5 -5.5t-28 -4.5q2 -21 3 -141t-2 -121h15q13 0 29.5 1t23.5 3q-4 82 -2 95l1 -2q10 -12 20 -29.5 t20 -39.5l14 -28h1q12 -1 31 4.5t27 5.5zM406 486q4 -5 7.5 -11.5t5 -11t2.5 -12.5t1 -11.5t0.5 -13.5t0.5 -12q1 -44 -4 -102q-3 -37 -22.5 -66t-54.5 -34q-6 0 -14 -2q-112 -9 -150 -4q-9 2 -25 8q-47 20 -49 87q-3 95 -1 115q0 11 2 31q4 29 25 50.5t52 26.5h2l2 1 q71 9 142 0q56 -8 78 -39zM477 253q0 1 6 35q7 51 9 77.5t0.5 68.5t-16.5 71t-43 49q-2 2 -6 4t-6 4q-36 22 -79 30q-47 9 -156 3q-76 -12 -115 -61q-30 -37 -35 -82q-8 -107 5 -190q9 -75 97 -114q42 -14 103 -14q10 1 39.5 2.5t44.5 3.5t38 7t40.5 15t31.5 25q30 28 42 66 zM488 249q-15 -40 -45 -70q-20 -21 -52.5 -33t-55 -15t-61.5 -6q-4 -1 -16 -1t-16 -1q-59 0 -111 15q-91 41 -102 123v-1q-8 48 -8 113q0 39 3 80q4 47 38 89v-1q43 55 123 65h4q4 1 6 1q66 3 68 3q43 0 81 -6q41 -7 83 -33q1 -1 5 -3q1 0 3.5 -2t3.5 -2q66 -48 66 -158 q0 -26 -10 -123l-2 -8q-3 -19 -5 -26zM397 479l-1 1q-17 25 -69 34q-29 4 -70 4q-39 0 -70 -4h-1q-1 -1 -2 -1q-27 -6 -45 -25t-22 -43v1l-3 -31q-1 -28 1 -80v1q1 -12 1 -35q2 -59 42 -76q14 -6 23 -8h-2q23 -3 46 -3q34 0 81 5h-1q3 1 10.5 1.5t10.5 0.5l14 3q29 4 47 30 t21 59q5 57 4 101v8q-2 42 -15 57zM368 237q-10 -6 -37 -11q-3 -1 -44 -5q-8 14 -16 30q-9 22 -22 44q0 -17 2 -43q0 -4 0.5 -13.5t0.5 -11.5q-13 -4 -65 -4l-24 1l1 75q2 129 -5 203q84 13 115 11q38 -3 64 -29t26 -61q0 -22 -13 -46l1 1q-16 -32 -45 -39q1 -2 13 -18 q34 -48 48 -84zM239 440v-17v-14q12 -1 27 2h-1q9 2 10 12.5t-6 15.5v-1q-12 7 -30 2z" />
<glyph unicode="&#xb0;" horiz-adv-x="301" d="M113 587q44 8 75 -1q8 -3 15 -12q11 -14 7 -41q0 -15 -3 -30q-6 -31 -31 -35h-1q-2 0 -4 -0.5t-3 -0.5q-22 -4 -52 -2q-29 5 -29 36q0 48 1 58q5 22 25 28zM81 418q48 -15 108 -4q12 2 19 5q58 21 58 113q0 33 -2 42q-5 30 -23 45q-11 10 -27 16q-5 3 -17 7q-15 5 -39 5 t-37 -1q-2 0 -6.5 -0.5t-6.5 -0.5q-27 -5 -46 -20t-26 -38q-9 -32 -3 -103q2 -17 6 -27q9 -24 42 -39zM78 407h-2q-36 18 -48 45q-3 9 -6 31q-3 24 -3 53q0 34 5 54q17 56 83 66h7q1 0 3 0.5t3 0.5q11 1 38 1q25 0 43 -6q4 -2 10 -3.5t8 -2.5h-1q18 -7 31 -19h-1 q24 -18 27 -51q2 -11 2 -35v-9q0 -101 -66 -124h1q-8 -4 -22 -6q-20 -4 -50 -4q-35 0 -62 9zM115 576l2 1q-13 -5 -17 -20q-1 -7 -1 -40v-16q0 -21 18 -24q29 -2 49 2h5l1 1h4q15 3 19 25q3 13 4 29q4 22 -6 33h1q-7 7 -10 8q-15 4 -35 4q-16 0 -34 -3z" />
<glyph unicode="&#xb1;" horiz-adv-x="488" d="M25 22q19 -1 216 -4.5t211 -2.5h1q-4 23 -4.5 50t0.5 59.5t1 50.5h-422q-3 -27 -3 -153zM158 256q2 1 38.5 -0.5t71 -1.5t34.5 4v1q0 6 2.5 32.5t4 50.5t0.5 34q6 4 58.5 4.5t55.5 2.5q3 25 2.5 66t0.5 72q-16 3 -57.5 3t-57.5 1q-2 5 -2 29.5t0.5 48t-0.5 40.5 q-5 1 -71.5 -1t-66.5 5q0 -2 -1 -7.5t-2 -9.5q0 -4 -1.5 -20.5t-2.5 -26.5q-2 -54 -2 -60q-7 -2 -61.5 -6.5t-59.5 -3.5q0 -2 1.5 -28.5t2.5 -56t0 -42.5q0 -1 1 -2q5 -2 106 -9h2v-2q1 -10 1 -17q2 -23 1 -51t1 -46q0 -1 1 -2v-1zM147 237l-1 22v-1q-1 10 -1 49q0 27 -1 48 q0 6 3 9h-9q-84 3 -105 17q2 34 -3 110q-1 12 -1 38q15 -3 57 -1.5t65 4.5q0 18 1 32q0 2 0.5 9.5t0.5 10.5q0 5 0.5 16t1.5 16q1 6 1 16q0 2 1 6t1 6v14l1 11q22 -15 55 -15h47q39 2 59 0v-92v-27h39q52 0 79 -5q-1 -22 -1 -70q0 -49 -4 -84q-11 -8 -58 -8q-44 0 -54 -1 q1 -22 -5 -82q-2 -20 -2 -28q-5 -15 -53 -15q-10 0 -32.5 0.5t-32.5 0.5q-33 2 -49 -6zM13 9v13q0 120 4 164h445q0 -48 -1 -66q0 -5 -0.5 -19.5t-0.5 -20.5q0 -36 5 -75q-10 0 -117 1l-218 2q-111 1 -117 1z" />
<glyph unicode="&#xb2;" horiz-adv-x="256" d="M50 329l165 3h2q-1 3 -1 18q2 30 -3 41q-19 0 -53 -0.5t-54 -0.5q-5 3 5 27q11 14 39.5 27t49.5 29.5t23 44.5q0 15 -2 39q-2 53 -42 73q-22 10 -65.5 6t-58.5 -24q-34 -37 -22 -101v-1q25 -1 64 2v1q3 53 34 53q20 -2 22 -26.5t-16 -35.5q-10 -9 -43 -28.5t-49 -37.5 q-9 -14 -11.5 -30.5t-2.5 -42t-1 -34.5v-2h20zM224 321l-174 -3l-33 2q2 22 2 45q0 52 18 81q18 20 58 42l16 10q13 9 18 13q13 10 13 24q0 13 -11 19q-20 -2 -22 -52q-59 -4 -85 -1q-5 27 -5 39q0 46 27 78q25 31 87 31q31 0 51 -9q44 -22 49 -82q2 -22 2 -41 q-3 -31 -21.5 -48t-50.5 -31q-37 -18 -44 -28l2 2l-5 -10q8 0 22.5 0.5t21.5 0.5h60q9 -26 7 -54v-4q0 -13 -3 -24z" />
<glyph unicode="&#xb3;" horiz-adv-x="242" d="M38 343q2 -4 21 -11q23 -6 25 -6q48 -5 74 4q32 11 44 40q6 12 8 54q2 47 2 148q0 23 -8 33q-15 26 -55 35t-79 -5.5t-49 -48.5q-2 -7 -2 -42v-2q1 0 13 0.5t26.5 0.5t18.5 1q5 13 21 21.5t30.5 4.5t14.5 -23q1 -17 -9 -22.5t-29 -5.5t-25 -2v-1q1 -6 -0.5 -32.5 t3.5 -30.5q32 8 50 -7q20 -12 8 -37q-15 -17 -35 -9t-27 27h-1h-1q-10 0 -29 -2t-28 -2h-1q1 -11 2 -28t1 -20q5 -21 16 -32zM35 340q-14 11 -18 33q0 12 -2 24v32q10 -2 31 1q20 2 37 1q3 -11 14 -19.5t22 -8.5q9 0 18 9q3 4 3 13q0 13 -11 18q-7 6 -26 6q-13 0 -23 -3 q-8 15 -8 29q0 6 2 18v27q18 6 31 6q12 0 17.5 0.5t11.5 5.5t6 14q-1 19 -18 19q-13 0 -24.5 -8t-15.5 -19h-43h-25q0 1 -0.5 7t-0.5 8q-2 22 3 35q18 59 103 59q68 0 90 -39q8 -16 8 -36v-61q0 -62 -1 -88q-1 -4 -1 -12q-2 -32 -8 -43q-14 -33 -47 -44q-18 -5 -44 -5 q-24 0 -33 2q-8 0 -18 5q-1 1 -4 1q-3 1 -4 1q-13 3 -22 12z" />
<glyph unicode="&#xb4;" horiz-adv-x="255" d="M234 605l-66 67q-20 -16 -49 -44l-63 -64l-48 -48q14 -4 55.5 -5.5t72.5 1.5q5 9 25 28l43 38q23 20 29 26zM169 687l79 -83q-25 -25 -37 -35q-59 -52 -68 -67q-20 -3 -52 -3q-62 0 -104 10l60 62h-1q82 85 123 116z" />
<glyph unicode="&#xb9;" horiz-adv-x="214" d="M87 499l20 40q0 2 2 2v-1q0 -23 -3.5 -95.5t-2.5 -112.5v-1q4 0 16.5 -1t20.5 -1.5t17 0.5t13 4v1q-1 42 3 140t0 152q-46 2 -92 0l-5 -8l-10 -19l-12 -25q-8 -14 -14 -28l-12 -28q-6 -13 -9 -23.5t-2 -15.5h59h1q1 3 3 7t4 7zM95 459q0 5 0.5 15.5t0.5 16.5l-4 -8 q-1 -3 -12 -16q-19 -1 -75 -1v11q-4 16 29 82t42 78q7 0 25 0.5t26 0.5t28.5 -0.5t27.5 -0.5q3 -60 3 -70q0 -1 -3 -103q0 -16 -0.5 -47.5t-0.5 -47.5v-43q-18 -12 -64 -7q-2 0 -26 3q-1 49 3 137z" />
<glyph unicode="&#xba;" horiz-adv-x="254" d="M114 401q-5 1 -8 4t-4.5 6t-3 8t-2.5 7q-8 36 -2 92q2 27 5 31q7 10 15 11q17 6 25 -7q17 -22 12 -92q-2 -31 -5 -41q-6 -16 -17 -20q-7 -3 -15 1zM51 590q-27 -42 -21 -128q1 -25 2 -38.5t6 -33.5t18 -33t33 -21q15 -5 29 -5q55 -3 80.5 47t21.5 109q0 7 -2 50 q-8 40 -33 66.5t-65 25.5q-36 -1 -66 -35l-1 -2q-1 -2 -2 -2zM41 596q2 4 6 7q31 34 73 37q45 1 73 -28.5t36 -72.5v-5q4 -34 3 -47q4 -64 -25.5 -117.5t-89.5 -49.5q-15 0 -35 6q-39 15 -51 49.5t-13 85.5q-2 20 -2 37q0 60 25 98zM115 412l2 -1q6 -2 8 -1q7 2 11 14l-1 -1 q2 10 4 30v8q5 65 -9 86q-5 5 -16 2q-1 0 -8 -11l-1 -16v-5q-3 -24 -3 -43q0 -24 5 -43q0 -4 1 -5q4 -13 7 -14z" />
<glyph unicode="&#xbb;" horiz-adv-x="589" d="M32 93l10 -10l15 -15l49 -46l1 1q15 16 106 99t134 139q-22 27 -52 59l-69 72l-59 59q-52 54 -54 57q-11 -7 -36 -32.5t-37 -33.5q18 -24 80.5 -88t87.5 -95q-25 -22 -84 -80.5t-92 -85.5zM243 93l10 -10l15 -15q20 -20 49 -46l1 1q14 14 105.5 97.5t133.5 140.5 q-21 27 -51 59l-70 72l-58 59q-52 54 -54 57q-11 -7 -36 -32.5t-37 -33.5q19 -24 81 -88.5t87 -94.5q-25 -22 -84 -80.5t-92 -85.5zM245 74l-19 19q64 55 105 97q59 58 72 70q-34 41 -82 89q-71 75 -87 96q25 16 46 38q27 27 46 39q18 -22 32 -35q13 -15 28 -28l57 -58 q87 -87 129 -140q-49 -65 -161 -166l-94 -88q-32 29 -53 50l-19 18v-1zM35 74l-20 19q57 48 105 97q58 58 72 70q-40 49 -82 89q-71 75 -87 96q25 16 46 38q27 27 46 39q12 -15 32 -35q13 -15 28 -28l57 -58q87 -87 129 -140q-11 -15 -23 -29l-24 -27l-22 -23q-8 -9 -24 -24 l-22 -21l-24 -22l-21 -20q-38 -33 -95 -88q-32 29 -53 50l-18 18v-1z" />
<glyph unicode="&#xbc;" horiz-adv-x="631" d="M518 252l-1 -67v-1h-1q-2 0 -8 -0.5t-12 -0.5h-14q-6 0 -10 1h-4l14 20q13 21 24.5 36.5t11.5 11.5zM604 111l3 72q-1 0 -12.5 2t-14.5 0q-1 7 -1 166h-1h-24q-14 0 -33 -0.5t-20 -0.5l-102 -157q-2 -3 -3 -4v-1q-1 -44 5 -69v-1q1 -1 47.5 -1t50.5 -1l-1 -28v-48v-26 q69 0 72 3q0 1 0.5 5.5t1 10t0.5 12.5l2 15q0 7 1 14t1.5 13.5t1 11.5t0.5 7v3h1q4 1 12 0.5t12 1.5h1zM249 19q36 93 73 201l86 252l71 211v1q-4 6 -43.5 4t-44.5 0q-34 -129 -119.5 -365t-109.5 -311q5 1 41.5 0t41.5 0zM259 15v-1q-3 -5 -8 -11q-10 -4 -53 -2 q-25 2 -52 -4q40 126 99 286q100 276 137 419q15 -5 43 -3q51 2 67 -12l-65 -194q-96 -293 -168 -478zM619 195l-4 -92q-12 -5 -25 -5h-1h-1q0 -2 -0.5 -6t-0.5 -8q-5 -68 -6 -71q-10 -10 -61 -10h-29q-3 6 -3 99v4h-40q-54 0 -58 10q-6 25 -5 77q7 10 7 11l16 26l36 56 l51 76h19q48 2 76 0v-66q0 -95 1 -99q1 0 3 -0.5t4 -0.5q2 -1 21 -1zM505 193l2 36q-23 -36 -24 -37h14q5 1 8 1zM111 491l20 50q0 2 2 2v-1q0 -28 -3.5 -109t-2.5 -123v-2q3 0 14 -2l19 -2q7 -1 17 -1t17 2t10 7v2q-1 47 3 155.5t0 167.5q-51 4 -102 0q0 -2 -20 -39.5 t-38 -76.5t-16 -50h69h1q1 3 3 7t4 7zM119 451q0 5 0.5 15.5t0.5 16.5l-4 -8q-1 -3 -12 -16q-19 -1 -85 -1v11q-4 16 34 92t47 88q7 0 25 0.5t26 0.5t33.5 -0.5t32.5 -0.5q0 -10 1.5 -39.5t1.5 -40.5t-3 -113q0 -16 -0.5 -52.5t-0.5 -52.5v-53q-19 -12 -74 -7q-2 0 -26 3 q-1 53 3 157z" />
<glyph unicode="&#xbd;" horiz-adv-x="635" d="M405 13l181 2q2 0 2 1q-1 4 -1 21q0 38 -3 46q-14 0 -53.5 -1t-64.5 0q-6 3 5 28q13 15 44 29.5t53.5 33t25.5 48.5q1 16 -1 43q-5 58 -47 80q-24 13 -71 8t-65 -28q-37 -40 -24 -110v-1h1q22 -2 71 3v1q3 57 35 57q22 -2 25 -29t-16 -39q-12 -10 -48.5 -32t-54.5 -41 q-9 -15 -12 -32.5t-3 -47t-1 -39.5v-1h22zM249 19q36 93 73 201l86 252l71 211v1q-4 6 -43.5 4t-44.5 0q-34 -129 -119.5 -365t-109.5 -311q5 1 41.5 0t41.5 0zM259 15v-1q-3 -5 -8 -11q-10 -4 -53 -2q-25 2 -52 -4q40 126 99 286q95 257 137 419q15 -5 43 -3q51 2 67 -12 l-65 -194q-96 -293 -168 -478zM596 4l-191 -2l-34 1q2 23 2 45q0 61 18 92q21 24 63 48q30 19 43 29q10 5 10 22q0 21 -15 23q-21 -1 -23 -57q-58 -6 -92 -2q-5 30 -5 41q0 50 29 88q34 32 94 32q36 0 61 -11q42 -22 49 -88q1 -13 1 -45q-2 -23 -15.5 -40.5t-26 -25.5 t-36.5 -19q-35 -16 -47 -31q-9 -12 -6 -11h62q7 0 26.5 0.5t27.5 0.5q8 -17 8 -47v-16q0 -10 -3 -27zM111 491l20 50q0 2 2 2v-1q0 -28 -3.5 -109t-2.5 -123v-2q3 0 14 -2l19 -2q7 -1 17 -1t17 2t10 7v2q-1 47 3 155.5t0 167.5q-51 4 -102 0q0 -2 -20 -39.5t-38 -76.5 t-16 -50h69h1q1 3 3 7t4 7zM119 451q0 5 0.5 15.5t0.5 16.5l-4 -8q-1 -3 -12 -16q-19 -1 -85 -1v11q-4 16 34 92t47 88q7 0 25 0.5t26 0.5t33.5 -0.5t32.5 -0.5q0 -10 1.5 -39.5t1.5 -40.5t-3 -113q0 -16 -0.5 -52.5t-0.5 -52.5v-53q-19 -12 -74 -7q-2 0 -26 3q-1 53 3 157z " />
<glyph unicode="&#xbe;" horiz-adv-x="621" d="M43 321l3 -3q4 -2 9 -5t11 -5q3 -1 12 -3.5t14 -3.5q47 -4 78 4q34 12 48 44q6 12 8 56q1 51 1 158q0 24 -7 34q-16 28 -58.5 37.5t-84 -6t-52.5 -51.5q-2 -5 -2 -44v-1q53 0 63 1q6 14 22.5 22.5t31.5 4.5t15 -24q1 -18 -9.5 -24t-30.5 -6t-26 -2q1 -5 -1 -34t3 -32 q36 7 53 -7q10 -7 11.5 -19t-4.5 -22q-15 -18 -35.5 -10t-28.5 28h-1q-12 1 -32.5 -1t-29.5 -2q-1 0 -1 -1q1 -9 2 -25.5t3 -23.5q1 -19 15 -34zM516 252l-2 -67v-1h-1q-2 0 -8 -0.5t-13 -0.5h-12q-7 0 -11 1h-4q1 1 5 8q40 60 46 60zM602 111l2 72q-1 0 -12.5 2t-13.5 0 q-2 9 -2 166h-1h-23q-15 0 -33.5 -0.5t-19.5 -0.5l-103 -157q-1 -3 -2 -4v-1q-1 -48 4 -69v-1q1 -1 25 -1h45q22 0 29 -1l-1 -28v-48v-26q68 0 71 3q0 1 0.5 5.5t1 10t1.5 12.5v15l2 14t1.5 13.5t1 11.5t0.5 7v3h1q4 1 12.5 0.5t12.5 1.5h1zM239 19q37 94 72 195l89 264 l69 205v1q-4 6 -43.5 4t-44.5 0q-34 -129 -119.5 -365t-109.5 -311q6 1 42.5 0t40.5 0zM249 15v-1q-2 -5 -8 -11q-10 -4 -53 -2q-25 2 -52 -4q25 77 99 286q95 257 137 419q15 -5 43 -3q51 2 67 -12l-65 -194q-103 -312 -168 -478zM616 195l-4 -92q-12 -5 -25 -5h-1h-1 q0 -2 -0.5 -6t-0.5 -8q-1 -10 -2 -28.5t-2 -30t-1 -12.5q-11 -10 -61 -10h-30q-3 6 -3 99v4h-40q-53 0 -58 10q-6 25 -5 77q1 1 3 4q1 0 5 7l102 158h19q48 2 76 0v-66q0 -95 1 -99q2 0 4 -1h3q3 -1 21 -1zM502 193l2 36q-18 -29 -24 -37q1 0 8 -1t14 2zM36 313h-1 q-17 17 -18 39q0 2 -0.5 6t-1.5 10.5t-1 9.5t-0.5 17.5t-0.5 20.5q19 0 39 2q24 2 43 1q6 -15 21 -24.5t26 2.5v-1q8 16 -5 26q-12 7 -53 3q-9 21 -7 55q2 15 -1 32q21 6 37 6q31 2 31 17t-13 15q-10 0 -21.5 -8t-15.5 -19q-9 -1 -43.5 0.5t-38.5 2.5v17q-2 23 3 38l-1 -1 q10 34 42 52t72 18q32 0 60.5 -12.5t40.5 -34.5q11 -19 9 -40q0 -11 0.5 -33t0.5 -33q0 -32 -2 -92v-12q-2 -35 -9 -49q-15 -38 -55 -50q-21 -6 -50 -6q-14 0 -34 2q-11 3 -16 5l1 -1q-2 0 -5.5 1t-5.5 2q-15 5 -21 9z" />
<glyph unicode="&#xbf;" horiz-adv-x="449" d="M299 613l-108 1h-2v-1v-1q-5 -95 -5 -111q13 -7 56 -6t63 8q0 3 1 28t0.5 47.5t-2.5 34.5h-3zM301 388l2 36q0 17 -4 21h-1q-17 -1 -58.5 0t-58.5 -2v-1q2 -11 -4 -32q-15 -73 -47 -116q-9 -12 -28 -32t-29 -34q-39 -52 -45 -101q-10 -84 54.5 -140t152.5 -47 q78 3 130.5 62.5t57.5 135.5v1q-11 0 -38 1.5t-39 2t-39 -1.5q-11 -4 -20.5 -17t-16 -23t-21 -16.5t-33.5 3.5q-26 9 -33 26t2.5 39t22.5 41l32 44q18 24 24 36q23 35 37 114zM314 423l-2 -37q-11 -76 -39 -118q-4 -8 -31 -46q-51 -66 -51 -93q0 -18 29 -30q7 -3 12.5 -4 t10.5 1l7 3q3 1 8 6.5t6 6.5t6 8q14 24 36 32q24 2 38 2q15 0 45 -2q6 -1 23.5 -2t23.5 -1q-5 -81 -62 -147t-138 -74q-94 -7 -162 53t-57 147q6 53 46 106q9 13 34 38q2 2 24 28q32 47 45 112q5 22 1 41q44 6 80 4h56q11 -12 11 -34zM182 626l130 -1q4 -40 4 -60 q0 -9 -0.5 -23t-0.5 -19t-0.5 -15.5t-0.5 -12.5q-33 -12 -80 -12q-41 0 -62 10q0 17 4 81q2 37 6 52z" />
<glyph unicode="&#xc0;" horiz-adv-x="462" d="M270 286q-28 0 -72 2q5 36 10 61t9.5 37t8.5 17.5t9 -1t8.5 -14t8.5 -27t8 -34.5zM441 13l-72 338q-8 30 -40.5 173.5t-39.5 169.5q-36 -3 -64 -3.5t-34.5 0t-20.5 -1.5q-26 -87 -50 -185.5t-40 -179.5l-30 -149l-19.5 -112t-8.5 -49q1 -1 2 -1q37 1 72 0t44 -1.5t20 0.5 h1q1 1 2 1q8 12 16 64t21 65q52 -2 60 -3q23 -48 51 -124h1q74 -15 129 -3v1zM136 914l-66 -68h1q4 -4 47.5 -42.5t49.5 -50.5q33 -3 74 -1.5t56 4.5l-48 50l-64.5 64t-49.5 44zM54 846l82 84q33 -25 124 -118h-1l61 -62q-38 -11 -105 -11q-32 0 -52 3q-7 10 -70 68 q-1 1 -39 36zM343 517l113 -515q-37 -7 -65 -7q-40 0 -88 10q-28 74 -50 124q-15 2 -30 2h-18q-9 -15 -15 -61q-9 -52 -21 -69q-6 0 -7 -1h1q-8 -2 -35 0q-16 1 -64 1l-57 1q3 11 5.5 27t3.5 20q68 393 146 651q13 2 33 2q39 0 103 5l10 -41l18 -76zM217 299q24 -2 38 -2 q-22 96 -25 96q-4 0 -18 -94h5z" />
<glyph unicode="&#xc1;" horiz-adv-x="463" d="M263 286q-28 0 -72 2q17 116 32 117q12 1 30 -74q3 -15 10 -45zM434 12q-78 373 -151 680q-33 -1 -61 -1.5t-40 -0.5t-19 -1q-26 -87 -50 -185.5t-41 -179.5l-28 -149q-13 -67 -20.5 -112t-8.5 -49q28 0 83.5 -2t57.5 1q8 12 16 64t21 65q52 -2 60 -3q23 -48 51 -124 q75 -15 130 -3zM370 846l-67 68q-20 -16 -49.5 -44l-64.5 -64l-48 -50q15 -3 56 -4.5t74 1.5q5 9 24.5 27.5t43.5 39t30 26.5h1zM304 930l80 -84q-29 -29 -38 -36q-63 -58 -68 -68q-21 -3 -54 -3q-66 0 -105 11l61 62h-1q96 96 125 118zM446 14l-10 -14q-25 -5 -52 -5 q-41 0 -88 10q-28 74 -50 124q-15 2 -30 2h-18q-6 -10 -15 -61q-9 -52 -21 -69q-26 -2 -45 -2q-4 0 -14 0.5t-16 0.5q-38 2 -87 2q5 19 9 47q68 393 146 651q15 2 41 2q54 0 97 2q86 -370 153 -690zM210 299q24 -2 39 -2q-24 96 -26 96q-4 0 -18 -94h5z" />
<glyph unicode="&#xc2;" horiz-adv-x="464" d="M267 286q-28 0 -72 2q5 36 10 61t9.5 37t8.5 17.5t9 -1t8.5 -14t8.5 -27l9 -34.5zM438 13l-72 338q-8 30 -40.5 173.5t-39.5 169.5q-36 -3 -64 -3.5t-34.5 0t-20.5 -1.5q-26 -87 -50 -185.5t-41 -179.5l-28 -149q-13 -67 -20.5 -112t-8.5 -49q1 -1 2 -1q37 1 72 0 t44 -1.5t20 0.5h1l2 1q8 12 16 64t21 65q52 -2 60 -3q23 -48 51 -124h1q74 -15 129 -3v1zM385 758l-158 157q-8 -8 -40 -37l-45 -42q-13 -12 -34.5 -35t-36.5 -44q90 -4 103 -3q6 1 26.5 23t23.5 24q6 -3 25.5 -25t24.5 -22q32 -4 55.5 -2t39 4.5t16.5 1.5zM227 932 l166 -166l14 -15q2 -2 -14 -4h-10q-9 -1 -10 -1q-42 -6 -64 -6q-26 0 -37 2q-13 4 -33 28q-11 13 -15 15q-1 -1 -6 -5.5t-7 -6.5l-9 -9l-9 -10q-3 -4 -8 -7.5t-10 -4.5q-18 -1 -52 1q-25 2 -75 4q48 66 136 144zM377 354l76 -352q-37 -7 -65 -7q-40 0 -88 10q-28 74 -50 124 q-15 2 -30 2h-18q-6 -10 -15 -61q-9 -52 -21 -69q-5 0 -7 -1h1q-8 -2 -35 0q-16 1 -64 1l-57 1q3 11 5.5 27t3.5 20q68 393 146 651q13 2 33 2q39 0 103 5l10 -41l18 -76l17 -73q9 -42 37 -163zM214 299q24 -2 38 -2q-22 96 -25 96q-4 0 -18 -94h5z" />
<glyph unicode="&#xc3;" horiz-adv-x="476" d="M151 756v1q-7 22 0 39l3 6q13 21 49 21q21 -1 34 -22q12 -29 39.5 -41t59.5 -6q48 6 73.5 54.5t18.5 98.5v1q-1 2 -2 2q-79 -3 -80 -3q-7 -28 -28 -50.5t-46 -0.5q-8 5 -21.5 22.5t-24.5 24.5q-31 20 -67.5 14t-62.5 -33q-34 -38 -58 -125q89 3 113 -3zM272 286 q-28 0 -72 2q5 36 10 61t9.5 37t8.5 17.5t9 -1t8.5 -14t8.5 -27t8 -34.5zM443 13l-72 338q-8 30 -40.5 173.5t-39.5 169.5q-36 -3 -64 -3.5t-34.5 0t-20.5 -1.5q-26 -87 -50 -185.5t-40 -179.5l-30 -149l-19.5 -112t-8.5 -49q1 -1 2 -1q37 1 72 0t44 -1.5t20 0.5l2 1 q9 13 17 64.5t21 64.5q52 -2 60 -3q23 -48 51 -124h1q74 -15 129 -3v1zM382 354l76 -352q-38 -7 -65 -7q-40 0 -88 10q-29 77 -51 124q-14 2 -30 2h-17q-9 -15 -15 -61q-9 -52 -21 -69q-6 0 -7 -1q-6 -2 -34 0q-16 1 -64 1l-57 1l5 25q3 15 4 22q68 393 146 651q13 2 33 2 q39 0 103 5l10 -41l18 -76l17 -73q9 -42 37 -163zM219 299q24 -2 38 -2q-22 96 -25 96q-4 0 -18 -94h5zM164 744l-16 1q-17 4 -63 4l-63 -2q35 112 65 145q38 38 88 38q33 0 58 -18h-1q18 -11 29 -28l-1 1q16 -19 21 -21q16 -14 32.5 8t23.5 47q34 2 63 2q4 0 16.5 0.5 t17.5 0.5q4 0 5 -8v-5q7 -51 -21.5 -104.5t-79.5 -62.5q-36 -6 -67 8t-45 46l1 -1q-8 14 -24 17q-31 0 -39 -16v1l-2 -6v1q-6 -14 1 -34z" />
<glyph unicode="&#xc4;" horiz-adv-x="463" d="M254 761l94 -1h2v1v1q0 7 1.5 31.5t3 45t1.5 21.5q-13 7 -50.5 6.5t-54.5 -7.5q0 -2 -1 -24.5t-0.5 -42.5t2.5 -31h2zM86 761l94 -1h2v1v1q0 7 1.5 31.5t3 45t1.5 21.5q-14 7 -51.5 6.5t-54.5 -7.5q0 -2 -1 -24.5t-0.5 -42.5t2.5 -31h3zM267 286q-28 0 -72 2q5 36 10 61 t9.5 37t8.5 17.5t9 -1t8.5 -14t8.5 -27l9 -34.5zM438 13l-72 338q-8 30 -40.5 173.5t-39.5 169.5q-36 -3 -64 -3.5t-34.5 0t-20.5 -1.5q-26 -87 -50 -185.5t-41 -179.5l-28 -149q-13 -67 -20.5 -112t-8.5 -49q1 -1 2 -1q37 1 72 0t44 -1.5t20 0.5h1l2 1q8 12 16 64t21 65 q52 -2 60 -3q23 -48 51 -124h1q74 -15 129 -3v1zM377 354l76 -352q-37 -7 -65 -7q-40 0 -88 10q-28 74 -50 124q-15 2 -30 2h-18q-6 -10 -15 -61q-9 -52 -21 -69q-5 0 -7 -1h1q-8 -2 -35 0q-16 1 -64 1l-57 1q3 11 5.5 27t3.5 20q68 393 146 651q13 2 33 2q39 0 103 5 l10 -41l18 -76l17 -73q9 -42 37 -163zM214 299q24 -2 38 -2q-22 96 -25 96q-4 0 -18 -94h5zM190 749l-117 1q-4 36 -4 54q0 7 0.5 20t0.5 18q0 4 0.5 13.5t0.5 11.5q25 10 69 10q38 0 59 -9l-1 -9q0 -9 -1 -23t-1 -25q-1 -26 -6 -62zM358 749l-116 1q-5 30 -5 54q0 7 0.5 20 t0.5 18q0 4 0.5 13.5t0.5 11.5q25 10 70 10q37 0 59 -9v-9q-1 -9 -2 -23t-1 -25q-2 -35 -7 -62z" />
<glyph unicode="&#xc5;" horiz-adv-x="464" d="M267 286q-28 0 -72 2q5 36 10 61t9.5 37t8.5 17.5t9 -1t8.5 -14t8.5 -27l9 -34.5zM438 13l-72 338q-8 30 -40.5 173.5t-39.5 169.5q-36 -3 -64 -3.5t-34.5 0t-20.5 -1.5q-26 -87 -50 -185.5t-41 -179.5l-28 -149q-13 -67 -20.5 -112t-8.5 -49q1 -1 2 -1q37 1 72 0 t44 -1.5t20 0.5h1l2 1q8 12 16 64t21 65q52 -2 60 -3q23 -48 51 -124h1q74 -15 129 -3v1zM195 882q13 6 29 6q25 0 38 -13q5 -8 7 -22q1 -18 -5 -43q-5 -13 -42 -15h-9q-15 0 -24 9q-10 11 -10 42q0 7 2 17q3 11 14 19zM298 778q24 60 6 125q-19 26 -77 28q-51 4 -75 -20 q-8 -10 -11 -19q-11 -42 1 -110q12 -28 44 -28q27 -2 54 0q44 2 58 24zM309 774l-1 -2q-17 -27 -67 -29q-26 -3 -56 -1q-42 2 -54 37q-6 40 -6 67q0 30 5 49q2 10 13 24q28 27 85 23h-1q65 -2 87 -35q9 -29 9 -58q0 -39 -14 -75zM200 872l1 1q-8 -5 -9 -13v1q0 -3 -0.5 -8 t-0.5 -7q0 -26 5 -33q10 -6 17 -6h12q27 2 28 7l-1 -1q6 25 5 39q-2 11 -5 16l1 -1q-7 9 -29 9q-13 0 -24 -4zM377 354l76 -352q-37 -7 -65 -7q-40 0 -88 10q-28 74 -50 124q-15 2 -30 2h-18q-6 -10 -15 -61q-9 -52 -21 -69q-5 0 -7 -1h1q-8 -2 -35 0q-16 1 -64 1l-57 1 q3 11 5.5 27t3.5 20q68 393 146 651q13 2 33 2q39 0 103 5l10 -41l18 -76l17 -73q9 -42 37 -163zM214 299q24 -2 38 -2q-22 96 -25 96q-4 0 -18 -94h5z" />
<glyph unicode="&#xc6;" horiz-adv-x="755" d="M275 289q-3 -6 -30 -3t-34 1h-1h-1q6 60 31 132l1 -3q4 -13 11 -40l14 -48q6 -21 9 -39zM705 144q-43 3 -128.5 3.5t-121.5 2.5h-1q-13 26 -6 123q5 5 25.5 5.5t48 0.5t43.5 4q0 14 1.5 43t1.5 51t-4 40q-18 3 -59 3t-59 3q-6 15 -6 34.5t2 42.5t1 36q39 6 130.5 4.5 t128.5 8.5v2q0 15 1 43t1 51t-2 43v1v1q-25 1 -105 0.5t-209.5 -2.5t-210.5 -6l-47 -198l-32 -134l-20 -82q-10 -44 -12 -52t-6.5 -32.5t-6 -35.5t-7.5 -50l-15 -87q1 0 3 0.5t3 0.5q11 1 133 1l2 2q4 18 15.5 55t15.5 54l1 2h2q20 0 30 -0.5t12.5 -0.5t8 -0.5t16.5 -0.5v-1 q3 -20 13 -55t14 -52q56 -3 121.5 -3.5t150 1t125.5 1.5l2 2q11 60 6 124v3zM716 155v-13q1 -12 1 -38q0 -56 -10 -100q-94 0 -137 -1q-84 -2 -127 -2q-77 0 -152 5q-12 45 -14 52q-13 45 -15 54q-3 0 -6 0.5t-4 0.5h-39q-7 -21 -11 -37v1q-9 -29 -18 -66q0 -1 -5 -5t-6 -5 q-6 0 -21 0.5t-22 0.5q-5 0 -16 0.5t-17 0.5q-31 0 -59 -3h-9q-9 -1 -11 -1l10 59l8 54l6 32q9 64 50 233l76 317q200 9 475 9q58 0 71 -7q1 -16 1 -53v-48q-1 -15 -1 -56q-42 -10 -108 -10h-42h-35q-49 0 -73 -2q0 -2 -3 -32q-2 -22 -2 -31q0 -14 4 -30q16 -2 49 -2 q45 0 69 -4q6 -28 6 -59q0 -7 -0.5 -22t-0.5 -23q-1 -14 -1 -51q-28 -6 -76 -6q-34 0 -41 -1q-3 -54 -3 -58q0 -36 5 -47q18 -1 106 -1q76 0 148 -5zM241 298q12 -3 21 -2q-3 17 -19 71l1 -1q-4 10 -5 15q-11 -38 -15 -82q3 0 8.5 -0.5t8.5 -0.5zM251 415q-8 -21 -12 -34 q-6 16 -9 32l-1 6zM268 299l-5 -12q-1 3 -1 9z" />
<glyph unicode="&#xc7;" horiz-adv-x="491" d="M34 519q-7 -110 -3 -320v-9q2 -39 9 -71t21.5 -61.5t41.5 -43.5t65 -9v-3q-2 -15 -8 -40l-12 -46q-5 -20 -5 -25q0 -3 1 -3q9 -2 41 0t45 1v2q22 72 29 112l1 -1h2q64 3 111 46.5t59.5 102.5t-3.5 122q-16 5 -38.5 6t-52 -0.5t-35.5 -1.5q-1 -10 -1.5 -29t-2.5 -34.5 t-8 -27.5q-18 -37 -66 -33q-41 12 -52 70q-9 98 -2 253q2 26 20 43t44 15q7 0 10 -1q25 -5 34 -27t11 -54t7 -44h2q89 -12 128 -2h1l2 1q23 74 -9.5 153.5t-103.5 108.5q-45 15 -129 13q-63 2 -91 -16q-53 -45 -62 -137q-1 -3 -1 -10zM22 520q0 9 1 12q8 93 68 144 q31 20 97 18q85 2 133 -14q60 -24 94.5 -83.5t34.5 -128.5q0 -32 -12 -73l-3 -1h-5q-26 -6 -52 -6q-25 0 -71 6l-18 3q-9 21 -11 56q-1 20 -3 31.5t-9.5 23t-20.5 14.5q-3 1 -11 1q-21 1 -35 -13t-16 -35q-4 -84 -4 -126q0 -65 6 -125q9 -48 42 -59q40 -3 54 26q6 13 8 56 q0 20 3 41q4 0 18.5 0.5t20.5 0.5t20 0.5t22 0.5q38 0 64 -8q14 -44 14 -76q0 -81 -50.5 -144.5t-131.5 -70.5q-27 -105 -30 -115q-23 2 -49 0q-27 -2 -48 0q-10 1 -10 15q-1 11 10 53q10 35 12 48q-70 -2 -100.5 55t-34.5 143v9q-2 86 -2 148q0 103 5 173z" />
<glyph unicode="&#xc8;" horiz-adv-x="471" d="M444 143q-48 -1 -133 2t-120 3l-1 1q-8 79 0 121q5 5 25.5 5.5t47.5 0.5t44 5q0 7 1.5 68.5t-3.5 65.5v1l-119 3l-1 1q-6 5 -3.5 56.5t2.5 56.5l1 1h3q32 3 127.5 2.5t125.5 9.5v1q0 15 1.5 43t1.5 51t-3 43q-12 4 -144 2t-256 -7q-6 -100 -6.5 -206.5t2.5 -248.5t3 -208 q55 -4 121 -4t150 1.5t126 1.5q11 42 7 126v2zM170 914l-66 -68h1q4 -4 47.5 -42.5t49.5 -50.5q33 -3 74 -1.5t56 4.5l-48 50l-64.5 64t-49.5 44zM88 846l82 84q33 -25 124 -118h-1l61 -62q-38 -11 -105 -11q-32 0 -52 3q-7 10 -70 68q-1 1 -39 36zM456 155v-13q1 -14 1 -45 q0 -56 -11 -94q-100 0 -147 -1q-76 -2 -125 -2q-85 0 -146 6q0 12 -3 210q-3 219 -3 222q0 122 8 252q187 9 348 9q70 0 75 -14v1q2 -13 2 -43q0 -34 -1 -52q-1 -15 -1 -55q-50 -11 -115 -11q-8 0 -22 0.5t-22 0.5q-5 0 -17.5 0.5t-18.5 0.5q-32 0 -62 -3q0 -22 -1 -32 q-2 -26 -2 -37t2 -25q12 -1 70 -1q8 0 50 -3q5 -40 5 -61q0 -6 -0.5 -18t-0.5 -18q-1 -16 -1 -58q-27 -7 -78 -7q-36 0 -40 -1q-3 -19 -3 -44q0 -33 3 -59q1 0 100 -3q70 -2 105 -2h51z" />
<glyph unicode="&#xc9;" horiz-adv-x="474" d="M452 155v-13q1 -14 1 -45q0 -56 -11 -94q-100 0 -147 -1q-76 -2 -125 -2q-85 0 -146 6q0 12 -3 210q-3 219 -3 222q0 122 8 252q187 9 349 9q69 0 74 -14v1q2 -13 2 -43q0 -34 -1 -52q-1 -15 -1 -55q-50 -11 -115 -11q-8 0 -22 0.5t-22 0.5q-6 0 -18 0.5t-17 0.5 q-33 0 -63 -3q0 -22 -1 -32q-2 -26 -2 -37t2 -25q12 -1 70 -1q8 0 50 -3q5 -30 5 -61v-36q-1 -16 -1 -58q-28 -7 -79 -7q-36 0 -40 -1q-2 -26 -2 -44q0 -25 2 -59q1 0 100 -3q70 -2 105 -2h51zM310 930l80 -84q-29 -29 -38 -36q-63 -58 -68 -68q-21 -3 -54 -3q-66 0 -105 11 l61 62h-1q96 96 125 118zM376 846l-67 68q-20 -16 -49.5 -44l-64.5 -64l-48 -50q16 -3 56.5 -4.5t73.5 1.5q5 9 24.5 27.5t43.5 39t30 26.5h1zM440 143q-48 -1 -133 2t-120 3l-1 1q-8 79 0 121q5 5 25.5 5.5t47.5 0.5t44 5q0 7 1.5 68.5t-3.5 65.5v1l-119 3l-1 1 q-6 5 -3.5 56.5t2.5 56.5l1 1h3q32 3 127.5 2.5t125.5 9.5v1q0 15 1.5 43t1.5 51t-3 43q-12 4 -144 2t-256 -7q-6 -100 -6.5 -206.5t2.5 -248.5t3 -208q55 -4 121 -4t150 1.5t126 1.5q11 42 7 126v2z" />
<glyph unicode="&#xca;" horiz-adv-x="475" d="M443 143q-48 -1 -133 2t-120 3l-1 1q-8 79 0 121q5 5 25.5 5.5t47.5 0.5t44 5q0 7 1.5 68.5t-3.5 65.5v1l-119 3l-1 1q-6 5 -3.5 56.5t2.5 56.5l1 1h3q32 3 127.5 2.5t125.5 9.5v1q0 15 1.5 43t1.5 51t-3 43q-12 4 -144 2t-256 -7q-6 -100 -6.5 -206.5t2.5 -248.5t3 -208 q55 -4 121 -4t150 1.5t126 1.5q11 42 7 126v2zM397 758l-158 157l-40 -37l-45 -41l-35 -36t-37 -44q90 -4 104 -3q6 1 26.5 23t23.5 24q6 -3 25.5 -25t24.5 -22q32 -4 55.5 -2t39 4.5t16.5 1.5zM239 932l176 -176l-31 -10q-20 -6 -64 -6q-25 0 -36 2q-16 5 -33 28 q-11 13 -15 15q-4 -3 -13 -12q-3 -3 -9 -9.5t-10 -9.5l-8 -7q-4 -4 -9 -5q-19 -1 -52 1q-25 2 -75 4q48 66 136 144zM455 155v-13q1 -14 1 -45q0 -56 -11 -94q-100 0 -147 -1q-76 -2 -125 -2q-85 0 -146 6q0 12 -3 210q-3 219 -3 222q0 122 8 252q187 9 349 9q69 0 74 -14v1 q2 -13 2 -43q0 -34 -1 -52q-1 -15 -1 -55q-50 -11 -115 -11q-7 0 -22 0.5t-22 0.5q-5 0 -17.5 0.5t-18.5 0.5q-32 0 -62 -3q0 -22 -1 -32q-2 -26 -2 -37t2 -25q12 -1 70 -1q8 0 50 -3q5 -40 5 -61q0 -6 -0.5 -18t-0.5 -18q-1 -16 -1 -58q-27 -7 -78 -7q-37 0 -40 -1 q-2 -13 -2 -44q0 -42 2 -59q1 0 100 -3q70 -2 105 -2h51z" />
<glyph unicode="&#xcb;" horiz-adv-x="477" d="M273 762l94 -1h2v1v1q0 7 1.5 31.5t3 45t1.5 21.5q-14 7 -51.5 6.5t-54.5 -7.5q0 -2 -1 -24.5t-0.5 -42.5t2.5 -31h3zM105 762l93 -1h2v1v1q0 7 1.5 31.5t3 45t1.5 21.5q-13 7 -50.5 6.5t-54.5 -7.5q0 -2 -1 -24.5t-0.5 -42.5t2.5 -31h3zM445 143q-48 -1 -133 2t-120 3 l-1 1q-8 79 0 121q5 5 25.5 5.5t47.5 0.5t44 5q0 7 1.5 68.5t-3.5 65.5v1l-119 3l-1 1q-6 5 -3.5 56.5t2.5 56.5l1 1h3q32 3 127.5 2.5t125.5 9.5v1q0 15 1.5 43t1.5 51t-3 43q-12 4 -144 2t-256 -7q-6 -100 -6.5 -206.5t2.5 -248.5t3 -208q55 -4 121 -4t150 1.5t126 1.5 q11 42 7 126v2zM457 155v-13q1 -14 1 -45q0 -56 -11 -94q-100 0 -147 -1q-76 -2 -125 -2q-85 0 -146 6q0 12 -3 210q-3 219 -3 222q0 122 8 252q187 9 348 9q70 0 75 -14v1q2 -13 2 -43q0 -34 -1 -52q-1 -15 -1 -55q-50 -11 -115 -11q-7 0 -22 0.5t-22 0.5q-5 0 -17.5 0.5 t-18.5 0.5q-32 0 -62 -3q0 -22 -1 -32q-2 -26 -2 -37t2 -25q12 -1 70 -1q8 0 50 -3q5 -40 5 -61q0 -6 -0.5 -18t-0.5 -18q-1 -16 -1 -58q-27 -7 -78 -7q-37 0 -40 -1q-3 -19 -3 -44q0 -33 3 -59q1 0 100 -3q70 -2 105 -2h51zM208 750l-116 1q-5 30 -5 54q0 7 0.5 20t0.5 18 q0 4 0.5 13.5t0.5 11.5q25 10 70 10q37 0 59 -9v-9q-1 -9 -2 -23t-1 -25q-2 -35 -7 -62zM377 750l-117 1q-4 36 -4 54q0 7 0.5 20t0.5 18q0 4 0.5 13.5t0.5 11.5q25 10 69 10q38 0 59 -9v-9q-1 -9 -2 -23t-1 -25q-1 -26 -6 -62z" />
<glyph unicode="&#xcc;" horiz-adv-x="273" d="M244 692h-23q-25 0 -107 3q-3 0 -19 1.5t-20 0.5v-2q-12 -112 -5.5 -337.5t-2.5 -349.5q7 2 90 -1t86 9q-6 153 -6 223.5t3.5 225t3.5 223.5v4zM81 914l-67 -68h1q4 -4 47.5 -42.5t49.5 -50.5q33 -3 74 -1.5t56 4.5l-47 48l-65 66q-29 28 -49 44zM-2 846l83 84 q32 -25 123 -118h-1l61 -62q-38 -11 -105 -11q-32 0 -52 3q-7 10 -70 68q-1 1 -39 36zM221 704h35v-16q0 -70 -4 -212q-4 -146 -4 -231q0 -127 7 -232q-18 -18 -73 -18q-35 0 -51 1q-57 2 -78 -4q8 83 8 178q0 88 -3 177q-4 106 -4 165q0 98 10 195q13 3 36 1q7 -1 14 -1 q3 0 9 -0.5t9 -0.5q53 -3 89 -2z" />
<glyph unicode="&#xcd;" horiz-adv-x="301" d="M283 843l-66 68q-21 -16 -49 -43l-66 -66l-47 -49q15 -3 56 -4.5t74 1.5q6 12 49.5 50.5t47.5 42.5h1zM213 692h-24q-26 0 -106 3q-3 0 -19.5 1.5t-20.5 0.5v-2q-12 -111 -5 -337.5t-2 -349.5q7 2 89.5 -1t86.5 9q-6 152 -6 223.5t3.5 225.5t3.5 223v4zM189 704h35v-16 q0 -70 -4 -212q-3 -110 -3 -231q0 -142 6 -232q-17 -18 -72 -18q-35 0 -52 1q-57 2 -77 -4q8 83 8 178q0 88 -3 177q-4 106 -4 165q0 98 10 195q13 3 35 1q7 -1 15 -1q3 0 9 -0.5t8 -0.5q55 -3 89 -2zM217 927l81 -84q-29 -29 -38 -36q-63 -58 -69 -68q-20 -3 -53 -3 q-66 0 -105 11l61 62h-1q87 90 124 118z" />
<glyph unicode="&#xce;" horiz-adv-x="348" d="M249 692h-24q-26 0 -106 3q-3 0 -19.5 1.5t-20.5 0.5v-2q-12 -110 -5.5 -337.5t-2.5 -349.5q8 2 91 -1.5t86 9.5q-6 152 -6 223.5t3.5 225.5t3.5 223v4zM331 755l-158 157l-40 -36l-45 -42l-35 -36t-37 -44q90 -4 104 -3q6 1 26 23t24 24q6 -3 25.5 -25t24.5 -22 q32 -4 55.5 -2t39 4.5t16.5 1.5zM173 929l175 -175l-30 -11q-14 -6 -64 -6q-25 0 -36 2q-16 5 -33 28q-11 13 -15 15q-9 -7 -13 -12q-3 -3 -9 -9.5t-10 -9.5l-8 -7q-4 -4 -9 -5q-19 -1 -52 1q-25 2 -75 4q45 63 136 144zM225 704h35v-16q0 -70 -4 -212q-4 -146 -4 -231 q0 -127 7 -232q-17 -18 -72 -18q-35 0 -52 1q-57 2 -77 -4q8 83 8 178q0 88 -3 177q-4 106 -4 165q0 98 10 195q13 3 35 1q7 -1 15 -1q3 0 8.5 -0.5t8.5 -0.5q55 -3 89 -2z" />
<glyph unicode="&#xcf;" horiz-adv-x="316" d="M195 758l94 -1h2v1v1q0 7 1.5 31.5t3 45t1.5 21.5q-14 7 -51 6.5t-55 -7.5q0 -2 -1 -24.5t-0.5 -42.5t2.5 -31h3zM27 758l94 -1h2v1v1q5 90 5 98q-13 7 -50.5 6.5t-54.5 -7.5q0 -2 -1 -24.5t-0.5 -42.5t2.5 -31h3zM237 692h-23q-27 0 -107 3q-3 0 -19.5 1.5t-20.5 0.5v-2 q-12 -111 -5 -337.5t-2 -349.5q7 2 90 -1t86 9q-6 152 -6 223.5t3.5 225.5t3.5 223v4zM214 704h34v-16q0 -106 -3 -212q-4 -146 -4 -231q0 -119 6 -232q-17 -18 -72 -18q-35 0 -51 1q-58 2 -78 -4q8 83 8 178q0 88 -3 177q-4 106 -4 165q0 98 10 195q13 3 36 1q6 -1 14 -1 q3 0 9 -0.5t9 -0.5q53 -3 89 -2zM130 746l-116 1q-5 30 -5 54q0 7 0.5 20t0.5 18q0 4 0.5 13.5t0.5 11.5q26 10 70 10q38 0 59 -9v-9q-1 -9 -2 -23t-1 -25q-2 -35 -7 -62zM299 746l-116 1q-5 30 -5 54q0 7 0.5 20t0.5 18q0 4 0.5 13.5t0.5 11.5q25 10 69 10q38 0 59 -9 q0 -9 -2 -57q-2 -35 -7 -62z" />
<glyph unicode="&#xd1;" horiz-adv-x="501" d="M171 752q-7 22 0 39q2 9 14 19q26 8 34 8q24 0 38 -22q14 -32 49.5 -44t67.5 1q21 7 39 28q47 68 34 122q-1 2 -2 2q-13 0 -39.5 -0.5t-39.5 -1.5q-8 -29 -29 -51.5t-45 -0.5q-8 5 -22 22.5t-24 24.5q-32 20 -68.5 14t-62.5 -33q-29 -33 -58 -125q89 3 114 -2zM460 15 l1 13q-2 61 -2 176t-1 177l1 310q-14 4 -67 4t-84 -7v-3q-7 -37 -1 -116.5t-1 -98.5q-5 9 -41.5 68.5t-55 93t-21.5 45.5v1q-33 9 -74 12t-67 -6q-8 -96 -9 -210t1.5 -249.5t1.5 -211.5q0 -1 1 -1q20 3 79 -3t74 2q1 0 1 1q-5 123 5 284q60 -166 116 -289h1q22 4 51 0.5 t57.5 -3t33.5 10.5zM473 27l-1 -15q-10 -20 -48 -20q-5 0 -12 0.5t-16.5 1.5t-14.5 1q-39 3 -71 -2q-53 116 -102 248q-3 -67 -3 -137q0 -15 0.5 -49.5t0.5 -51.5q-31 -9 -43 -9q-19 0 -51 4q-48 6 -83 1v58q0 63 -2 191q-2 100 -2 167q0 140 11 277q23 11 56 11 q60 0 107 -18q5 -26 81 -150q15 -24 18 -30v4q0 25 -3 53q-2 22 -2 69q0 42 4 67q43 9 98 9q52 0 76 -6l-1 -320q1 -48 1 -165q0 -128 2 -189zM182 752l-14 -12q-17 4 -63 4l-63 -2q10 35 29 80.5t36 64.5q38 38 88 38q31 0 58 -18h-1q17 -11 29 -28l-1 1q2 -2 9 -10.5 t11 -10.5q16 -14 33 9t23 46q36 2 63 2q23 0 38 -3q15 -66 -34 -138q-17 -21 -45 -32q-21 -8 -41 -8q-67 0 -91 56l1 -1q-12 17 -28 17q-9 0 -27 -7q-9 -9 -11 -13q-6 -14 1 -34v-1z" />
<glyph unicode="&#xd2;" d="M320 419l2 -66v-46l-2 -50q-1 -13 -1 -27v-20q0 -5 -1.5 -13t-5.5 -14t-11 -15q-29 -33 -78 -29t-68 42q-6 19 -9 42t-5.5 51.5t-4.5 42.5q-3 92 9 159q13 42 46 67q35 28 75 14q46 -23 51 -83q0 -6 0.5 -13.5t0.5 -14.5t0.5 -13t1.5 -10v-4zM426 589q-12 35 -40 60 q-55 41 -135.5 45.5t-144.5 -28.5q-13 -9 -22 -17q-49 -58 -51 -166q-4 -72 5 -304q2 -67 23 -107q16 -35 48 -49t80 -19q57 -5 110 10q69 16 100 59q34 54 37 130q2 22 2 32q3 35 3 101t2 98q2 56 -2 95q-6 41 -15 60zM133 911l-67 -68h1q4 -5 47.5 -43t50.5 -50 q32 -3 73 -1.5t56 4.5l-47 49l-65 66q-29 27 -49 43zM50 843l83 84q32 -25 123 -118q41 -44 61 -62q-40 -11 -106 -11q-32 0 -52 3q-7 10 -70 68q-1 1 -39 36zM437 593v1q11 -25 16 -64q3 -30 3 -62q0 -6 -0.5 -18t-0.5 -17q-2 -32 -2 -93q0 -70 -3 -106l-3 -32 q-3 -79 -39 -136q-31 -43 -106 -64q-54 -15 -114 -10q-108 9 -138 75v-1q-22 40 -24 112q0 8 -0.5 28t-1.5 28q-5 92 -5 166q0 56 2 84q4 113 54 172q13 13 30 23q56 28 129 28q94 0 158 -48q32 -29 45 -66zM311 353l-2 66v5q-4 44 -4 49q-3 53 -44 73h1q-31 12 -65 -13v1 q-28 -22 -40 -61v1q-10 -51 -10 -111q0 -29 1 -45v1q4 -26 5 -44q6 -67 13 -91v2q17 -36 65 -36q40 0 61 26v-1q16 20 16 48q0 23 1 34q0 4 0.5 14t0.5 13q1 12 1 23v46z" />
<glyph unicode="&#xd3;" d="M385 843l-67 68q-20 -16 -48 -43l-66 -66l-47 -49q15 -3 56 -4.5t73 1.5q7 12 50.5 50t47.5 43h1zM314 419l2 -66v-46l-2 -50q-1 -13 -1 -27v-20q0 -5 -1.5 -13t-5.5 -14t-11 -15q-29 -33 -78 -29t-68 42q-6 19 -9 41.5t-6 52.5l-3 42q-5 89 8 159q13 41 46 67 q35 28 75 14q46 -23 51 -83q0 -9 1 -22.5t2 -23.5v-9zM420 589q-12 35 -40 60q-55 41 -135.5 45.5t-143.5 -28.5q-12 -7 -23 -17q-49 -58 -51 -166q-4 -72 5 -304q2 -67 23 -107q16 -35 48 -49t80 -19q57 -5 110 10q69 16 100 59q34 54 37 130q2 22 3 32q2 36 2.5 102 t1.5 97q2 56 -2 95q-3 35 -15 60zM431 593v1q11 -25 16 -64q3 -30 3 -62q0 -6 -0.5 -18t-0.5 -17q-2 -32 -2 -93q0 -70 -3 -106l-3 -32q-3 -78 -38 -136q-33 -44 -107 -64q-54 -15 -114 -10q-107 9 -138 75v-1q-22 40 -24 112q0 8 -0.5 28t-1.5 28q-5 92 -5 166q0 56 2 84 q4 113 55 172q11 12 29 23q56 28 129 28q95 0 158 -48q32 -29 45 -66zM305 353l-2 66v5q-4 44 -4 49q-3 53 -44 73h1q-32 12 -64 -13v1q-28 -22 -41 -61v1q-10 -51 -10 -111q0 -29 1 -45v1q4 -26 5 -44q6 -67 13 -91v2q17 -36 65 -36q40 0 61 26v-1q16 20 16 48q0 23 1 34 q0 4 0.5 14t0.5 13q1 12 1 23v46zM319 927l81 -84q-26 -26 -38 -36q-63 -58 -69 -68q-20 -3 -53 -3q-66 0 -106 11q20 18 61 62h-1q94 94 125 118z" />
<glyph unicode="&#xd4;" horiz-adv-x="474" d="M317 419l2 -66v-46l-2 -50q-1 -13 -1 -27v-20q0 -5 -1.5 -13t-5.5 -14t-11 -15q-29 -33 -78 -29t-68 42q-6 19 -9 41.5t-5 52.5l-4 42q-5 89 8 159q13 42 46 67q35 28 75 14q46 -23 51 -83q0 -9 1 -22.5t1 -23.5zM423 589q-12 35 -40 60q-55 41 -135.5 45.5t-143.5 -28.5 q-12 -7 -23 -17q-49 -58 -51 -166q-4 -72 5 -304q2 -67 23 -107q16 -35 48 -49t80 -19q57 -5 110 10q69 16 100 59q34 54 37 130q2 22 3 32q2 33 2 99t2 100q2 56 -2 95q-3 35 -15 60zM397 755l-158 157l-40 -36l-45 -42l-35 -36t-37 -44q90 -4 104 -3q5 1 25.5 22.5 t24.5 24.5q5 -3 16 -15l20 -22q10 -10 13 -10q32 -4 56 -2t39.5 4.5t16.5 1.5zM239 929l177 -176l-32 -10q-20 -6 -64 -6q-25 0 -36 2q-16 5 -33 28q-11 13 -15 15q-9 -7 -13 -12q-3 -3 -9 -9.5t-10 -9.5l-8 -7q-4 -4 -9 -5q-19 -1 -53 1q-22 2 -74 4q43 61 135 144z M434 593v1q11 -25 16 -64q3 -30 3 -62q0 -6 -0.5 -18t-0.5 -17q-2 -32 -2 -93q0 -70 -3 -106l-3 -32q-3 -78 -38 -136q-33 -44 -107 -64q-54 -15 -114 -10q-107 9 -138 75v-1q-22 40 -24 112q0 8 -0.5 28t-1.5 28q-5 92 -5 166q0 56 2 84q4 113 55 172q11 12 29 23 q56 28 129 28q93 0 158 -48q32 -29 45 -66zM308 353l-2 66v5q-4 44 -4 49q-3 53 -44 73h1q-32 12 -64 -13v1q-28 -22 -41 -61v1q-10 -51 -10 -111q0 -29 1 -45v1q4 -26 5 -44q6 -67 13 -91v2q17 -36 65 -36q40 0 61 26v-1q16 20 16 48q0 23 1 34q0 4 0.5 14t0.5 13 q1 12 1 23v46z" />
<glyph unicode="&#xd5;" horiz-adv-x="482" d="M155 743v1q-7 20 0 38q3 8 14 19q23 9 34 9q23 0 38 -23q14 -32 49.5 -43.5t67.5 1.5q22 7 39 27q47 69 35 123q-1 2 -2 2q-79 -3 -80 -3q-7 -28 -28 -50.5t-46 -0.5q-8 5 -21.5 22t-24.5 24q-31 20 -67.5 14t-62.5 -32q-34 -38 -58 -125q89 3 113 -3zM321 419l2 -66v-46 l-2 -50q-1 -15 -1 -32t-1 -23t-4.5 -14.5t-12.5 -19.5q-29 -33 -78 -29t-68 42q-6 19 -9 42t-5.5 51.5t-4.5 42.5q-4 98 9 159q13 42 46 67q35 28 75 14q47 -23 50 -83q0 -9 1 -22.5t2 -23.5zM427 589q-12 35 -40 60q-55 41 -135.5 45.5t-144.5 -28.5q-13 -9 -22 -17 q-49 -56 -51 -166q-4 -72 5 -304q2 -67 23 -107q16 -35 47.5 -49t80.5 -19q57 -5 110 10q69 16 100 59q34 54 37 130q0 5 0.5 16t1.5 16q3 35 3 101t2 98q2 56 -2 95q-6 41 -15 60zM438 593v1q11 -25 16 -64q3 -30 3 -62q0 -6 -0.5 -18t-0.5 -17q-2 -32 -2 -93 q0 -70 -3 -106l-3 -32q-3 -79 -39 -136q-31 -43 -106 -64q-54 -15 -114 -10q-108 9 -138 75v-1q-22 40 -24 112q0 8 -0.5 28t-1.5 28q-5 92 -5 166q0 56 2 84q4 113 54 172q13 13 30 23q56 28 129 28q93 0 158 -48q32 -29 45 -66zM312 353l-2 66v5q-4 44 -4 49q-3 53 -44 73 h1q-31 12 -65 -13v1q-28 -22 -40 -61v1q-10 -51 -10 -111q0 -29 1 -45v1q4 -26 5 -44q6 -68 12 -91v2q19 -36 66 -36q40 0 61 26v-1q16 20 16 48q0 23 1 34q0 4 0.5 14t0.5 13q1 12 1 23v46zM166 743l-14 -12q-17 4 -63 4l-63 -2q35 112 65 145q36 38 88 38q32 0 58 -17h-1 q15 -10 29 -28l-1 1q18 -20 21 -22q16 -14 32.5 8t23.5 47q34 2 63 2q22 0 37 -3q16 -67 -33 -138q-19 -22 -46 -32q-21 -8 -41 -8q-65 0 -91 56h1q-11 16 -28 16q-8 0 -27 -7q-9 -9 -10 -12q-5 -15 0 -34v-2z" />
<glyph unicode="&#xd6;" horiz-adv-x="477" d="M276 758l94 -1h2v1v1q5 90 5 98q-13 7 -50.5 6.5t-54.5 -7.5q0 -2 -1 -24.5t-0.5 -42.5t2.5 -31h3zM107 758l94 -1h2v1v1q0 7 1.5 31.5t3 45t1.5 21.5q-13 7 -50.5 6.5t-54.5 -7.5q0 -2 -1 -24.5t-0.5 -42.5t2.5 -31h2zM319 419l2 -66v-46l-2 -50q-1 -13 -1 -27v-20 q0 -5 -1.5 -13t-5.5 -14t-11 -15q-29 -33 -78 -29t-68 42q-6 19 -9 42t-5.5 51.5t-4.5 42.5q-3 92 9 159q13 42 46 67q35 28 75 14q46 -23 51 -83v-14l2 -14v-13v-10zM425 589q-12 35 -40 60q-55 41 -135.5 45.5t-144.5 -28.5q-13 -9 -22 -17q-49 -58 -51 -166 q-4 -72 5 -304q2 -67 23 -107q16 -35 48 -49t80 -19q57 -5 110 10q69 16 100 59q34 54 37 130q2 22 2 32q3 35 3 101t2 98q2 56 -2 95q-6 41 -15 60zM436 593v1q11 -25 16 -64q3 -30 3 -62q0 -6 -0.5 -18t-0.5 -17q-2 -32 -2 -93q0 -70 -3 -106l-3 -32q-3 -79 -39 -136 q-31 -43 -106 -64q-54 -15 -114 -10q-108 9 -138 75v-1q-22 40 -24 112q0 8 -0.5 28t-1.5 28q-5 92 -5 166q0 56 2 84q4 113 55 172q11 12 29 23q56 28 129 28q93 0 158 -48q32 -29 45 -66zM310 353l-2 66v5q-4 44 -4 49q-3 53 -44 73h1q-31 12 -65 -13v1q-28 -22 -40 -61v1 q-10 -51 -10 -111q0 -29 1 -45v1q4 -26 5 -44q6 -67 13 -91v2q17 -36 65 -36q40 0 61 26v-1q16 20 16 48q0 23 1 34q0 4 0.5 14t0.5 13q1 12 1 23v46zM211 746l-116 1q-5 30 -5 54q0 7 0.5 20t0.5 18q0 4 0.5 13.5t0.5 11.5q25 10 70 10q36 0 59 -9l-1 -9q0 -9 -1 -23 t-1 -25q-2 -35 -7 -62zM379 746l-116 1q-5 30 -5 54q0 7 0.5 20t0.5 18q0 4 0.5 13.5t0.5 11.5q26 10 70 10q38 0 59 -9l-1 -9q0 -9 -1 -23t-1 -25q-2 -35 -7 -62z" />
<glyph unicode="&#xd8;" horiz-adv-x="482" d="M317 390q0 -12 3.5 -47.5t2.5 -73.5t-10 -76q-13 -40 -85 -56l-1 1q11 29 43 123t47 133v-4zM141 282q-4 11 2 78q1 8 3 22q3 21 6 62t6 61q8 19 27 34.5t39 17.5h7v-1q-15 -50 -47 -145zM441 432q10 142 -43 204q-2 11 7.5 34t9.5 35q-10 7 -35 7.5t-48.5 -2t-46.5 0.5 h-1q-6 0 -7 -10t-3 -11q-122 13 -174 -29l-3 -3q-21 -20 -39 -57q-10 -19 -14 -41.5t-5 -54t-2 -43.5q-14 -228 25 -382v-1l1 -1l-1 -1v-1q-31 -73 -25 -85q12 1 68.5 0t59.5 3h-1l1 1q12 11 12 15h1h1q16 2 52.5 2.5t54.5 2.5q52 4 89.5 38t49.5 85q5 28 8.5 56t5 63 t2 54.5t0.5 63.5v57zM453 431v-45q0 -163 -16 -250q-13 -54 -54 -90t-96 -43q-17 -2 -57 -2q-30 0 -46 -2q-5 -7 -15 -15q-14 -4 -50 -4h-29q-45 0 -61 -1q-7 17 21 98q-29 119 -29 263q0 68 4 123q1 6 1.5 19t0.5 19q2 71 20 106v-1q16 34 42 60l4 4q45 35 125 35 q17 0 47 -2q0 20 21 20q16 -2 56 0q5 0 16.5 0.5t16.5 0.5q33 0 52 -13q0 -19 -11 -45q-7 -16 -7 -26q46 -58 46 -157q0 -18 -2 -52zM156 368l13 34q19 55 45 140q-30 -12 -45 -41q-2 -12 -3 -32.5t-2 -26.5q-1 -25 -7 -62q-1 -3 -1 -12zM312 281q0 31 -3 58 q-22 -60 -30 -85q-16 -44 -34 -100q48 17 57 42l3 12q7 32 7 73z" />
<glyph unicode="&#xd9;" horiz-adv-x="481" d="M445 660q-11 6 -31.5 8t-37 0.5t-41 -4t-31.5 -2.5q-1 -51 -3 -216t-6 -252q-5 -29 -30.5 -42t-52.5 -3t-36 40q-18 240 -9 475v1q-13 4 -33 6t-33 1l-39 -1q-25 -1 -31 -1h-1l1 -1q1 -95 -1.5 -271.5t-2.5 -243.5q4 -83 80.5 -124t167.5 -32q68 7 109 50.5t50 109.5 q24 224 11 501v1zM150 911l-67 -68h1q6 -6 30 -27l43 -38q20 -19 25 -28q33 -3 73.5 -1.5t56.5 4.5l-48 49q-35 37 -64.5 65t-49.5 44zM68 843l82 84q24 -18 124 -118h-1q41 -44 61 -62q-38 -11 -106 -11q-31 0 -52 3q-12 16 -70 68q-16 14 -38 36zM457 668v-8 q5 -103 5 -188q0 -170 -17 -316q-9 -68 -53.5 -115t-115.5 -55q-9 -1 -31 -1q-89 0 -157.5 43.5t-72.5 124.5q0 73 2 221q2 146 2 239v68q4 0 17.5 0.5t18.5 0.5q30 2 49 2q39 0 75 -12q-4 -108 -4 -173q0 -140 13 -309v2q10 -35 46 -35q42 0 50 39v-1q3 92 5 280 q3 183 3 187l12 12l27 3q25 3 62 3q42 0 64 -12z" />
<glyph unicode="&#xda;" horiz-adv-x="482" d="M392 843l-67 68q-20 -16 -49 -43l-65 -66l-47 -49q15 -3 56 -4.5t73 1.5q7 12 50.5 50t47.5 43h1zM440 660q-11 6 -31.5 8t-37 0.5t-41 -4t-31.5 -2.5q-1 -51 -3 -216t-6 -252q-5 -29 -30.5 -42t-52.5 -3t-36 40q-18 245 -8 475v1q-14 4 -33.5 6t-33.5 1l-38 -1 q-26 -1 -32 -1h-1l1 -1q1 -95 -1.5 -271.5t-2.5 -243.5q4 -83 80.5 -124t167.5 -32q68 7 109 50.5t50 109.5q24 224 11 501v1zM452 668v-8q5 -103 5 -188q0 -170 -17 -316q-9 -68 -53.5 -115t-115.5 -55q-9 -1 -31 -1q-89 0 -157.5 43.5t-71.5 124.5q0 73 2 221 q0 36 0.5 119t0.5 120v68q4 0 18 0.5t18 0.5q30 2 49 2q39 0 75 -12q-4 -108 -4 -173q0 -140 13 -309v2q10 -35 46 -35q18 0 32 10t18 29v-1q4 92 6 280q0 127 2 187l12 12l20 2q5 1 7 1q27 3 62 3q44 0 64 -12zM326 927l80 -84q-14 -17 -37 -36q-63 -58 -69 -68 q-20 -3 -53 -3q-66 0 -106 11q20 18 61 62h-1q96 96 125 118z" />
<glyph unicode="&#xdb;" horiz-adv-x="484" d="M444 660q-11 6 -31.5 8t-37 0.5t-41 -4t-31.5 -2.5q-1 -51 -3 -216t-6 -252q-5 -29 -30.5 -42t-52.5 -3t-36 40q-18 240 -9 475v1q-13 4 -33 6t-33 1l-38 -1q-26 -1 -32 -1h-1l1 -1q1 -95 -1.5 -271.5t-2.5 -243.5q4 -83 80.5 -124t167.5 -32q68 7 109 50.5t50 109.5 q24 224 11 501v1zM388 755l-158 157q-8 -8 -40 -37l-45 -41l-34.5 -36t-36.5 -44q90 -4 103 -3q6 1 26.5 23t23.5 24q6 -3 25.5 -25t24.5 -22q32 -4 55.5 -2t39 4.5t16.5 1.5zM230 929l176 -176l-30 -10q-20 -6 -64 -6q-25 0 -37 2q-13 4 -33 28q-11 13 -15 15 q-1 -1 -6 -5.5t-7 -6.5q-3 -3 -9 -10l-9 -10q-3 -3 -8 -6.5t-10 -4.5q-18 -1 -52 1q-25 2 -75 4q48 66 136 144zM456 668v-8q5 -103 5 -188q0 -170 -17 -316q-9 -68 -53.5 -115t-115.5 -55q-9 -1 -31 -1q-90 0 -158 43.5t-71 124.5q0 147 1 221q2 146 2 239v68q4 0 17.5 0.5 t18.5 0.5q30 2 49 2q39 0 75 -12q-4 -108 -4 -173q0 -140 13 -309v2q10 -35 46 -35q18 0 32 10t18 29v-1q3 62 5 280q3 183 3 187l12 12l27 3q26 3 62 3q42 0 64 -12z" />
<glyph unicode="&#xdc;" horiz-adv-x="486" d="M445 660q-11 6 -31.5 8t-37 0.5t-41 -4t-31.5 -2.5q-1 -51 -3 -216t-6 -252q-5 -29 -30.5 -42t-52.5 -3t-36 40q-18 240 -9 475v1q-13 4 -33 6t-33 1l-39 -1q-25 -1 -31 -1h-1l1 -1q1 -95 -1.5 -271.5t-2.5 -243.5q4 -83 80.5 -124t167.5 -32q68 7 109 50.5t50 109.5 q24 224 11 501v1zM271 758l94 -1h2v1v1q0 7 1.5 31.5t3 45t1.5 21.5q-14 7 -51.5 6.5t-54.5 -7.5q0 -2 -1 -24.5t-0.5 -42.5t2.5 -31h3zM103 758l94 -1h1v1v1q0 7 1.5 31.5t3 45t1.5 21.5q-13 7 -50.5 6.5t-54.5 -7.5q0 -2 -1 -24.5t-0.5 -42.5t2.5 -31h3zM206 746l-116 1 q-5 30 -5 54q0 7 0.5 20t0.5 18q0 4 0.5 13.5t0.5 11.5q25 10 70 10q37 0 59 -9v-9q-1 -9 -2 -23t-1 -25q-2 -35 -7 -62zM375 746l-117 1q-4 36 -4 54q0 7 0.5 20t0.5 18q0 4 0.5 13.5t0.5 11.5q25 10 69 10q38 0 59 -9v-9q-1 -9 -2 -23t-1 -25q-2 -41 -6 -62zM457 668v-8 q5 -103 5 -188q0 -170 -17 -316q-9 -68 -53.5 -115t-115.5 -55q-9 -1 -31 -1q-89 0 -157.5 43.5t-72.5 124.5q0 73 2 221q2 146 2 239v68q4 0 17.5 0.5t18.5 0.5q30 2 49 2q39 0 75 -12q-4 -108 -4 -173q0 -140 13 -309v2q10 -35 46 -35q42 0 50 39v-1q3 92 5 280 q3 183 3 187l12 12l27 3q25 3 62 3q42 0 64 -12z" />
<glyph unicode="&#xdd;" horiz-adv-x="455" d="M377 843l-67 68q-20 -16 -48 -43l-66 -66l-47 -49q15 -3 56 -4.5t74 1.5q6 12 49.5 50.5t47.5 42.5h1zM438 679q-47 8 -135 -4l-2 -1q-45 -107 -77 -166q-32 64 -57 168q-17 7 -43 7.5t-59 -2.5t-45 -3q13 -54 60 -165t61 -168v-2l-41 -105l-50 -128q-20 -53 -35 -100h2 q22 -1 71 1t67 0q36 106 141 326t142 341v1zM450 688l-1 -14q-37 -118 -147 -352q-97 -200 -140 -324q-23 3 -74 1q-47 -2 -88 0q24 72 102 277q22 52 27 68q-11 50 -60 167q-45 101 -64 178q8 0 56 3t52 3q36 0 65 -11q25 -104 46 -150q17 32 71 151q65 7 107 7q32 0 48 -4 zM311 927l81 -84q-29 -29 -38 -36q-63 -58 -69 -68q-20 -3 -53 -3q-66 0 -105 11l61 62h-1q87 90 124 118z" />
<glyph unicode="&#xe0;" horiz-adv-x="333" d="M194 202q-20 0 -50 2q6 39 11 58t9.5 22.5t10 -10t9.5 -28.5t10 -44zM312 13l-49 234q-6 22 -28.5 120.5t-27.5 116.5q-25 -2 -44 -2.5t-23.5 0t-14.5 -0.5q-18 -60 -34.5 -128t-28 -124.5t-20 -103t-13.5 -78t-6 -33.5l1 -1q26 1 50 0.5t30 -1t14 0.5h1q6 9 12 45t15 45 q10 -1 14 -0.5t10.5 0t16.5 -1.5q15 -30 35 -86q52 -9 90 -2zM99 657l-44 -49q3 -3 20 -17t30.5 -26.5t17.5 -19.5q60 -6 88 3q-10 9 -33.5 34t-44 44.5t-34.5 30.5zM39 608l58 64q36 -27 89 -82h-1q7 -6 24 -24t22 -22q-36 -12 -75 -12q-18 0 -39 3q-6 8 -15 16l-20 18 q-11 10 -17 15q-3 3 -9 8l-11 10zM274 249l51 -244q-28 -7 -49 -7q-28 0 -61 7q-4 9 -16 39.5t-19 46.5q-6 1 -18 1h-11q-5 -12 -9 -40q-6 -32 -19 -48q-7 -3 -29 -3q-9 1 -39 0t-43 -1l1 17q1 2 1.5 9t0.5 10q44 266 101 454q14 3 25 3q39 0 75 3q8 -28 32 -135l14 -61 q9 -41 12 -51zM13 18v-1v1zM158 215q7 -1 22 -1l-14 59q-4 0 -4 -7q0 -22 -4 -51z" />
<glyph unicode="&#xe1;" horiz-adv-x="331" d="M256 608l-45 49q-14 -11 -34.5 -30.5t-44 -44.5t-33.5 -34q30 -9 88 -3q6 9 69 63zM185 202q-18 0 -50 2q6 39 11.5 58t9.5 22.5t10 -10.5t9 -28t10 -44zM303 13l-49 234q-6 22 -28.5 120.5t-27.5 116.5q-25 -2 -44 -2.5t-23.5 0t-14.5 -0.5q-18 -60 -34.5 -128 t-28 -124.5t-20 -103t-13.5 -78t-6 -33.5l1 -1q26 1 50 0.5t30 -1t14 0.5h2q6 9 11.5 45t14.5 45q10 -1 14 -0.5t10.5 0t16.5 -1.5q9 -20 36 -86q52 -9 89 -2zM265 249l52 -244q-28 -7 -50 -7q-28 0 -61 7q-19 49 -35 86q-6 1 -17 1h-12q-6 -14 -8 -40q-6 -31 -20 -48 q-6 -3 -29 -3q-8 1 -39 0t-44 -1l2 17q0 1 1 8t2 11q38 249 100 454q14 3 26 3q38 0 74 3q8 -28 32 -135l14 -61q9 -41 12 -51zM4 18v-1v1zM149 215q7 -1 22 -1l-14 59q-3 0 -3 -7q-1 -22 -5 -51zM213 672l58 -64l-11 -11q-10 -10 -15 -13q-49 -45 -51 -49q-22 -3 -39 -3 q-40 0 -76 12l46 46h-1q53 55 89 82z" />
<glyph unicode="&#xe2;" horiz-adv-x="332" d="M258 549l-96 95q-6 -6 -24 -22t-26 -24l-22 -23q-13 -14 -22 -26q55 -3 63 -2q2 0 8 6l13 13q6 7 8 9q4 -3 11 -10t12 -12.5t7 -5.5q19 -2 33.5 -1t24 2.5t10.5 0.5zM189 202q-18 0 -50 2q6 39 11 58t9.5 22.5t10 -10t9.5 -28.5t10 -44zM307 13l-49 234 q-6 22 -28.5 120.5t-27.5 116.5q-25 -2 -44 -2.5t-23.5 0t-14.5 -0.5q-18 -60 -34.5 -128t-28 -124.5t-20 -103t-13.5 -78t-6 -33.5l1 -1q26 1 50 0.5t30 -1t14 0.5h2q6 9 11.5 45t14.5 45q10 -1 14 -0.5t10.5 0t16.5 -1.5q9 -20 36 -86q52 -9 89 -2zM269 249l52 -244 q-28 -7 -50 -7q-28 0 -61 7q-4 9 -16 39.5t-19 46.5q-6 1 -18 1h-11q-5 -12 -9 -40q-4 -29 -19 -48q-6 -3 -29 -3q-8 1 -38.5 0t-43.5 -1l1 17q0 1 1 8t2 11q38 249 100 454q14 3 25 3q39 0 75 3q8 -28 32 -135l14 -61q9 -41 12 -51zM8 18v-1v1zM153 215q7 -1 22 -1l-14 59 q-3 0 -3 -7q-1 -22 -5 -51zM163 659l116 -113q-6 -4 -12.5 -6t-10.5 -2l-5 -1q-33 -5 -63 -1q-7 1 -13 8q-3 5 -6 7q-6 7 -9 9l-3 -4q-13 -16 -22 -20q-12 -1 -36 0q-4 1 -26 2t-27 1q36 47 91 98z" />
<glyph unicode="&#xe3;" horiz-adv-x="345" d="M111 539q-3 25 3 32q19 15 38 10q4 -1 14 -15q7 -17 25 -24.5t37 -4.5q31 5 47 36t12 61q0 2 -2 2q-33 0 -49 -2q-7 -19 -20 -32t-27 -1q-6 4 -14.5 15.5t-15.5 15.5q-19 12 -42.5 8.5t-40.5 -21.5q-19 -22 -37 -78q57 3 72 -2zM195 202q-20 0 -50 2q6 39 11 58t9.5 22.5 t10 -10t9.5 -28.5t10 -44zM313 13l-50 234q-3 14 -26 115.5t-29 121.5q-25 -2 -44 -2.5t-23.5 0t-14.5 -0.5q-18 -60 -34.5 -128t-28 -124.5t-20 -103t-13.5 -78t-6 -33.5l1 -1q26 1 50 0.5t29.5 -1t13.5 0.5h2q6 9 12 45t15 45q10 -1 14 -0.5t10.5 0t16.5 -1.5 q15 -30 35 -86q52 -9 90 -2zM275 249l51 -244q-28 -7 -49 -7q-28 0 -61 7q-33 80 -36 86q-6 1 -17 1h-11q-5 -12 -9 -40q-6 -32 -19 -48q-8 -3 -29 -3q-9 1 -39 0t-43 -1l1 17q0 12 2 19q44 266 101 454q14 3 25 3q38 0 75 3q8 -28 32 -135l14 -61q9 -41 12 -51zM14 18v-1v1 zM159 215q7 -1 21 -1l-13 59q-3 0 -4 -7q0 -22 -4 -51zM123 525l-15 2q-10 3 -34 3l-50 -2q23 74 38 93q32 32 66 32q22 0 36 -11q7 -4 16 -16t15 -16q9 -7 18.5 6t14.5 29q32 4 70 0q5 -36 -14.5 -74t-53.5 -46q-21 -2 -41.5 6t-29.5 24q-7 16 -17 15q-12 -2 -19 -9 q-6 -8 -1 -23q1 -4 1 -13z" />
<glyph unicode="&#xe4;" horiz-adv-x="334" d="M189 552l66 -1h2v1q0 6 1 23t2 31l1 15q-10 5 -36.5 4.5t-38.5 -5.5q0 -64 1 -68h2zM71 552l65 -1h1v1q5 65 5 69q-9 5 -35.5 4.5t-38.5 -5.5q0 -64 1 -68h2zM190 202q-18 0 -50 2q6 39 11 58t9.5 22.5t10 -10t9.5 -28.5t10 -44zM308 13l-49 234q-6 22 -28.5 120.5 t-27.5 116.5q-25 -2 -44 -2.5t-23.5 0t-14.5 -0.5q-18 -60 -34.5 -128t-28 -124.5t-20 -103t-13.5 -78t-6 -33.5l1 -1q26 1 50 0.5t30 -1t14 0.5h2q6 9 11.5 45t14.5 45q10 -1 14 -0.5t10.5 0t16.5 -1.5q9 -20 36 -86q52 -9 89 -2zM270 249l52 -244q-28 -7 -50 -7 q-28 0 -61 7q-4 9 -16 39.5t-19 46.5q-6 1 -18 1h-11q-5 -12 -9 -40q0 -3 -0.5 -14t-3 -18t-8.5 -15q-8 -4 -36 -4q-9 1 -40 0t-44 -1l3 17q0 1 1 8t2 11q38 249 100 454q14 3 25 3q39 0 75 3q8 -28 32 -135l14 -61q9 -41 12 -51zM9 18v-1v1zM154 215q7 -1 22 -1l-14 59 q-3 0 -3 -7q-1 -22 -5 -51zM147 540l-88 1q-6 21 -3 68v18q21 10 54 10q24 0 44 -10q-5 -72 -7 -87zM264 540l-86 1q-6 21 -3 68v18q20 10 53 10q26 0 44 -10v-15q-3 -40 -8 -72z" />
<glyph unicode="&#xe5;" horiz-adv-x="334" d="M138 632q9 4 22 4q19 0 28 -9q5 -8 5 -17q1 -12 -3 -32q-4 -9 -32 -11h-6q-12 0 -18 7q-7 8 -7 32q0 8 1 12q3 8 10 14zM215 555q17 45 4 92q-14 19 -57 21q-39 2 -55 -15q-6 -6 -9 -14q-6 -33 1 -81q7 -19 33 -21q21 -2 40 1q32 0 43 17zM190 202q-18 0 -50 2 q6 39 11 58t9.5 22.5t10 -10t9.5 -28.5t10 -44zM308 13l-49 234q-6 22 -28.5 120.5t-27.5 116.5q-25 -2 -44 -2.5t-23.5 0t-14.5 -0.5q-18 -60 -34.5 -128t-28 -124.5t-20 -103t-13.5 -78t-6 -33.5l1 -1q26 1 50 0.5t30 -1t14 0.5h2q6 9 11.5 45t14.5 45q10 -1 14 -0.5 t10.5 0t16.5 -1.5q9 -20 36 -86q52 -9 89 -2zM270 249l52 -244q-28 -7 -50 -7q-28 0 -61 7q-4 9 -16 39.5t-19 46.5q-6 1 -18 1h-11q-5 -12 -9 -40q-4 -29 -19 -48q-6 -3 -29 -3q-9 1 -39.5 0t-43.5 -1l2 17q0 1 1 8t2 11q38 249 100 454q14 3 25 3q39 0 75 3q8 -28 32 -135 l14 -61q9 -41 12 -51zM9 18v-1v1zM154 215q7 -1 22 -1l-14 59q-3 0 -3 -7q-1 -22 -5 -51zM225 550l-1 -1q-13 -23 -50 -23q-20 -3 -43 -1q-32 2 -43 31q-4 30 -4 50q0 18 3 34q6 14 12 21q23 21 64 18q49 -2 65 -26q8 -27 8 -47q0 -31 -11 -56zM160 625q-8 0 -16 -3 q-4 -2 -6 -8l1 1q-1 -4 -1 -9q0 -20 4 -24h-1q3 -3 11 -3h9q17 2 18 4q4 16 2 26q0 4 -2 10q-5 6 -19 6z" />
<glyph unicode="&#xe6;" horiz-adv-x="539" d="M198 198q-6 -2 -22.5 -1.5t-23.5 -0.5h-1q4 45 22 92v-1q24 -84 25 -89zM491 100q-29 2 -88 2.5t-85 1.5h-1q-9 17 -4 86q3 2 17.5 2.5t34.5 0.5t30 1q0 9 1 30t0.5 36t-3.5 28h-41q-28 0 -41 1q-4 7 -2.5 39t0.5 41q27 4 90 3t89 6v1v94q-3 2 -139 0.5t-221 -5.5 l-26 -113l-20 -83l-14 -57l-9 -39l-5 -26q-4 -16 -4.5 -19.5t-3 -17t-4 -22.5t-5 -32t-8.5 -49h4h90q1 0 2 1q3 13 11 39t10 38l1 2h1l48 -2q2 -13 8 -38t8 -38q22 -1 273 -1l1 2q7 37 5 86v1zM502 111v-12q2 -53 -7 -99q-14 0 -47 -0.5t-47 -0.5q-12 0 -35.5 -0.5 t-34.5 -0.5q-71 0 -129 3q-2 10 -10 46q-6 25 -7 30h-4h-25l-9 -27q-5 -20 -16 -52q-5 0 -18 0.5t-18 0.5q-33 2 -61 -1h-19l11 66q7 36 8 40q6 46 40 187q5 24 21 89l24 100q133 6 322 6q46 0 57 -4q4 -35 2 -75q0 -5 -0.5 -20t-0.5 -19q-44 -9 -107 -7h-28q-34 0 -42 -1 q0 -17 -1 -23q-2 -29 0 -37h82q7 -43 5 -79q0 -5 -0.5 -20t-0.5 -18q-23 -2 -54 -2h-28q-2 -26 -2 -40q0 -19 3 -26q25 -1 73 -1q59 0 103 -3zM164 208h11h9q-4 16 -12 42q-5 -16 -8 -42z" />
<glyph unicode="&#xe7;" horiz-adv-x="356" d="M32 364q-6 -101 -2 -221v-7q3 -60 24 -97.5t71 -30.5v-2q-2 -11 -6.5 -29t-7.5 -32t-3 -18q0 -1 1 -1q2 -2 28 -0.5t31 1.5q2 7 21 79h1q68 3 102 63t14 125q-11 3 -26 4t-36 0t-24 -1q-1 -7 -1.5 -20.5t-2 -24t-5.5 -18.5q-13 -27 -47 -23q-27 6 -35 47q-7 66 -1 178 q2 17 13.5 28.5t29.5 10.5q5 0 8 -1q18 -4 24 -19t7 -37t5 -31h2q53 -9 88 -2q1 1 2 1q16 53 -6.5 108t-72.5 74q-26 11 -90 11q-45 0 -62 -12q-38 -31 -43 -96q-1 -2 -1 -7zM20 365q0 7 1 9q9 68 47 101q21 15 70 15q64 0 94 -11q42 -17 67.5 -60t25.5 -90q0 -26 -12 -54 q-17 -5 -42 -5q-22 0 -64 7q-7 17 -9 42q-2 41 -19 44h-9q-12 1 -20.5 -7.5t-10.5 -20.5q-2 -60 -2 -93q0 -42 3 -83q6 -28 27 -37q25 -2 34 16q2 5 5 38q0 17 3 32q2 0 13.5 0.5t15.5 0.5q47 2 77 -7q10 -31 10 -54q0 -59 -34.5 -103.5t-91.5 -50.5q-15 -52 -21 -79 q-28 0 -38 -1q-22 -2 -42 5q-1 16 -1.5 19t3 13t4.5 15q6 20 7 29q-47 1 -68.5 41.5t-24.5 98.5v8q-1 25 -1 89q0 68 3 133z" />
<glyph unicode="&#xe8;" horiz-adv-x="340" d="M315 102q-34 -1 -93.5 1t-81.5 2v1q-5 56 0 83q3 3 17 3.5t33 1t30 3.5q0 10 1 29.5t0.5 34.5t-2.5 28v1q-9 0 -38 0.5t-44 1.5l-1 1q-4 4 -2.5 38t1.5 40h1h2q22 3 88 2t87 7q0 10 1 30t1 36t-2 29q-2 3 -99 1.5t-177 -5.5q-4 -68 -4.5 -143t1.5 -169.5t2 -144.5 q38 -3 83 -3t104 1t86 1q8 27 6 87v2zM115 662l-45 -49q4 -3 20 -17l30 -26q14 -13 19 -20q21 -3 49 -1.5t38 4.5l-32 33l-46 46q-19 19 -33 30zM55 613l58 64q39 -31 89 -82h-1q27 -27 45 -47q-38 -11 -75 -11q-18 0 -39 3q-10 13 -52 48zM327 114v-14q0 -4 0.5 -14 t0.5 -15q0 -33 -10 -69q-65 0 -94 -1q-33 -1 -96 -1q-65 0 -104 4q0 62 -2 158q-2 98 -2 145q0 92 6 176q117 5 241 5q59 0 60 -5v-39q0 -6 -0.5 -17t-0.5 -16t-0.5 -20t-0.5 -21q-44 -10 -113 -8h-30q-27 0 -36 -1q0 -14 -1 -20q-2 -23 1 -39h39q10 0 44 -2q5 -30 3 -75 q0 -5 -0.5 -19t-0.5 -18q-24 -7 -57 -7q-6 0 -11.5 1t-8 1t-4.5 -2q-2 -16 -2 -26q0 -15 2 -39q20 0 62 -2h73h42z" />
<glyph unicode="&#xe9;" horiz-adv-x="342" d="M309 102q-34 -1 -93.5 1t-81.5 2v1q-5 56 0 83q3 3 17 3.5t33 1t30 3.5q0 10 1 29.5t0.5 34.5t-2.5 28v1q-9 0 -38 0.5t-44 1.5l-1 1q-4 4 -2.5 38t1.5 40h1h2q22 3 88 2t87 7q0 10 1 30t1 36t-2 29q-2 3 -99 1.5t-177 -5.5q-4 -68 -4.5 -143t1.5 -169.5t2 -144.5 q38 -3 83.5 -3t104 1t86.5 1q7 27 5 87v2zM273 607l-45 49q-14 -11 -34 -30l-44 -46l-33 -33q29 -9 87 -3q5 7 19 20l30 26q16 14 20 17zM230 671l58 -64q-2 -1 -12 -11t-14 -13q-49 -45 -51 -49q-21 -3 -39 -3q-40 0 -76 12l46 46h-1q50 51 89 82zM321 114v-14 q0 -4 0.5 -14t0.5 -15q0 -33 -10 -69q-65 0 -94 -1q-33 -1 -96 -1q-65 0 -104 4q0 62 -2 158q-2 98 -2 145q0 92 6 176q117 5 242 5q57 0 58 -5q1 -9 1 -39q0 -6 -0.5 -17t-0.5 -16t-0.5 -20t-0.5 -21q-44 -10 -113 -8h-29q-27 0 -37 -1q0 -14 -1 -20q-2 -23 1 -39h39 q10 0 44 -2q5 -30 3 -75q0 -5 -0.5 -19t-0.5 -18q-24 -7 -57 -7q-6 0 -11.5 1t-8 1t-4.5 -2q-2 -16 -2 -26q0 -15 2 -39q20 0 62 -2h73h42z" />
<glyph unicode="&#xea;" horiz-adv-x="343" d="M270 549l-95 95q-76 -69 -95 -95q55 -3 63 -2q3 1 15 13l15 15q4 -3 11 -10l12 -13q5 -5 6 -5q20 -2 34 -1t23.5 2.5t10.5 0.5zM313 102q-34 -1 -93.5 1t-81.5 2v1q-5 56 0 83q3 3 17 3.5t33 1t30 3.5q0 10 1 29.5t0.5 34.5t-2.5 28v1q-9 0 -38 0.5t-44 1.5l-1 1 q-4 4 -2.5 38t1.5 40h1h2q22 3 88 2t87 7q0 10 1 30t1 36t-2 29q-2 3 -99 1.5t-177 -5.5q-4 -68 -4.5 -143t1.5 -169.5t2 -144.5q38 -3 83 -3t104 1t86 1q8 27 6 87v2zM325 114v-14q0 -4 0.5 -14t0.5 -15q0 -33 -10 -69q-65 0 -94 -1q-33 -1 -96 -1q-65 0 -104 4 q0 62 -2 158q-2 98 -2 145q0 92 6 176q117 5 241 5q53 0 58 -4q2 -18 2 -40q0 -6 -0.5 -17t-0.5 -16t-0.5 -20t-0.5 -21q-44 -10 -113 -8h-29q-28 0 -37 -1q0 -14 -1 -20q-2 -23 1 -39h39q10 0 44 -2q5 -30 3 -75q0 -5 -0.5 -19t-0.5 -18q-24 -7 -57 -7q-6 0 -11.5 1t-8 1 t-4.5 -2q-2 -16 -2 -26q0 -15 2 -39q20 0 62 -2h73h42zM176 659l116 -116l-28 -6q-35 -5 -63 -1q-5 0 -8 2t-6 6.5t-6 6.5q-5 7 -8 9l-4 -4h1q-16 -18 -23 -20q-11 -1 -35 0q-5 1 -27 2t-27 1q29 40 92 98z" />
<glyph unicode="&#xeb;" horiz-adv-x="347" d="M196 551l66 -1h2v1q0 6 1 23t1 32l1 14q-9 5 -35.5 4.5t-38.5 -5.5q0 -64 1 -68h2zM78 551l65 -1h1v1q5 65 5 69q-9 5 -35.5 4.5t-38.5 -5.5q0 -64 1 -68h2zM315 102q-34 -1 -93.5 1t-81.5 2v1q-5 56 0 83q3 3 17 3.5t33 1t30 3.5q0 10 1 29.5t0.5 34.5t-2.5 28v1 q-9 0 -38 0.5t-44 1.5l-1 1q-4 4 -2.5 38t1.5 40h1h2q22 3 88 2t87 7q0 10 1 30t1 36t-2 29q-2 3 -99 1.5t-177 -5.5q-4 -68 -4.5 -143t1.5 -169.5t2 -144.5q38 -3 83 -3t104 1t86 1q8 27 6 87v2zM327 114v-14q0 -4 0.5 -14t0.5 -15q0 -33 -10 -69q-65 0 -94 -1 q-33 -1 -96 -1q-65 0 -104 4q0 62 -2 158q-2 98 -2 145q0 92 6 176q117 5 241 5q52 0 56 -5q4 -36 4 -39q0 -6 -0.5 -17t-0.5 -16t-0.5 -20t-0.5 -21q-44 -10 -113 -8h-30q-27 0 -36 -1q0 -14 -1 -20q-2 -23 1 -39h39q10 0 44 -2q5 -30 3 -75q0 -5 -0.5 -19t-0.5 -18 q-24 -7 -57 -7q-6 0 -11.5 1t-8 1t-4.5 -2q-2 -16 -2 -26q0 -15 2 -39q20 0 62 -2h73h42zM154 539l-88 1q-6 21 -3 68v18q21 10 54 10q24 0 44 -10q-5 -72 -7 -87zM271 539l-87 1q-5 21 -2 68v18q20 10 53 10q24 0 44 -10v-15q-3 -40 -8 -72z" />
<glyph unicode="&#xec;" horiz-adv-x="203" d="M175 484h-16q-30 -1 -74 2q-1 0 -12.5 1t-14.5 0v-1q-8 -77 -3.5 -233t-1.5 -242q6 2 62 0t59 6q-4 107 -4 154t2.5 155.5t2.5 154.5v3zM58 659l-45 -49q3 -3 20 -17t30.5 -26.5t17.5 -19.5q60 -6 88 3l-33 34l-44 45q-20 19 -34 30zM-3 610l59 64q43 -33 88 -82h-1 q22 -20 46 -47q-39 -11 -75 -11q-18 0 -39 3q-6 8 -15 16l-20 18q-11 10 -17 15q-4 4 -14.5 13.5t-11.5 10.5zM159 495l27 4q0 -65 -2 -159q-2 -114 -2 -181q0 -99 3 -146q-11 -14 -50 -14q-26 0 -36 1q-35 2 -59 -4q5 60 5 126q0 41 -2 123q-2 70 -2 117q0 76 7 131 q16 7 30 5q2 0 4 -0.5t3 -0.5t4 -0.5t5 -0.5q29 -2 65 -1z" />
<glyph unicode="&#xed;" horiz-adv-x="213" d="M153 484h-16q-29 -1 -73 2q-1 0 -12.5 1t-14.5 0v-1q-8 -76 -3.5 -233t-2.5 -242q6 2 62 0t59 6q-3 108 -3.5 154.5t2 155.5t2.5 154v3zM194 608l-44 49q-14 -11 -34.5 -30.5t-44 -44.5t-33.5 -34q28 -9 88 -3q4 7 17.5 19.5t30.5 26.5t20 17zM151 672l59 -64 q-2 -1 -12 -11t-14 -13q-5 -5 -16 -15l-21 -18q-9 -8 -15 -16q-21 -3 -39 -3q-39 0 -75 12l46 46h-1q52 55 88 82zM137 495l27 4q0 -112 -1 -159q-3 -171 -3 -181q0 -83 4 -146q-12 -14 -51 -14q-25 0 -36 1q-34 2 -58 -4q5 60 5 126q0 41 -2 123q-2 70 -2 117q0 76 7 131 q14 7 29 5q2 0 4.5 -0.5t3.5 -0.5q2 0 4 -0.5t4 -0.5q31 -2 65 -1z" />
<glyph unicode="&#xee;" horiz-adv-x="225" d="M207 549l-96 95q-6 -6 -24 -22l-27 -24l-21 -23q-13 -14 -22 -26q55 -3 63 -2q2 0 8 6l12 13l9 9q4 -3 11 -10t12 -12.5t7 -5.5q19 -2 33.5 -1t24 2.5t10.5 0.5zM168 484h-17q-29 -1 -73 2q-1 0 -12.5 1t-14.5 0v-1q-8 -76 -3.5 -233t-2.5 -242q7 2 63 0t59 6 q-4 107 -4 154t2.5 155.5t2.5 154.5v3zM151 495l29 3q0 -17 -3 -158q-3 -171 -3 -181q0 -83 4 -146q-12 -14 -51 -14q-25 0 -36 1q-34 2 -58 -4q5 60 5 126q0 41 -2 123q-2 70 -2 117q0 76 7 131q15 7 29 5q2 0 4.5 -0.5t3.5 -0.5q2 0 4.5 -0.5t3.5 -0.5q31 -2 65 -1z M112 659l113 -113l-25 -9q-33 -5 -63 -1q-7 1 -13 8q-3 5 -6 7q-6 7 -9 9l-4 -4h1q-13 -16 -22 -20q-12 -1 -36 0q-4 1 -26 2t-27 1q13 18 27 33l20 24q8 8 24 22.5t20 18.5z" />
<glyph unicode="&#xef;" horiz-adv-x="234" d="M144 552l66 -1h2v1q0 6 1 23t2 31l1 15q-10 5 -36.5 4.5t-38.5 -5.5q0 -64 1 -68h2zM26 552l66 -1v1q5 65 5 69q-9 5 -35.5 4.5t-38.5 -5.5q0 -64 1 -68h2zM169 484h-16q-30 -1 -74 2q-1 0 -12.5 1t-14.5 0v-1q-8 -77 -3.5 -233t-1.5 -242q6 2 62 0t59 6q-4 107 -4 154 t2.5 155.5t2.5 154.5v3zM153 495l27 3q0 -64 -2 -158q-3 -171 -3 -181q0 -83 4 -146q-11 -14 -50 -14q-26 0 -37 1q-34 2 -58 -4q5 60 5 126q0 41 -2 123q-2 70 -2 117q0 76 7 131q15 7 29 5q2 0 4.5 -0.5t3.5 -0.5t4 -0.5t5 -0.5q29 -2 65 -1zM102 540l-88 1q-6 21 -3 68 v18q21 10 54 10q24 0 44 -10q-5 -72 -7 -87zM219 540l-86 1q-6 21 -3 68v18q20 10 53 10q26 0 44 -10v-15q-3 -40 -8 -72z" />
<glyph unicode="&#xf1;" horiz-adv-x="367" d="M327 16l1 10q-2 43 -1.5 121.5t-0.5 122.5l1 214q-6 3 -44.5 2.5t-60.5 -4.5v-2q-5 -27 -1 -82t0 -67q-79 132 -81 142v1q-23 7 -52 9t-47 -4q-5 -66 -5.5 -145.5t1.5 -172t1 -146.5q0 -1 1 -1q14 3 54 -1t51 1h1q-4 85 3 197q39 -108 80 -200q16 3 36 0.5t40 -2.5t23 7z M339 26l-1 -11q-7 -20 -67 -16q-32 2 -49 -1q-35 74 -65 158q-2 -56 -2 -77v-72q-26 -9 -68 -5q-32 4 -61 0v60q0 77 -1 115q-1 40 -1 120q0 108 7 190q20 7 42 7q39 0 77 -12q5 -22 58 -109q3 -6 4 -7q-1 5 -1.5 14.5t-0.5 15.5q-3 48 -3 51q0 23 4 44q40 7 72 7 q33 0 55 -5l-1 -223q1 -33 1 -112v-66q0 -44 1 -66zM127 539q-3 25 3 32q19 15 38 10q4 -1 14 -15q7 -17 25 -24.5t37 -4.5q31 5 47 36t12 61q0 2 -2 2q-33 0 -49 -2q-7 -19 -20 -32t-27 -1q-6 4 -14.5 15.5t-15.5 15.5q-19 12 -42.5 8.5t-40.5 -21.5q-19 -22 -37 -78 q57 3 72 -2zM139 525l-15 2q-10 3 -34 3l-50 -2q23 74 38 93q32 32 66 32q22 0 36 -11q7 -4 16 -16t15 -16q9 -7 18.5 6t14.5 29q32 4 70 0q5 -36 -14.5 -74t-53.5 -46q-21 -2 -41.5 6t-29.5 24q-7 16 -17 15q-12 -2 -19 -9q-6 -8 -1 -23q1 -4 1 -13z" />
<glyph unicode="&#xf2;" horiz-adv-x="341" d="M228 290l1 -46v-31l-1 -5v-14v-17q-1 -10 -1 -21.5t-0.5 -15.5t-3 -10t-8.5 -13q-20 -23 -54 -20t-47 29q-4 13 -6 28.5t-4 35.5l-3 30q-3 65 6 109q10 30 32 47q26 18 52 8q31 -14 34 -56q0 -6 1 -15.5t2 -16.5v-6zM301 407q-10 25 -28 41q-37 29 -93.5 32t-99.5 -19 q-10 -8 -15 -13q-33 -37 -35 -114q-2 -35 3 -210q2 -47 16 -73q18 -41 89 -47q37 -3 75 6q47 12 69 41q23 38 25 90q0 4 0.5 11t1.5 11q2 25 2.5 71t1.5 67q0 43 -2 65q-3 23 -10 41zM105 659l-45 -49q61 -53 69 -63q58 -6 88 3q-10 9 -33.5 34t-44 44.5t-34.5 30.5zM45 610 l58 64q36 -27 89 -82h-1l46 -47q-39 -11 -76 -11q-17 0 -39 3q-6 8 -14 16t-20 18t-17 15q-16 14 -26 24zM311 411v1q9 -22 12 -45q2 -22 2 -67q-2 -44 -2 -63q0 -53 -2 -78q-1 -3 -1 -7q0 -2 -0.5 -5.5t-0.5 -5.5q-2 -50 -31 -101q-20 -26 -72 -41q-38 -10 -79 -7 q-77 6 -99 54v-1q-15 30 -17 79q0 16 -2 52q-3 99 -3 100q0 21 2 59q2 78 38 121q10 10 18 14q44 21 95 21q66 0 111 -34q20 -18 31 -46zM218 244l-1 44q-1 5 -1 11q0 4 -0.5 14t-1.5 14q-3 34 -28 47h1q-21 8 -42 -8l1 1q-22 -18 -28 -42v2q-6 -36 -6 -74q0 -21 1 -32 q1 -5 2 -15t1 -14q5 -51 8 -61q13 -23 42 -23q25 0 40 17v-1q10 12 10 30q0 16 1 24q0 6 0.5 17.5t0.5 13.5v35z" />
<glyph unicode="&#xf3;" horiz-adv-x="338" d="M214 672l58 -64q-2 -1 -12 -11t-14 -13q-49 -45 -51 -49q-23 -3 -39 -3q-40 0 -76 12l46 46h-1q53 55 89 82zM284 403v1q-6 18 -24 36q-38 28 -97 28q-45 0 -82 -17q-9 -5 -14 -10h1q-31 -37 -33 -108q-2 -38 -2 -57q0 -15 0.5 -31.5t1.5 -36t1 -31.5q2 -30 2 -53 q2 -43 15 -69q18 -34 80 -40q43 -2 71 7q44 10 62 35v-1q22 37 24 85q0 2 0.5 5.5t0.5 5.5q0 10 1 14v-2q2 25 2 73q0 22 2 64q0 36 -2 64q-3 21 -10 38zM234 293l1 -49v-35q0 -2 -0.5 -13.5t-0.5 -19.5q-1 -9 -1 -22q0 -25 -15 -44q-22 -25 -58 -25q-44 0 -64 38 q-4 16 -9 67q-1 4 -2 14.5t-1 14.5q-1 11 -1 34q0 45 6 75q10 33 36 56q32 25 68 10q33 -16 38 -65q0 -4 0.5 -14t1.5 -14zM223 244l-1 46v6q-1 7 -2 16.5t-1 15.5q-2 41 -34 56q-26 10 -52 -8q-22 -17 -32 -47q-8 -37 -6 -109l3 -30q2 -20 4 -35.5t6 -28.5q13 -26 47 -29 t54 20q6 7 8.5 13t3 10t0.5 15.5t1 21.5v17v14l1 5v31zM295 407q6 -14 10 -41q2 -22 2 -65q-1 -21 -1.5 -67t-2.5 -71q-1 -7 -1 -22q-2 -50 -26 -90q-22 -29 -69 -41q-37 -9 -75 -6q-71 6 -89 47q-14 28 -16 73q-5 175 -3 210q2 76 35 114q5 5 15 13q44 22 100 19t93 -32 q18 -14 28 -41zM257 608l-45 49q-14 -11 -34.5 -30.5t-44 -44.5t-33.5 -34q30 -9 88 -3q6 9 69 63z" />
<glyph unicode="&#xf4;" horiz-adv-x="342" d="M226 290l1 -46v-31l-1 -5v-14v-17q-1 -10 -1 -21.5t-0.5 -15.5t-3 -10t-8.5 -13q-20 -23 -54 -20t-47 29q-4 13 -6 28.5t-4 35.5l-3 30q-3 65 6 109q10 30 32 47q26 18 52 8q31 -14 34 -56q0 -6 1 -15.5t2 -16.5v-6zM299 407q-10 25 -28 41q-37 29 -93 32t-100 -19 q-10 -8 -15 -13q-33 -37 -35 -114q-2 -35 3 -210q2 -47 16 -73q18 -41 89 -47q37 -3 75 6q47 12 69 41q23 38 25 90q0 4 0.5 11t1.5 11q2 25 2.5 71t1.5 67q0 43 -2 65q-3 23 -10 41zM309 411v1q9 -22 12 -45q2 -22 2 -67q-2 -44 -2 -63q0 -53 -2 -78q-1 -3 -1 -7 q0 -2 -0.5 -5.5t-0.5 -5.5q-2 -50 -31 -101q-20 -26 -72 -41q-38 -10 -79 -7q-77 6 -99 54v-1q-15 30 -17 79q0 16 -2 52q-3 99 -3 100q0 21 2 59q2 79 39 121q8 9 17 14q44 21 95 21q66 0 111 -34q20 -18 31 -46zM216 244l-1 44q-1 5 -1 11q0 4 -0.5 14t-1.5 14 q-3 35 -28 47h1q-21 8 -42 -8l1 1q-22 -18 -28 -42l1 2q-7 -34 -7 -74q0 -21 1 -32q1 -5 2 -15t1 -14q5 -51 8 -61q13 -23 42 -23q25 0 40 17v-1q10 12 10 30q0 16 1 24q0 6 0.5 17.5t0.5 13.5v35zM262 549l-96 95q-7 -7 -24 -22l-26 -24q-10 -9 -22.5 -23t-21.5 -26 q55 -3 63 -2q2 0 8 6l13 13q6 7 8 9q4 -3 11 -10t12 -12.5t7 -5.5q19 -2 33.5 -1t24 2.5t10.5 0.5zM167 659l115 -115l-27 -7q-34 -5 -63 -1q-5 0 -8 2t-6 6.5t-5 6.5q-6 7 -9 9l-4 -4h1q-13 -17 -23 -20q-11 -1 -35 0q-4 1 -26 2t-27 1q13 18 26 33l22 24q7 8 23 22.5 t20 18.5z" />
<glyph unicode="&#xf5;" horiz-adv-x="350" d="M229 290l1 -46v-31v-5q0 -6 -0.5 -14.5t-0.5 -16.5q-1 -10 -1 -21.5t-0.5 -15.5t-3 -10t-8.5 -13q-20 -23 -54 -20t-47 29q-4 13 -6 28.5t-4 35.5l-3 30q-3 65 6 109q10 30 31 47q27 18 53 8q31 -14 34 -56q0 -6 1 -15.5t1 -16.5zM302 407q-10 25 -28 41q-38 29 -94 32 t-99 -19q-10 -8 -15 -13q-33 -37 -35 -114q-2 -35 3 -210q2 -47 16 -73q18 -41 89 -47q37 -3 75 6q47 12 69 41q23 38 25 90q0 4 0.5 11t1.5 11q2 25 2.5 71t1.5 67q0 43 -2 65q-3 23 -10 41zM312 411v1q9 -22 12 -45q2 -22 2 -67q-2 -44 -2 -63q0 -53 -2 -78q-1 -3 -1 -7 q0 -2 -0.5 -5.5t-0.5 -5.5q-2 -50 -31 -101q-19 -26 -72 -41q-38 -10 -79 -7q-77 6 -99 54v-1q-15 30 -17 79q0 16 -2 52q-3 99 -3 100q0 21 2 59q2 78 38 121q10 10 18 14q43 21 95 21q66 0 111 -34q18 -15 31 -46zM219 244l-1 44q-1 5 -1 11q0 4 -0.5 14t-1.5 14 q-3 34 -28 47h1q-21 8 -42 -8l1 1q-22 -18 -28 -42v2q-6 -36 -6 -74q0 -21 1 -32q0 -5 1 -15t2 -14q5 -51 8 -61q13 -23 42 -23q25 0 40 17v-1q10 12 10 30q0 16 1 24q0 6 0.5 17.5t0.5 13.5v35zM120 539q-3 25 3 32q19 15 38 10q4 -1 14 -15q7 -17 25 -24.5t37 -4.5 q31 5 47 36t12 61q0 2 -2 2q-33 0 -49 -2q-7 -19 -20 -32t-27 -1q-6 4 -14.5 15.5t-15.5 15.5q-19 12 -42.5 8.5t-40.5 -21.5q-19 -22 -37 -78q57 3 72 -2zM132 525l-15 2q-11 3 -34 3l-50 -2q23 74 38 93q32 32 66 32q22 0 36 -11q7 -4 16 -16t15 -16q9 -7 18.5 6t14.5 29 q32 4 70 0q5 -36 -14.5 -74t-53.5 -46q-21 -2 -41.5 6t-29.5 24q-7 16 -17 15q-12 -2 -19 -9q-6 -8 -1 -23q1 -4 1 -13z" />
<glyph unicode="&#xf6;" horiz-adv-x="346" d="M191 552l66 -1h2v1q0 6 1 23t2 31l1 15q-10 5 -36.5 4.5t-38.5 -5.5q0 -64 1 -68h2zM73 552l66 -1v1q5 65 5 69q-9 5 -35.5 4.5t-38.5 -5.5q0 -64 1 -68h2zM228 290l1 -46v-31l-1 -5v-14v-17q-1 -10 -1 -21.5t-0.5 -15.5t-3 -10t-8.5 -13q-20 -23 -54 -20t-47 29 q-4 13 -6 28.5t-4 35.5l-3 30q-3 65 6 109q10 30 32 47q26 18 52 8q31 -14 34 -56q0 -6 1 -15.5t2 -16.5v-6zM301 407q-10 25 -28 41q-37 29 -93.5 32t-99.5 -19q-10 -8 -15 -13q-33 -37 -35 -114q-2 -35 3 -210q2 -47 16 -73q18 -41 89 -47q37 -3 75 6q47 12 69 41 q23 38 25 90q0 4 0.5 11t1.5 11q2 25 2.5 71t1.5 67q0 43 -2 65q-3 23 -10 41zM311 411v1q9 -22 12 -45q2 -22 2 -67q-2 -44 -2 -63q0 -53 -2 -78q-1 -3 -1 -7q0 -2 -0.5 -5.5t-0.5 -5.5q-2 -50 -31 -101q-20 -26 -72 -41q-38 -10 -79 -7q-77 6 -99 54v-1q-15 30 -17 79 q0 16 -2 52q-3 99 -3 100q0 21 2 59q2 78 38 121q10 10 18 14q44 21 95 21q66 0 111 -34q20 -18 31 -46zM218 244l-1 44q-1 5 -1 11q0 4 -0.5 14t-1.5 14q-3 34 -28 47h1q-21 8 -42 -8l1 1q-22 -18 -28 -42v2q-6 -36 -6 -74q0 -21 1 -32q1 -5 2 -15t1 -14q5 -51 8 -61 q13 -23 42 -23q25 0 40 17v-1q10 12 10 30q0 16 1 24q0 6 0.5 17.5t0.5 13.5v35zM149 540l-88 1q-6 21 -3 68v18q21 10 54 10q24 0 44 -10q-5 -72 -7 -87zM266 540l-86 1q-6 21 -3 68v18q20 10 53 10q26 0 44 -10v-15q-3 -40 -8 -72z" />
<glyph unicode="&#xf7;" horiz-adv-x="440" d="M156 333l108 -1h2v1v1q0 8 1 35.5t2.5 51.5t1.5 25q-13 6 -56 5.5t-63 -7.5q0 -3 -1 -28.5t-0.5 -47.5t2.5 -35h3zM156 12l108 -1h2v1v1q0 8 1 35.5t2.5 51.5t1.5 25q-13 7 -56 6t-63 -8q0 -3 -1 -28t-0.5 -47.5t2.5 -35.5h3zM14 175q12 -1 201.5 -3.5t200.5 -1.5h1 q-4 5 -3 57.5t1 57.5h-399q-2 -10 -2 -110zM13 163l-11 12q0 98 4 122h421q0 -39 -1 -53q0 -4 -0.5 -15t-0.5 -15q0 -17 5 -55q-12 -1 -208.5 1t-208.5 3zM273 0l-130 1q-4 42 -4 60q0 8 0.5 22t0.5 20q0 5 0.5 15.5t0.5 12.5q39 11 80 11q38 0 62 -9q0 -17 -4 -81 q-2 -38 -6 -52zM273 321l-130 1q-4 40 -4 60q0 8 0.5 22t0.5 20q0 4 0.5 14.5t0.5 12.5q36 12 80 12q39 0 62 -10q0 -15 -4 -81q-2 -37 -6 -51z" />
<glyph unicode="&#xf8;" horiz-adv-x="358" d="M231 267q0 -9 2.5 -33.5t2 -51.5t-7.5 -54q-9 -28 -60 -39q0 1 -1 1l29 84q24 67 35 95v-2zM108 191q-2 4 1 54q1 3 2 8t1 8q1 7 3 38.5t5 47.5q5 13 18.5 24t27.5 13h4h1v-1zM318 296q8 99 -30 143q-1 8 5.5 24t6.5 24q-7 5 -24.5 5.5t-34.5 -1t-33 0.5h-1q-3 0 -4 -9 q0 -5 -1 -6q-85 10 -123 -20l-3 -3q-13 -12 -27 -40q-7 -13 -9.5 -29t-3 -38.5t-1.5 -29.5q-10 -158 17 -267v-1l1 -1l-1 -1q-21 -53 -17 -60q10 0 30 -0.5t35.5 0t23.5 2.5h-1l1 1q9 8 9 9h1q11 2 37 2.5t38 1.5q37 4 63.5 27t35.5 60q10 57 10 206zM329 295v-24 q0 -123 -10 -184q-9 -40 -38.5 -66t-70.5 -30q-12 -1 -39 -1q-21 0 -32 -1q-4 -6 -9 -11q-17 -5 -63 -3h-40q-7 12 12 75q-19 80 -19 181q0 43 3 87q2 18 2 28q2 50 13 73t30 43l8 7q28 22 85 22q11 0 31 -2q0 15 18 15q15 -3 39 -1q45 2 62 -12q0 -17 -6 -31q-5 -10 -5 -17 q31 -39 31 -109q0 -17 -2 -39zM126 293q0 -2 -0.5 -7.5t-1.5 -7.5l1 1q1 1 1 2q16 45 27 85q-13 -7 -22 -23q-3 -19 -5 -50zM225 190q0 4 -0.5 12.5t-0.5 13.5q-2 -7 -6 -19l-8 -22l-7 -19q-18 -49 -19 -51q29 10 34 27q7 26 7 58z" />
<glyph unicode="&#xf9;" horiz-adv-x="348" d="M315 462q-10 5 -26.5 6t-42.5 -1.5t-28 -2.5q-1 -39 -2 -152t-4 -172q-7 -31 -40 -33t-42 30q-12 148 -7 328v1q-18 5 -93 2h-1h1q1 -64 -1 -184.5t-2 -170.5q3 -57 55.5 -85.5t115.5 -21.5q46 4 75 34t34 75q18 159 8 347zM108 659l-45 -49q61 -53 69 -63q58 -6 88 3 q-10 9 -33.5 34t-44 44.5t-34.5 30.5zM48 610l58 64q36 -27 89 -82h-1l46 -47q-38 -11 -76 -11q-16 0 -39 3q-6 8 -14 16t-20 18t-17 15q-16 14 -26 24zM321 471l6 -8q3 -129 3 -131q0 -120 -11 -218q-7 -48 -39 -80.5t-81 -39.5q-66 -6 -123 25.5t-60 92.5q0 106 1 158 q1 47 1 141v69q2 0 13 0.5t14 0.5q6 0 18 0.5t17 0.5q30 0 55 -10q-2 -68 -2 -112q0 -102 8 -222v2q6 -22 29 -22q25 0 31 25v-2q1 28 1.5 59.5t1 70t0.5 59.5q0 79 2 145q16 0 32 2q36 3 41 3q25 0 42 -9z" />
<glyph unicode="&#xfa;" horiz-adv-x="349" d="M310 462q-10 5 -26.5 6t-42.5 -1.5t-28 -2.5q-1 -39 -2 -152t-4 -172q-6 -31 -39 -33t-43 30q-12 162 -7 328v1q-17 5 -93 2h-1h1q1 -64 -1 -184.5t-2 -170.5q3 -57 55.5 -85.5t115.5 -21.5q46 4 75 34t35 75q17 161 7 347zM272 608l-45 49q-14 -11 -33 -30l-46 -45 l-32 -34q9 -3 38 -4t49 1q5 7 19 19l30 27q16 14 20 17zM229 672l58 -64l-11 -12q-10 -9 -14 -12q-3 -2 -17 -14t-22 -19.5t-13 -15.5q-21 -3 -39 -3q-39 0 -75 12l45 46h-1q50 51 89 82zM316 471l6 -8q3 -65 3 -131q0 -120 -11 -218q-7 -48 -38.5 -80.5t-81.5 -39.5 q-66 -6 -123 25.5t-60 92.5q0 54 2 158v141v69q2 0 13 0.5t14 0.5q6 0 18 0.5t18 0.5q29 0 54 -10q-2 -68 -2 -112q0 -110 9 -222v2q4 -22 28 -22q25 0 31 25v-2q1 31 4 189q0 112 1 145q16 0 32 2q36 3 41 3q26 0 42 -9z" />
<glyph unicode="&#xfb;" horiz-adv-x="351" d="M272 548l-95 95q-76 -69 -95 -95q55 -3 63 -2q3 1 15 14l15 14q4 -3 11 -10l12 -12q5 -6 6 -6q20 -2 34 -1t23.5 2.5t10.5 0.5zM313 462q-10 5 -26.5 6t-42.5 -1.5t-28 -2.5q-1 -39 -2 -152t-4 -172q-6 -31 -39.5 -33t-42.5 30q-12 148 -7 328v1q-17 5 -93 2h-1h1 q1 -64 -1 -184.5t-2 -170.5q3 -57 55.5 -85.5t115.5 -21.5q46 4 75 34t34 75q18 159 8 347zM319 471l6 -8q3 -129 3 -131q0 -120 -11 -218q-7 -48 -39 -80.5t-81 -39.5q-66 -6 -123 25.5t-60 92.5q0 26 0.5 79t0.5 79q1 47 1 141v69q2 0 13 0.5t14 0.5q6 0 18 0.5t17 0.5 q30 0 55 -10q-2 -68 -2 -112q0 -102 8 -222v2q6 -22 29 -22q25 0 31 25v-2q3 62 3 189q0 79 2 145q16 0 32 2q36 3 41 3q25 0 42 -9zM178 658l115 -115l-28 -7q-33 -5 -63 -1q-4 0 -7 2t-6 6.5t-6 6.5q-5 7 -8 9l-4 -4h1q-16 -18 -23 -20q-11 -1 -35 0q-5 1 -27 2t-27 1 q38 50 92 98z" />
<glyph unicode="&#xfc;" horiz-adv-x="354" d="M201 552l65 -1h2v1q0 6 1 23t2 31l1 15q-9 5 -35.5 4.5t-38.5 -5.5q0 -64 1 -68h2zM82 552l66 -1h1v1q5 65 5 69q-10 5 -36 4.5t-39 -5.5q0 -62 1 -68h2zM315 462q-10 5 -26.5 6t-42.5 -1.5t-28 -2.5q-1 -39 -2 -152t-4 -172q-7 -31 -40 -33t-42 30q-12 148 -7 328v1 q-18 5 -93 2h-1h1q1 -64 -1 -184.5t-2 -170.5q3 -57 55.5 -85.5t115.5 -21.5q46 4 75 34t34 75q18 159 8 347zM321 471l6 -8q3 -129 3 -131q0 -120 -11 -218q-7 -48 -39 -80.5t-81 -39.5q-66 -6 -123 25.5t-60 92.5q0 106 1 158q1 47 1 141v69q2 0 13 0.5t14 0.5q6 0 18 0.5 t17 0.5q30 0 55 -10q-2 -68 -2 -112q0 -102 8 -222v2q6 -22 29 -22q25 0 31 25v-2q1 28 1.5 59.5t1 70t0.5 59.5q0 79 2 145q16 0 32 2q36 3 41 3q25 0 42 -9zM159 540l-88 1q-6 21 -3 68v18q20 10 53 10q26 0 44 -10q-4 -72 -6 -87zM276 540l-87 1q-6 21 -3 68v18 q21 10 54 10q24 0 44 -10v-15q-3 -40 -8 -72z" />
<glyph unicode="&#xfd;" horiz-adv-x="322" d="M304 472q-12 2 -43 1t-50 -4l-1 -1q-45 -98 -53 -113q-22 42 -40 115q-12 5 -30 5t-40.5 -2t-30.5 -2q9 -36 41.5 -112.5t42.5 -117.5v-1q-76 -195 -87 -230h1q13 0 50.5 1.5t44.5 -0.5q25 74 97.5 225.5t97.5 234.5v1zM286 608l-45 49q-14 -11 -33 -30l-46 -45l-32 -34 q9 -3 38 -4t49 1q5 7 19 19l30 27q16 14 20 17zM243 672l58 -64q-18 -18 -25 -24q-3 -2 -17 -14t-22 -19.5t-13 -15.5q-21 -3 -39 -3q-39 0 -75 12l45 46h-1q50 51 89 82zM316 482l-1 -15q-26 -83 -102 -245q-67 -135 -97 -224q-23 4 -52 2q-33 -2 -66 0q22 70 74 201v-1 q3 8 8.5 20t8.5 20q-7 30 -42 115q-31 69 -46 128q22 0 44 2q24 2 39 2q21 0 44 -9q14 -61 29 -96q19 35 46 98q21 4 59.5 4.5t53.5 -2.5z" />
<glyph unicode="&#xff;" horiz-adv-x="328" d="M196 552l65 -1h2v1q0 6 1 23t2 31l1 15q-9 5 -35.5 4.5t-38.5 -5.5q0 -64 1 -68h2zM77 552l66 -1h1v1q5 65 5 69q-10 5 -36 4.5t-39 -5.5q0 -62 1 -68h2zM311 472q-12 2 -43.5 1t-49.5 -4l-1 -1q-45 -98 -53 -113q-22 42 -40 115q-12 5 -30 5t-40.5 -2t-30.5 -2 q9 -36 41.5 -112.5t42.5 -117.5v-1q-67 -166 -87 -230h1q13 0 50 1.5t44 -0.5q25 73 97.5 225t98.5 235v1zM322 482v-15q-28 -89 -103 -245q-68 -142 -96 -224q-23 4 -52 2q-34 -2 -66 0q29 92 74 201v-1l16 40q-8 37 -42 115q-31 74 -45 128q22 0 44 2q24 2 39 2 q20 0 44 -9q14 -61 29 -96q26 53 46 98q21 4 59 4.5t53 -2.5zM154 540l-88 1q-6 21 -3 68v18q20 10 53 10q26 0 44 -10q-4 -72 -6 -87zM271 540l-87 1q-6 21 -3 68v18q21 10 54 10q24 0 44 -10v-15q-3 -40 -8 -72z" />
<glyph unicode="&#x152;" horiz-adv-x="853" d="M343 494q6 -19 8 -45q1 -70 -10 -188q-11 -80 -49 -113q-20 -15 -41 -17.5t-38 11.5q-32 29 -39 89q-4 30 -2 88t-1 91q0 44 2 70q7 45 32 65q19 13 50.5 12.5t51.5 -14.5q17 -11 29 -35zM805 144q-42 2 -126 3t-121 2h-2q-10 18 -9.5 71t7.5 56h1q15 0 53 1.5t59 -1.5h1 v1q0 16 1 43.5t1 49.5t-2 42v1q-1 1 -1 2q-19 3 -59.5 3t-58.5 2q-9 7 -6.5 54t1.5 57l1 1q39 7 127 6t130 7q3 44 3 142q-12 1 -96 -0.5t-180.5 -2t-205.5 1.5q-17 -1 -55 2t-63.5 0t-48.5 -17q-46 -24 -73 -70.5t-28 -101.5q-1 -27 -6.5 -116.5t-3.5 -149.5t14 -116 q36 -104 140 -115q54 -4 80 -3t77.5 5.5t84.5 5.5q72 5 178 4.5t177 0.5h1q12 38 8 127v2zM817 155v-12q1 -15 1 -48q0 -50 -14 -92q-48 -1 -146 -1q-14 0 -40 0.5t-40 0.5q-77 0 -137 -5q-49 -1 -93 -6q-52 -5 -93 -5q-29 0 -57 3q-110 13 -151 129q-14 64 -14 145 q0 44 6 134q4 58 5 101q1 59 29 108t77 74v-1q34 22 84 22q15 0 39 -2q32 -2 49 -2q100 -2 155 -2q99 0 219 2q102 2 120 0q0 -7 0.5 -28t0.5 -29q0 -59 -5 -106q-46 -9 -112 -9h-34q-7 0 -21.5 0.5t-21.5 0.5q-39 0 -66 -5q0 -13 -2 -35q-4 -41 2 -56q13 -1 48 -1 q48 0 74 -4l1 -13q2 -26 2 -44q0 -7 -0.5 -22t-0.5 -23q0 -7 -3 -61q-46 4 -78 2q-10 -1 -41 -1q-1 -5 -1 -50q0 -44 5 -53q72 -2 109 -2q61 0 145 -4zM332 490q-2 4 -7 12q-8 21 -25 31q-16 13 -46 13q-25 0 -42 -11q-22 -16 -27 -56q-2 -24 -2 -68q2 -26 2 -45 q0 -8 -0.5 -22.5t-0.5 -21.5q-1 -15 -1 -45q0 -29 3 -45q7 -57 35 -82q8 -8 24 -8q20 0 41 16l-1 -1q35 30 44 106v-1q12 127 10 187q-2 24 -7 41z" />
<glyph unicode="&#x153;" horiz-adv-x="613" d="M247 343q3 -9 5 -31q1 -31 -6 -129q-7 -55 -34 -78q-32 -25 -55 -5q-22 21 -27 62q-3 21 -1.5 60.5t-0.5 62.5q0 31 2 49q3 31 22 45q13 8 35 8t35 -10q12 -7 20 -24q3 -5 5 -10zM566 102q-29 2 -87.5 2t-83.5 1h-1q-7 12 -6.5 48.5t5.5 39.5q12 0 37.5 1t40.5 -1v1v93v2 q-14 2 -42.5 2t-39.5 1q-6 5 -4 37t1 40v1q26 4 88 3.5t89 5.5q4 39 2 98q-7 0 -65.5 -1t-124.5 -1.5t-142 1.5q-13 -1 -38 1t-43 0t-34 -11q-31 -16 -50 -48.5t-20 -70.5q0 -19 -4 -81t-3 -103t10 -80q24 -70 96 -79q38 -3 55 -2t53 4t59 4q32 3 123.5 2t122.5 0q8 24 6 88 v2zM578 113v-19q2 -60 -11 -93h-152q-65 0 -101 -3q-41 -2 -62 -4q-46 -4 -67 -4q-13 0 -39 2q-77 8 -107 93q-10 44 -10 102q0 30 4 90q1 11 2 35t2 35q1 42 21 76.5t54 52.5v-1q30 17 85 13h35q74 -2 115 -2q74 0 156 2h74q0 -5 0.5 -23t0.5 -24q0 -37 -4 -72 q-42 -7 -106 -7h-28q-29 0 -43 -2q0 -18 -1 -23q-2 -22 1 -35h28q35 0 56 -5q4 -32 2 -72q0 -6 -0.5 -23.5t-0.5 -21.5q-34 4 -57 2q-5 0 -12 -0.5t-15 -0.5v-31q0 -26 3 -34q24 -1 71 -1q44 0 106 -2zM236 340l-4 6q-6 15 -21 24q-7 6 -25 6q-15 0 -27 -7q-13 -9 -17 -36 q-2 -17 -2 -47q3 -27 1 -62q-1 -10 -1 -30t2 -31q5 -37 23 -54q18 -14 41 5h-1q22 18 29 70q8 84 7 128q-2 20 -5 28z" />
<glyph unicode="&#x178;" horiz-adv-x="460" d="M268 746l94 -1h2v1v1q0 7 1.5 31.5t3 45t1.5 21.5q-14 7 -51.5 6.5t-54.5 -7.5q0 -2 -1 -24.5t-0.5 -42.5t2.5 -31h3zM100 746l93 -1h2v1v1q0 7 1.5 31.5t3 45t1.5 21.5q-13 7 -50.5 6.5t-54.5 -7.5q0 -2 -1 -24.5t-0.5 -42.5t2.5 -31h3zM443 679q-48 8 -135 -4l-2 -1 q-50 -115 -77 -166q-32 64 -57 168q-18 7 -44 7.5t-58.5 -2.5t-44.5 -3q13 -54 60 -165t61 -168v-2q-102 -260 -126 -333h2q22 -1 71 1t67 0q36 106 141 326t142 341v1zM455 688l-1 -14q-37 -118 -147 -352q-97 -200 -140 -324q-23 3 -74 1q-47 -2 -88 0q36 108 102 277 q22 52 27 68q-12 55 -61 167q-45 105 -63 178q8 0 56 3t52 3q36 0 65 -11q25 -104 46 -150q24 48 71 151q65 7 107 7q32 0 48 -4zM203 734l-116 1q-5 30 -5 54q0 7 0.5 20t0.5 18q0 4 0.5 13.5t0.5 11.5q25 10 70 10q36 0 59 -9l-1 -9q0 -9 -1 -23t-1 -25q-2 -35 -7 -62z M372 734l-117 1q-4 24 -4 54q0 7 0.5 20t0.5 18v25q26 10 70 10q38 0 59 -9l-1 -9q0 -9 -1 -23t-1 -25q-1 -26 -6 -62z" />
<glyph unicode="&#x2c6;" horiz-adv-x="347" d="M324 531l-155 155l-40 -37l-43 -39q-16 -15 -36.5 -37.5t-35.5 -42.5q88 -5 102 -4q5 2 25.5 23t24.5 24q5 -3 16 -15l20 -22q9 -10 13 -10q31 -3 54.5 -1t38.5 4.5t16 1.5zM169 702l174 -176l-31 -7q-26 -6 -63 -6q-25 0 -36 2q-13 4 -33 28q-10 12 -14 15l-13 -13 q-4 -3 -9 -9t-8.5 -9.5t-8.5 -7t-10 -4.5q-18 -1 -51 1q-26 2 -74 4q47 65 134 142z" />
<glyph unicode="&#x2dc;" horiz-adv-x="459" d="M139 500v1q-7 22 0 39l3 6q13 21 49 21q21 -1 34 -22q12 -29 39.5 -41t59.5 -6q48 6 73.5 54.5t18.5 98.5v1q-1 2 -2 2q-79 -3 -80 -3q-7 -28 -28 -50.5t-46 -0.5q-8 5 -21.5 22.5t-24.5 24.5q-31 20 -67.5 14t-62.5 -33q-34 -38 -58 -125q89 3 113 -3zM152 488l-16 1 q-17 4 -63 4l-63 -2q35 112 65 145q38 38 88 38q33 0 58 -18h-1q18 -11 29 -28l-1 1q16 -19 21 -21q16 -14 32.5 8t23.5 47q34 2 63 2q4 0 12.5 0.5t13.5 0.5q11 0 13 -11v-2q7 -51 -21.5 -104.5t-79.5 -62.5q-36 -6 -67 8t-45 46l1 -1q-8 14 -24 17q-31 0 -39 -16v1l-2 -6 v1q-6 -14 1 -34z" />
<glyph unicode="&#x2000;" horiz-adv-x="471" />
<glyph unicode="&#x2001;" horiz-adv-x="942" />
<glyph unicode="&#x2002;" horiz-adv-x="471" />
<glyph unicode="&#x2003;" horiz-adv-x="942" />
<glyph unicode="&#x2004;" horiz-adv-x="314" />
<glyph unicode="&#x2005;" horiz-adv-x="235" />
<glyph unicode="&#x2006;" horiz-adv-x="157" />
<glyph unicode="&#x2007;" horiz-adv-x="157" />
<glyph unicode="&#x2008;" horiz-adv-x="117" />
<glyph unicode="&#x2009;" horiz-adv-x="188" />
<glyph unicode="&#x200a;" horiz-adv-x="52" />
<glyph unicode="&#x2010;" horiz-adv-x="512" d="M35 204q14 -1 212 -4t216 -3h1q-4 23 -4.5 50t0.5 59.5t1 50.5h-423q-3 -27 -3 -153zM35 193l-11 11q0 120 4 164h444q0 -47 -1 -66q0 -5 -0.5 -19.5t-0.5 -20.5q0 -38 6 -75q-17 -1 -220.5 2t-220.5 4z" />
<glyph unicode="&#x2011;" horiz-adv-x="512" d="M35 204q14 -1 212 -4t216 -3h1q-4 23 -4.5 50t0.5 59.5t1 50.5h-423q-3 -27 -3 -153zM35 193l-11 11q0 120 4 164h444q0 -47 -1 -66q0 -5 -0.5 -19.5t-0.5 -20.5q0 -38 6 -75q-17 -1 -220.5 2t-220.5 4z" />
<glyph unicode="&#x2013;" horiz-adv-x="615" d="M37 198q17 -1 263.5 -4t261.5 -2h1q-4 23 -4.5 49.5t0.5 59.5t1 50h-521q0 -2 -1 -68.5t-1 -84.5zM25 188v10q0 117 4 165h543q0 -48 -1 -66q0 -6 -0.5 -20.5t-0.5 -19.5q0 -38 6 -76q-16 -1 -274.5 2.5t-276.5 4.5z" />
<glyph unicode="&#x2014;" horiz-adv-x="740" d="M38 198q17 -1 323.5 -4t321.5 -2h1q-4 23 -4.5 49.5t0.5 59.5t1 50h-119h-521q-3 -27 -3 -153zM26 187l1 11q0 129 3 165h663q0 -48 -1 -66q0 -6 -0.5 -20.5t-0.5 -19.5q0 -36 5 -76q-16 -1 -334.5 2t-335.5 4z" />
<glyph unicode="&#x2018;" horiz-adv-x="206" d="M122 468l1 2q13 39 64 231v1h-39q-27 0 -48.5 -0.5t-20.5 -0.5q-35 -127 -61 -235q1 -8 103 2h1zM129 457h-8l-2 -1h-3q-106 -12 -111 11q62 235 62 237l2 8q107 0 133 -1l-25 -96q-14 -58 -48 -158z" />
<glyph unicode="&#x2019;" horiz-adv-x="206" d="M122 467l1 2q13 39 64 231v1q-12 0 -39 -0.5t-48.5 -0.5t-20.5 0q-35 -127 -61 -235q1 -8 103 2h1zM129 456h-8h-2q-2 -1 -3 -1q-106 -12 -111 11q62 235 62 237l1 8q108 0 134 -1l-25 -96q-14 -58 -48 -158z" />
<glyph unicode="&#x201a;" horiz-adv-x="206" d="M122 -76l1 2q11 33 64 230v1q-12 0 -39 -0.5t-48.5 -0.5t-20.5 0q-37 -133 -61 -234q0 -2 5.5 -3.5t14 -1.5t18.5 0.5t21 1.5t19.5 2t16 2t8.5 1h1zM129 -88h-8h-2q-2 -1 -3 -1q-106 -12 -111 12q3 12 19 72l28 108l15 56l3 8h6h16h22h25h25h22h16l-25 -96 q-15 -61 -48 -159z" />
<glyph unicode="&#x201c;" horiz-adv-x="380" d="M248 701l-1 -2q-14 -40 -22 -68t-20 -77l-22 -86v-1q12 0 39 0.5t48.5 0.5t20.5 0l61 235q-2 9 -103 -2h-1zM95 701l-1 -2q-12 -36 -64 -231v-1q12 0 39 0.5t48.5 0.5t20.5 0q53 201 61 235q0 2 -5.5 3.5t-14 1.5t-18.5 -0.5t-21 -1.5t-19.5 -2t-16 -2t-8.5 -1h-1z M88 713h8l2 1h4q20 4 63.5 3.5t46.5 -15.5q-3 -12 -19 -72l-29 -108l-14 -56l-2 -8h-6h-16h-22h-26h-25h-23h-15l25 96q15 61 48 159zM240 713h9l2 1h4q19 4 62.5 3.5t46.5 -15.5q-21 -90 -62 -236l-2 -8h-6h-16h-22h-26h-25h-22h-15q0 2 25 96q14 59 47 159z" />
<glyph unicode="&#x201d;" horiz-adv-x="380" d="M134 471l1 2q18 54 64 231v1l-107 3q-3 -15 -62 -239q2 -9 103 2h1zM287 471l1 2q14 40 22 68l20 77l22 86v1q-12 0 -39 -0.5t-48.5 -0.5t-20.5 0l-14 -57l-28 -105l-19 -73q2 -9 103 2h1zM295 460h-9h-2q-2 -1 -3 -1q-106 -13 -110 11q23 97 62 237l1 7h6h16h22h26h25 h23h15q0 -2 -25 -96q-13 -56 -47 -158zM142 460h-9h-1q-2 -1 -3 -1q-106 -12 -111 11q23 97 62 237l4 13q105 -5 131 -6q-23 -87 -25 -96q-19 -74 -48 -158z" />
<glyph unicode="&#x201e;" horiz-adv-x="380" d="M242 151q-15 -42 -65 -234q12 0 39 0.5t48.5 0.5t20.5 0l15 57l27 105l19 73q-2 9 -104 -2zM193 153q-4 7 -50.5 3.5t-54.5 -7.5q-13 -40 -21 -69l-21 -76l-22 -87q12 0 39 0.5t48.5 0.5t20.5 0q35 127 61 235zM82 162h8h2q2 1 4 1q105 12 110 -11q-62 -235 -62 -237 l-1 -7q1 0 -27 0t-61.5 -0.5t-45.5 -0.5l25 97q14 58 48 158zM234 162h9h2q2 1 4 1q104 12 109 -11q-23 -97 -62 -237l-2 -7q1 0 -27 0t-61 -0.5t-44 -0.5q2 9 25 97q13 56 47 158z" />
<glyph unicode="&#x2022;" horiz-adv-x="244" d="M40 203q22 -26 46 -23h1l54 3q24 2 34 7q23 8 30 42q5 69 3 84q-3 31 -45 44q-10 3 -33 3h-45q-1 0 -4 -0.5t-5 -0.5q-8 -2 -14 -4q-8 -3 -13 -8q-7 -6 -12 -15q-1 -1 -3 -8q-4 -20 -4 -49q0 -39 3 -58q2 -9 7 -17zM31 197h-1q-7 12 -8 21q-4 31 -3 61q0 33 5 53q0 2 3 8 q5 11 15 19q8 6 16 9t16 5h6q2 0 4 1h51q20 0 32 -4h-1q21 -6 36.5 -20t16.5 -32q3 -23 -1 -67q-1 -7 -1 -21q-9 -38 -37 -51q-12 -5 -38 -7q-3 0 -9.5 -0.5t-9.5 -0.5q-10 0 -36 -2q-29 -4 -56 28z" />
<glyph unicode="&#x2026;" horiz-adv-x="522" d="M359 12l108 -1h2v1v1q5 95 5 112q-13 7 -56 6t-63 -8q0 -3 -1 -28t-0.5 -47.5t2.5 -35.5h3zM201 12l107 -1h2v1v1q0 6 2 35t3 52.5t1 24.5q-13 7 -56 6t-63 -8q0 -3 -1 -28t-0.5 -47.5t2.5 -35.5h3zM43 12l108 -1h2v1v1q0 6 2 35t3 52.5t1 24.5q-13 7 -56.5 6t-63.5 -8 q0 -104 1 -111h3zM161 0l-130 1q-5 35 -5 60q0 8 0.5 22t0.5 20q0 5 0.5 15.5t0.5 12.5q38 11 80 11q40 0 62 -9q0 -17 -4 -81q-2 -38 -5 -52zM318 0l-130 1q-5 35 -5 60q0 7 0.5 21t0.5 20q0 5 0.5 16t0.5 13q39 11 81 11q38 0 62 -9q0 -17 -4 -81q-2 -38 -6 -52zM476 0 l-129 1q-5 35 -5 60q0 8 0.5 22t0.5 20q0 5 0.5 15.5t0.5 12.5q38 11 80 11q40 0 62 -9q0 -17 -4 -81q-2 -38 -6 -52z" />
<glyph unicode="&#x202f;" horiz-adv-x="188" />
<glyph unicode="&#x2039;" horiz-adv-x="355" d="M312 91l11 9q-33 27 -92 85t-85 81q25 31 87.5 95.5t80.5 87.5q-12 8 -37 33.5t-36 32.5l-54 -56l-59 -59l-70 -72q-29 -32 -50 -59q42 -57 133.5 -140.5t105.5 -97.5l1 -1l23 20l14 14q4 4 7 6.5t5 4.5q3 3 8.5 9t6.5 7zM340 100l-20 -17l-18 -18q-21 -21 -55 -50 q-13 14 -93 88q-4 4 -19.5 17.5t-21 19t-19.5 18.5l-20 20l-20 20l-21 22q-9 10 -19 23l-21 26q14 18 32.5 39l30.5 34l36 36l30 30l24 24l32 35q20 18 28 27l34 35q21 -14 44 -39q21 -21 47 -38q-25 -31 -87 -95q-72 -77 -82 -89q12 -11 72 -71q44 -45 106 -97z" />
<glyph unicode="&#x203a;" horiz-adv-x="356" d="M25 100l11 -9q1 -1 6.5 -7t8.5 -9l6 -6q4 -4 15 -14l28 -25l1 1q14 14 105.5 97.5t133.5 140.5q-22 27 -52 58l-70 73l-57 59l-55 56q-11 -7 -35.5 -32.5t-36.5 -33.5q18 -23 80.5 -87.5t87.5 -95.5q-27 -24 -86 -82t-91 -84zM28 82l-19 19q41 34 105 96q63 63 72 71 q-29 35 -83 89q-71 75 -86 95q26 17 45 38q27 27 46 39q4 -4 16 -17t17 -18l27 -27q10 -11 30 -31l28 -28q86 -86 128 -139q-11 -15 -22 -28.5l-24 -28.5l-22 -23q-7 -8 -24.5 -24t-21 -19.5t-24.5 -22.5t-22 -20q-80 -74 -94 -89q-33 30 -54 51l-18 18v-1z" />
<glyph unicode="&#x205f;" horiz-adv-x="235" />
<glyph unicode="&#x20ac;" horiz-adv-x="496" d="M223 14l17 -2q141 -4 206 6q7 14 3.5 74.5t-2.5 72.5v1q-20 4 -55.5 5t-63 3t-56.5 8.5t-47.5 24.5t-24.5 47q15 1 52.5 1.5t58.5 3.5q9 55 -1 95q-29 2 -119 2q-3 16 -3 31h1q20 1 40 0.5t43 1t38 5.5v1q6 51 0 94v1q-15 5 -81 5h-4q7 11 15.5 19.5t20.5 14.5t21.5 10 t25.5 6t25 3t28 0.5t26.5 -1t28 -2t25.5 -1.5q1 1 1 3q7 70 -2 140v1h-1q-40 -2 -80 -0.5t-82 -1.5t-78 -10t-68.5 -25.5t-53.5 -48.5q-35 -56 -40 -141q0 -74 -1.5 -141.5t14 -134.5t48.5 -107q17 -21 36 -30q41 -26 89 -34zM239 1l-18 2q-45 8 -93 35q-25 16 -39 34l1 -1 q-39 46 -52.5 115.5t-13.5 166.5q0 54 1 81q0 4 0.5 14t0.5 13q5 91 42 147q18 27 46.5 45t53.5 27t67 13.5t65 5t71 0.5q11 0 39 -0.5t40 -0.5q6 -44 6 -95q0 -33 -3 -57q0 -5 -8 -14q-12 0 -26 2q-60 3 -61 3q-75 0 -109 -30q47 0 72 -10q3 -29 3 -53q0 -28 -3 -60 q-30 -8 -94 -8h-28q0 -5 1 -9h17q51 0 103 -3q6 -38 6 -56q0 -19 -5 -59q-32 -6 -75 -6h-31q7 -19 22 -31.5t41 -18t43.5 -7t51.5 -3.5q56 -2 87 -8q-2 -31 0 -65q2 -28 2 -44q0 -34 -7 -58q-58 -9 -123 -9q-43 0 -65 1q-4 0 -14 0.5t-14 0.5z" />
<glyph unicode="&#x2122;" horiz-adv-x="541" d="M488 280l1 158q2 33 1 93.5t0 93.5q-12 1 -38.5 -0.5t-35.5 -1.5q-6 -7 -17 -24t-17 -24q-2 0 -3 1q-3 4 -11.5 21t-16.5 25q-4 0 -35.5 0.5t-32.5 -2.5q-2 -329 1 -339l1 -1q62 0 69 1q-3 57 -1 170q11 2 21 -13.5t15 -17.5q4 5 12.5 17t13.5 18q4 -33 5 -97t2 -78h66z M239 624q-49 5 -210 5l1 -1q-4 -70 2 -78q3 -1 26.5 -1.5t32.5 -4.5l1 -1q4 -81 4 -146t-0.5 -91t-0.5 -27q12 1 40.5 1t41.5 2v1q-4 260 -3 263l1 1h1q48 3 61 0q4 32 2 77zM240 635l10 -1q2 -42 -3 -103q-27 7 -62 4v-71q1 -43 3 -191q-24 -4 -52 -4q-30 0 -53 -4v29 q0 4 0.5 28.5t0.5 44.5q0 91 -3 168q-9 2 -31 2q-17 0 -26 3q-6 8 -6 52v48h90q80 0 132 -5zM500 437l-1 -170q-14 1 -59 1h-29q-2 44 -2 77q0 54 -2 80q-7 -7 -15 -19q-15 7 -25 22q-2 2 -2 5h-1v-12q0 -9 -0.5 -26t-0.5 -25q0 -34 4 -98q-23 -4 -65 -4l-26 2q-6 14 -6 99 q0 139 1 261q28 5 56 3h28q12 -12 23 -33q0 -2 1 -4l2 -4q8 10 11 15q10 18 19 27q25 0 36 1q29 2 55 0q-2 -30 -2 -55q0 -30 1 -44q0 -6 0.5 -20t0.5 -20q0 -19 -2 -59z" />
</font>
</defs>
</svg>
